VelekaWorld-Bold.ufo
<glyph name="exclam" format="2">
  <advance width="339"/>
  <unicode hex="0021"/>
  <outline>
    <contour>
      <point x="90" y="70" type="curve" smooth="yes"/>
      <point x="90" y="122"/>
      <point x="134" y="149"/>
      <point x="171" y="149" type="curve" smooth="yes"/>
      <point x="208" y="149"/>
      <point x="251" y="119"/>
      <point x="251" y="70" type="curve" smooth="yes"/>
      <point x="251" y="24"/>
      <point x="214" y="-12"/>
      <point x="171" y="-12" type="curve" smooth="yes"/>
      <point x="138" y="-12"/>
      <point x="90" y="11"/>
    </contour>
    <contour>
      <point x="89" y="606" type="line"/>
      <point x="89" y="662"/>
      <point x="126" y="687"/>
      <point x="171" y="687" type="curve" smooth="yes"/>
      <point x="216" y="687"/>
      <point x="252" y="663"/>
      <point x="252" y="606" type="curve"/>
      <point x="198" y="208" type="line"/>
      <point x="144" y="208" type="line"/>
    </contour>
  </outline>
</glyph>
<glyph name="quotedbl" format="2">
  <advance width="392"/>
  <unicode hex="0022"/>
  <outline>
    <contour>
      <point x="40" y="651" type="line"/>
      <point x="40" y="688"/>
      <point x="57" y="714"/>
      <point x="97" y="714" type="curve" smooth="yes"/>
      <point x="137" y="714"/>
      <point x="155" y="688"/>
      <point x="155" y="651" type="curve"/>
      <point x="116" y="417" type="line"/>
      <point x="79" y="417" type="line"/>
    </contour>
    <contour>
      <point x="236" y="651" type="line"/>
      <point x="236" y="688"/>
      <point x="253" y="714"/>
      <point x="293" y="714" type="curve" smooth="yes"/>
      <point x="334" y="714"/>
      <point x="352" y="688"/>
      <point x="352" y="651" type="curve"/>
      <point x="312" y="417" type="line"/>
      <point x="275" y="417" type="line"/>
    </contour>
  </outline>
</glyph>
<glyph name="quotesingle" format="2">
  <advance width="175"/>
  <unicode hex="0027"/>
  <outline>
    <contour>
      <point x="31" y="651" type="line"/>
      <point x="31" y="688"/>
      <point x="47" y="714"/>
      <point x="88" y="714" type="curve" smooth="yes"/>
      <point x="128" y="714"/>
      <point x="146" y="688"/>
      <point x="146" y="651" type="curve"/>
      <point x="106" y="417" type="line"/>
      <point x="70" y="417" type="line"/>
    </contour>
  </outline>
</glyph>
<glyph name="asterisk" format="2">
  <advance width="500"/>
  <unicode hex="002A"/>
  <outline>
    <contour>
      <point x="53" y="571" type="line"/>
      <point x="125" y="600" type="line"/>
      <point x="232" y="521" type="line"/>
      <point x="226" y="507" type="line"/>
      <point x="96" y="506" type="line"/>
    </contour>
    <contour>
      <point x="125" y="416" type="line"/>
      <point x="232" y="494" type="line"/>
      <point x="244" y="482" type="line"/>
      <point x="204" y="358" type="line"/>
      <point x="128" y="338" type="line"/>
    </contour>
    <contour>
      <point x="200" y="658" type="line"/>
      <point x="250" y="718" type="line"/>
      <point x="300" y="658" type="line"/>
      <point x="258" y="533" type="line"/>
      <point x="241" y="533" type="line"/>
    </contour>
    <contour>
      <point x="256" y="482" type="line"/>
      <point x="268" y="494" type="line"/>
      <point x="375" y="416" type="line"/>
      <point x="372" y="338" type="line"/>
      <point x="296" y="358" type="line"/>
    </contour>
    <contour>
      <point x="267" y="522" type="line"/>
      <point x="373" y="600" type="line"/>
      <point x="447" y="571" type="line"/>
      <point x="403" y="506" type="line"/>
      <point x="274" y="507" type="line"/>
    </contour>
  </outline>
</glyph>
<glyph name="hyphen" format="2">
  <advance width="328"/>
  <unicode hex="002D"/>
  <outline>
    <contour>
      <point x="33" y="188" type="line"/>
      <point x="33" y="294" type="line"/>
      <point x="295" y="294" type="line"/>
      <point x="295" y="188" type="line"/>
    </contour>
  </outline>
</glyph>
<glyph name="zero" format="2">
  <advance width="586"/>
  <unicode hex="0030"/>
  <outline>
    <contour>
      <point x="36" y="335" type="curve" smooth="yes"/>
      <point x="36" y="522"/>
      <point x="112" y="683"/>
      <point x="293" y="683" type="curve" smooth="yes"/>
      <point x="475" y="683"/>
      <point x="552" y="522"/>
      <point x="552" y="335" type="curve" smooth="yes"/>
      <point x="552" y="147"/>
      <point x="475" y="-12"/>
      <point x="293" y="-12" type="curve" smooth="yes"/>
      <point x="112" y="-12"/>
      <point x="36" y="147"/>
    </contour>
    <contour>
      <point x="182" y="335" type="curve" smooth="yes"/>
      <point x="182" y="248"/>
      <point x="186" y="47"/>
      <point x="293" y="47" type="curve" smooth="yes"/>
      <point x="401" y="47"/>
      <point x="406" y="248"/>
      <point x="406" y="335" type="curve" smooth="yes"/>
      <point x="406" y="422"/>
      <point x="401" y="625"/>
      <point x="293" y="625" type="curve" smooth="yes"/>
      <point x="186" y="625"/>
      <point x="182" y="422"/>
    </contour>
  </outline>
</glyph>
<glyph name="three" format="2">
  <advance width="586"/>
  <unicode hex="0033"/>
  <outline>
    <contour>
      <point x="43" y="116" type="curve" smooth="yes"/>
      <point x="43" y="158"/>
      <point x="71" y="185"/>
      <point x="117" y="185" type="curve" smooth="yes"/>
      <point x="132" y="185"/>
      <point x="147" y="182"/>
      <point x="160" y="176" type="curve"/>
      <point x="192" y="63" type="line"/>
      <point x="215" y="52"/>
      <point x="239" y="46"/>
      <point x="265" y="46" type="curve" smooth="yes"/>
      <point x="336" y="46"/>
      <point x="396" y="110"/>
      <point x="396" y="186" type="curve" smooth="yes"/>
      <point x="396" y="258"/>
      <point x="339" y="308"/>
      <point x="256" y="308" type="curve" smooth="yes"/>
      <point x="226" y="308"/>
      <point x="186" y="303"/>
      <point x="186" y="303" type="curve"/>
      <point x="186" y="378" type="line"/>
      <point x="194" y="377"/>
      <point x="201" y="377"/>
      <point x="214" y="377" type="curve" smooth="yes"/>
      <point x="314" y="377"/>
      <point x="373" y="423"/>
      <point x="373" y="500" type="curve" smooth="yes"/>
      <point x="373" y="566"/>
      <point x="316" y="620"/>
      <point x="245" y="620" type="curve" smooth="yes"/>
      <point x="232" y="620"/>
      <point x="209" y="615"/>
      <point x="192" y="608" type="curve"/>
      <point x="192" y="485" type="line"/>
      <point x="178" y="476"/>
      <point x="160" y="471"/>
      <point x="138" y="471" type="curve" smooth="yes"/>
      <point x="90" y="471"/>
      <point x="60" y="499"/>
      <point x="60" y="543" type="curve" smooth="yes"/>
      <point x="60" y="624"/>
      <point x="162" y="687"/>
      <point x="292" y="687" type="curve" smooth="yes"/>
      <point x="424" y="687"/>
      <point x="519" y="613"/>
      <point x="519" y="511" type="curve" smooth="yes"/>
      <point x="519" y="434"/>
      <point x="447" y="365"/>
      <point x="349" y="349" type="curve"/>
      <point x="349" y="353" type="line"/>
      <point x="461" y="353"/>
      <point x="543" y="285"/>
      <point x="543" y="192" type="curve" smooth="yes"/>
      <point x="543" y="73"/>
      <point x="419" y="-16"/>
      <point x="255" y="-16" type="curve" smooth="yes"/>
      <point x="137" y="-16"/>
      <point x="43" y="43"/>
    </contour>
  </outline>
</glyph>
<glyph name="A" format="2">
  <advance width="686"/>
  <unicode hex="0041"/>
  <outline>
    <contour>
      <point x="5" y="0" type="line"/>
      <point x="5" y="51" type="line"/>
      <point x="61" y="59" type="line"/>
      <point x="285" y="687" type="line"/>
      <point x="399" y="687" type="line"/>
      <point x="621" y="77" type="line"/>
      <point x="626" y="65"/>
      <point x="629" y="61"/>
      <point x="643" y="58" type="curve"/>
      <point x="681" y="51" type="line"/>
      <point x="681" y="0" type="line"/>
      <point x="405" y="0" type="line"/>
      <point x="405" y="51" type="line"/>
      <point x="464" y="58" type="line"/>
      <point x="469" y="59"/>
      <point x="474" y="65"/>
      <point x="474" y="71" type="curve"/>
      <point x="474" y="72.25"/>
      <point x="473.383" y="74.8807"/>
      <point x="473" y="76" type="curve"/>
      <point x="419" y="234" type="line"/>
      <point x="205" y="234" type="line"/>
      <point x="150" y="80" type="line"/>
      <point x="149.491" y="78.5747"/>
      <point x="149" y="76.25"/>
      <point x="149" y="75" type="curve"/>
      <point x="149" y="67"/>
      <point x="158" y="59"/>
      <point x="164" y="58" type="curve"/>
      <point x="220" y="51" type="line"/>
      <point x="220" y="0" type="line"/>
    </contour>
    <contour>
      <point x="224" y="293" type="line"/>
      <point x="394" y="293" type="line"/>
      <point x="308" y="533" type="line"/>
    </contour>
  </outline>
</glyph>
<glyph name="asciicircum" format="2">
  <advance width="339"/>
  <unicode hex="005E"/>
  <outline>
    <contour>
      <point x="0" y="551" type="line"/>
      <point x="111" y="722" type="line"/>
      <point x="229" y="722" type="line"/>
      <point x="340" y="551" type="line"/>
      <point x="257" y="551" type="line"/>
      <point x="170" y="646" type="line"/>
      <point x="83" y="551" type="line"/>
    </contour>
  </outline>
</glyph>
<glyph name="b" format="2">
  <advance width="598"/>
  <unicode hex="0062"/>
  <outline>
    <contour>
      <point x="20" y="649" type="line"/>
      <point x="20" y="690" type="line"/>
      <point x="173" y="740" type="line"/>
      <point x="224" y="740" type="line"/>
      <point x="224" y="454" type="line"/>
      <point x="262.929" y="482.919"/>
      <point x="316.772" y="500"/>
      <point x="369" y="500" type="curve" smooth="yes"/>
      <point x="476" y="500"/>
      <point x="566" y="417"/>
      <point x="566" y="274" type="curve" smooth="yes"/>
      <point x="566" y="120"/>
      <point x="460" y="0"/>
      <point x="273" y="0" type="curve" smooth="yes"/>
      <point x="90" y="0" type="line"/>
      <point x="90" y="649" type="line"/>
    </contour>
    <contour>
      <point x="224" y="59" type="line"/>
      <point x="229" y="57"/>
      <point x="239" y="55"/>
      <point x="245" y="55" type="curve" smooth="yes"/>
      <point x="356" y="55"/>
      <point x="421" y="102"/>
      <point x="421" y="244" type="curve" smooth="yes"/>
      <point x="421" y="352"/>
      <point x="371" y="417"/>
      <point x="277" y="417" type="curve" smooth="yes"/>
      <point x="253" y="417"/>
      <point x="235" y="414"/>
      <point x="224" y="411" type="curve"/>
    </contour>
  </outline>
</glyph>
<glyph name="u" format="2">
  <advance width="620"/>
  <unicode hex="0075"/>
  <outline>
    <contour>
      <point x="25" y="396" type="line"/>
      <point x="25" y="437" type="line"/>
      <point x="172" y="488" type="line"/>
      <point x="224" y="488" type="line"/>
      <point x="224" y="190" type="line" smooth="yes"/>
      <point x="224" y="141"/>
      <point x="231" y="79"/>
      <point x="316" y="79" type="curve" smooth="yes"/>
      <point x="358" y="79"/>
      <point x="396" y="96"/>
      <point x="396" y="96" type="curve"/>
      <point x="396" y="396" type="line"/>
      <point x="333" y="396" type="line"/>
      <point x="333" y="437" type="line"/>
      <point x="479" y="488" type="line"/>
      <point x="530" y="488" type="line"/>
      <point x="530" y="73" type="line" smooth="yes"/>
      <point x="530" y="61"/>
      <point x="541" y="51"/>
      <point x="553" y="50" type="curve" smooth="yes"/>
      <point x="597" y="47" type="line"/>
      <point x="597" y="0" type="line"/>
      <point x="396" y="0" type="line"/>
      <point x="396" y="55" type="line"/>
      <point x="396" y="55"/>
      <point x="311" y="-12"/>
      <point x="238" y="-12" type="curve" smooth="yes"/>
      <point x="124" y="-12"/>
      <point x="90" y="49"/>
      <point x="90" y="151" type="curve" smooth="yes"/>
      <point x="90" y="396" type="line"/>
    </contour>
  </outline>
</glyph>
<glyph name="v" format="2">
  <advance width="565"/>
  <unicode hex="0076"/>
  <outline>
    <contour>
      <point x="10" y="441" type="line"/>
      <point x="10" y="488" type="line"/>
      <point x="273" y="488" type="line"/>
      <point x="273" y="441" type="line"/>
      <point x="227" y="438" type="line" smooth="yes"/>
      <point x="217.505" y="437.209"/>
      <point x="211.766" y="430.782"/>
      <point x="211.766" y="422.684" type="curve" smooth="yes"/>
      <point x="211.766" y="420.548"/>
      <point x="212.165" y="418.296"/>
      <point x="213" y="416" type="curve" smooth="yes"/>
      <point x="311" y="139" type="line"/>
      <point x="420" y="416" type="line"/>
      <point x="420.715" y="417.786"/>
      <point x="421.046" y="419.605"/>
      <point x="421.046" y="421.392" type="curve"/>
      <point x="421.046" y="429.611"/>
      <point x="414.035" y="437.179"/>
      <point x="405" y="438" type="curve" smooth="yes"/>
      <point x="363" y="441" type="line"/>
      <point x="363" y="488" type="line"/>
      <point x="557" y="488" type="line"/>
      <point x="557" y="441" type="line"/>
      <point x="500" y="434" type="line"/>
      <point x="328" y="0" type="line"/>
      <point x="229" y="0" type="line"/>
      <point x="69" y="435" type="line"/>
    </contour>
  </outline>
</glyph>
<glyph name="bar" format="2">
  <advance width="397"/>
  <unicode hex="007C"/>
  <outline>
    <contour>
      <point x="156" y="-258" type="line"/>
      <point x="156" y="796" type="line"/>
      <point x="242" y="796" type="line"/>
      <point x="242" y="-258" type="line"/>
    </contour>
  </outline>
</glyph>
<glyph name="braceright" format="2">
  <advance width="495"/>
  <unicode hex="007D"/>
  <outline>
    <contour>
      <point x="73" y="-122" type="line"/>
      <point x="73" y="-67" type="line"/>
      <point x="92" y="-67" type="line" smooth="yes"/>
      <point x="166" y="-67"/>
      <point x="195" y="-27"/>
      <point x="195" y="76" type="curve" smooth="yes"/>
      <point x="195" y="98" type="line" smooth="yes"/>
      <point x="195" y="206"/>
      <point x="254" y="294"/>
      <point x="355" y="294" type="curve"/>
      <point x="355" y="290" type="line"/>
      <point x="267" y="290"/>
      <point x="195" y="359"/>
      <point x="195" y="477" type="curve" smooth="yes"/>
      <point x="195" y="504" type="line" smooth="yes"/>
      <point x="195" y="602"/>
      <point x="161" y="651"/>
      <point x="92" y="651" type="curve" smooth="yes"/>
      <point x="73" y="651" type="line"/>
      <point x="73" y="706" type="line"/>
      <point x="92" y="706" type="line" smooth="yes"/>
      <point x="252" y="706"/>
      <point x="319" y="644"/>
      <point x="319" y="496" type="curve" smooth="yes"/>
      <point x="319" y="462" type="line" smooth="yes"/>
      <point x="319" y="363"/>
      <point x="352" y="322"/>
      <point x="431" y="322" type="curve" smooth="yes"/>
      <point x="454" y="322" type="line"/>
      <point x="454" y="262" type="line"/>
      <point x="431" y="262" type="line" smooth="yes"/>
      <point x="353" y="262"/>
      <point x="319" y="221"/>
      <point x="319" y="126" type="curve" smooth="yes"/>
      <point x="319" y="90" type="line" smooth="yes"/>
      <point x="319" y="-59"/>
      <point x="252" y="-122"/>
      <point x="92" y="-122" type="curve" smooth="yes"/>
    </contour>
  </outline>
</glyph>
<glyph name="asciitilde" format="2">
  <advance width="833"/>
  <unicode hex="007E"/>
  <outline>
    <contour>
      <point x="86" y="201" type="curve"/>
      <point x="86" y="296" type="line"/>
      <point x="161" y="353"/>
      <point x="227" y="373"/>
      <point x="281" y="373" type="curve" smooth="yes"/>
      <point x="333" y="373"/>
      <point x="381" y="357"/>
      <point x="428" y="338" type="curve" smooth="yes"/>
      <point x="465" y="323"/>
      <point x="515" y="306"/>
      <point x="555" y="306" type="curve" smooth="yes"/>
      <point x="598" y="306"/>
      <point x="652" y="324"/>
      <point x="747" y="395" type="curve"/>
      <point x="747" y="300" type="line"/>
      <point x="666" y="242"/>
      <point x="611" y="224"/>
      <point x="554" y="224" type="curve" smooth="yes"/>
      <point x="506" y="224"/>
      <point x="460" y="239"/>
      <point x="415" y="257" type="curve" smooth="yes"/>
      <point x="370" y="275"/>
      <point x="324" y="291"/>
      <point x="275" y="291" type="curve" smooth="yes"/>
      <point x="229" y="291"/>
      <point x="169" y="264"/>
    </contour>
  </outline>
</glyph>
<glyph name="cent" format="2">
  <advance width="586"/>
  <unicode hex="00A2"/>
  <outline>
    <contour>
      <point x="66" y="252" type="curve" smooth="yes"/>
      <point x="66" y="399"/>
      <point x="177" y="512"/>
      <point x="322" y="512" type="curve"/>
      <point x="322" y="615" type="line"/>
      <point x="379" y="615" type="line"/>
      <point x="379" y="514" type="line"/>
      <point x="422" y="514"/>
      <point x="486" y="500"/>
      <point x="521" y="484" type="curve"/>
      <point x="521" y="340" type="line"/>
      <point x="459" y="340" type="line"/>
      <point x="443" y="435" type="line"/>
      <point x="432" y="445"/>
      <point x="398" y="455"/>
      <point x="379" y="455" type="curve"/>
      <point x="379" y="60" type="line"/>
      <point x="425" y="60"/>
      <point x="447" y="76"/>
      <point x="447" y="76" type="curve"/>
      <point x="459" y="176" type="line"/>
      <point x="521" y="176" type="line"/>
      <point x="521" y="27" type="line"/>
      <point x="504" y="16"/>
      <point x="417" y="0"/>
      <point x="379" y="0" type="curve"/>
      <point x="379" y="-103" type="line"/>
      <point x="322" y="-103" type="line"/>
      <point x="322" y="1" type="line"/>
      <point x="181" y="1"/>
      <point x="66" y="113"/>
    </contour>
    <contour>
      <point x="204" y="252" type="curve" smooth="yes"/>
      <point x="204" y="158"/>
      <point x="253" y="79"/>
      <point x="322" y="62" type="curve"/>
      <point x="322" y="453" type="line"/>
      <point x="250" y="438"/>
      <point x="204" y="360"/>
    </contour>
  </outline>
</glyph>
<glyph name="yen" format="2">
  <advance width="634"/>
  <unicode hex="00A5"/>
  <outline>
    <contour>
      <point x="7" y="620" type="line"/>
      <point x="7" y="671" type="line"/>
      <point x="282" y="671" type="line"/>
      <point x="282" y="620" type="line"/>
      <point x="236" y="616" type="line"/>
      <point x="228" y="615"/>
      <point x="221" y="609"/>
      <point x="221" y="601" type="curve"/>
      <point x="221" y="599"/>
      <point x="222" y="596"/>
      <point x="223" y="594" type="curve" smooth="yes"/>
      <point x="348" y="354" type="line"/>
      <point x="476" y="589" type="line"/>
      <point x="477" y="591"/>
      <point x="478" y="594"/>
      <point x="478" y="597" type="curve" smooth="yes"/>
      <point x="478" y="602"/>
      <point x="475" y="608"/>
      <point x="463" y="611" type="curve"/>
      <point x="414" y="621" type="line"/>
      <point x="414" y="671" type="line"/>
      <point x="628" y="671" type="line"/>
      <point x="628" y="620" type="line"/>
      <point x="571" y="609" type="line"/>
      <point x="472" y="431" type="line"/>
      <point x="602" y="431" type="line"/>
      <point x="602" y="379" type="line"/>
      <point x="441" y="379" type="line"/>
      <point x="389" y="285" type="line"/>
      <point x="602" y="285" type="line"/>
      <point x="602" y="234" type="line"/>
      <point x="392" y="234" type="line"/>
      <point x="392" y="79" type="line" smooth="yes"/>
      <point x="392" y="72"/>
      <point x="400" y="59"/>
      <point x="418" y="57" type="curve" smooth="yes"/>
      <point x="477" y="52" type="line"/>
      <point x="477" y="0" type="line"/>
      <point x="167" y="0" type="line"/>
      <point x="167" y="52" type="line"/>
      <point x="227" y="57" type="line"/>
      <point x="245" y="59"/>
      <point x="252" y="72"/>
      <point x="252" y="79" type="curve" smooth="yes"/>
      <point x="252" y="234" type="line"/>
      <point x="38" y="234" type="line"/>
      <point x="38" y="285" type="line"/>
      <point x="240" y="285" type="line"/>
      <point x="192" y="379" type="line"/>
      <point x="38" y="379" type="line"/>
      <point x="38" y="431" type="line"/>
      <point x="160" y="431" type="line"/>
      <point x="68" y="610" type="line"/>
    </contour>
  </outline>
</glyph>
<glyph name="copyright" format="2">
  <advance width="836"/>
  <unicode hex="00A9"/>
  <outline>
    <contour>
      <point x="32" y="350" type="curve" smooth="yes"/>
      <point x="32" y="564"/>
      <point x="205" y="739"/>
      <point x="419" y="739" type="curve" smooth="yes"/>
      <point x="631" y="739"/>
      <point x="806" y="565"/>
      <point x="806" y="350" type="curve" smooth="yes"/>
      <point x="806" y="135"/>
      <point x="632" y="-39"/>
      <point x="417" y="-39" type="curve" smooth="yes"/>
      <point x="206" y="-39"/>
      <point x="32" y="135"/>
    </contour>
    <contour>
      <point x="80" y="348" type="curve" smooth="yes"/>
      <point x="80" y="162"/>
      <point x="231" y="8"/>
      <point x="418" y="8" type="curve" smooth="yes"/>
      <point x="606" y="8"/>
      <point x="758" y="163"/>
      <point x="758" y="350" type="curve" smooth="yes"/>
      <point x="758" y="539"/>
      <point x="606" y="692"/>
      <point x="419" y="692" type="curve" smooth="yes"/>
      <point x="234" y="692"/>
      <point x="80" y="541"/>
    </contour>
    <contour>
      <point x="200" y="350" type="curve" smooth="yes"/>
      <point x="200" y="479"/>
      <point x="293" y="585"/>
      <point x="447" y="585" type="curve" smooth="yes"/>
      <point x="537" y="585"/>
      <point x="588" y="558"/>
      <point x="588" y="558" type="curve"/>
      <point x="588" y="437" type="line"/>
      <point x="532" y="437" type="line"/>
      <point x="518" y="517" type="line"/>
      <point x="510" y="524"/>
      <point x="487" y="535"/>
      <point x="461" y="535" type="curve" smooth="yes"/>
      <point x="355" y="535"/>
      <point x="314" y="435"/>
      <point x="314" y="348" type="curve" smooth="yes"/>
      <point x="314" y="243"/>
      <point x="368" y="164"/>
      <point x="458" y="164" type="curve" smooth="yes"/>
      <point x="494" y="164"/>
      <point x="510" y="173"/>
      <point x="518" y="178" type="curve"/>
      <point x="532" y="264" type="line"/>
      <point x="588" y="264" type="line"/>
      <point x="588" y="139" type="line"/>
      <point x="588" y="139"/>
      <point x="529" y="114"/>
      <point x="443" y="114" type="curve" smooth="yes"/>
      <point x="302" y="114"/>
      <point x="200" y="201"/>
    </contour>
  </outline>
</glyph>
<glyph name="uni00AD" format="2">
  <advance width="328"/>
  <unicode hex="00AD"/>
  <outline>
    <contour>
      <point x="33" y="188" type="line"/>
      <point x="33" y="294" type="line"/>
      <point x="295" y="294" type="line"/>
      <point x="295" y="188" type="line"/>
    </contour>
  </outline>
</glyph>
<glyph name="mu" format="2">
  <advance width="582"/>
  <unicode hex="00B5"/>
  <outline>
    <contour>
      <point x="58" y="-162" type="curve" smooth="yes"/>
      <point x="58" y="-139"/>
      <point x="63" y="-128"/>
      <point x="68" y="-114" type="curve" smooth="yes"/>
      <point x="77" y="-90"/>
      <point x="90" y="-56"/>
      <point x="90" y="66" type="curve" smooth="yes"/>
      <point x="90" y="488" type="line"/>
      <point x="216" y="488" type="line"/>
      <point x="216" y="163" type="line" smooth="yes"/>
      <point x="216" y="110"/>
      <point x="232" y="61"/>
      <point x="271" y="61" type="curve" smooth="yes"/>
      <point x="307" y="61"/>
      <point x="339" y="84"/>
      <point x="364" y="125" type="curve"/>
      <point x="364" y="488" type="line"/>
      <point x="492" y="488" type="line"/>
      <point x="492" y="88" type="line" smooth="yes"/>
      <point x="492" y="75"/>
      <point x="499" y="55"/>
      <point x="515" y="55" type="curve" smooth="yes"/>
      <point x="534" y="55"/>
      <point x="545" y="68"/>
      <point x="555" y="118" type="curve"/>
      <point x="587" y="118" type="line"/>
      <point x="581" y="31"/>
      <point x="544" y="-12"/>
      <point x="465" y="-12" type="curve" smooth="yes"/>
      <point x="430" y="-12"/>
      <point x="391" y="18"/>
      <point x="373" y="68" type="curve"/>
      <point x="333" y="8"/>
      <point x="296" y="-12"/>
      <point x="236" y="-12" type="curve" smooth="yes"/>
      <point x="217" y="-12"/>
      <point x="174" y="0"/>
      <point x="159" y="27" type="curve"/>
      <point x="159" y="5" type="line" smooth="yes"/>
      <point x="159" y="-39"/>
      <point x="171" y="-79"/>
      <point x="181" y="-110" type="curve" smooth="yes"/>
      <point x="187" y="-130"/>
      <point x="192" y="-148"/>
      <point x="192" y="-160" type="curve" smooth="yes"/>
      <point x="192" y="-196"/>
      <point x="151" y="-222"/>
      <point x="123" y="-222" type="curve" smooth="yes"/>
      <point x="98" y="-222"/>
      <point x="58" y="-197"/>
    </contour>
  </outline>
</glyph>
<glyph name="Atilde" format="2">
  <advance width="686"/>
  <unicode hex="00C3"/>
  <outline>
    <contour>
      <point x="5" y="0" type="line"/>
      <point x="5" y="51" type="line"/>
      <point x="61" y="59" type="line"/>
      <point x="285" y="687" type="line"/>
      <point x="399" y="687" type="line"/>
      <point x="621" y="77" type="line"/>
      <point x="626" y="65"/>
      <point x="629" y="61"/>
      <point x="643" y="58" type="curve"/>
      <point x="681" y="51" type="line"/>
      <point x="681" y="0" type="line"/>
      <point x="405" y="0" type="line"/>
      <point x="405" y="51" type="line"/>
      <point x="464" y="58" type="line"/>
      <point x="469" y="59"/>
      <point x="474" y="65"/>
      <point x="474" y="71" type="curve"/>
      <point x="474" y="72"/>
      <point x="474" y="74"/>
      <point x="473" y="75" type="curve"/>
      <point x="419" y="234" type="line"/>
      <point x="205" y="234" type="line"/>
      <point x="150" y="79" type="line"/>
      <point x="149" y="78"/>
      <point x="149" y="76"/>
      <point x="149" y="75" type="curve"/>
      <point x="149" y="67"/>
      <point x="158" y="59"/>
      <point x="164" y="58" type="curve"/>
      <point x="220" y="51" type="line"/>
      <point x="220" y="0" type="line"/>
    </contour>
    <contour>
      <point x="166" y="747" type="line"/>
      <point x="183" y="816"/>
      <point x="219" y="871"/>
      <point x="286" y="871" type="curve" smooth="yes"/>
      <point x="312" y="871"/>
      <point x="330" y="860"/>
      <point x="349" y="848" type="curve"/>
      <point x="368" y="835"/>
      <point x="390" y="824"/>
      <point x="420" y="824" type="curve" smooth="yes"/>
      <point x="441" y="824"/>
      <point x="461" y="845"/>
      <point x="464" y="871" type="curve"/>
      <point x="518" y="871" type="line"/>
      <point x="501" y="802"/>
      <point x="464" y="747"/>
      <point x="396" y="747" type="curve" smooth="yes"/>
      <point x="371" y="747"/>
      <point x="353" y="758"/>
      <point x="335" y="770" type="curve" smooth="yes"/>
      <point x="315" y="783"/>
      <point x="294" y="795"/>
      <point x="264" y="795" type="curve" smooth="yes"/>
      <point x="242" y="795"/>
      <point x="223" y="774"/>
      <point x="220" y="747" type="curve"/>
    </contour>
    <contour>
      <point x="224" y="293" type="line"/>
      <point x="394" y="293" type="line"/>
      <point x="308" y="533" type="line"/>
    </contour>
  </outline>
</glyph>
<glyph name="AE" format="2">
  <advance width="969"/>
  <unicode hex="00C6"/>
  <outline>
    <contour>
      <point x="5" y="0" type="line"/>
      <point x="5" y="51" type="line"/>
      <point x="66" y="58" type="line"/>
      <point x="384" y="594" type="line"/>
      <point x="385" y="596"/>
      <point x="386" y="598"/>
      <point x="386" y="600" type="curve"/>
      <point x="386" y="608"/>
      <point x="377" y="614"/>
      <point x="370" y="615" type="curve"/>
      <point x="321" y="620" type="line"/>
      <point x="321" y="671" type="line"/>
      <point x="907" y="671" type="line"/>
      <point x="907" y="511" type="line"/>
      <point x="835" y="511" type="line"/>
      <point x="821" y="594" type="line"/>
      <point x="819" y="604"/>
      <point x="814" y="613"/>
      <point x="804" y="613" type="curve" smooth="yes"/>
      <point x="622" y="613" type="line"/>
      <point x="622" y="378" type="line"/>
      <point x="733" y="378" type="line" smooth="yes"/>
      <point x="742" y="378"/>
      <point x="750" y="389"/>
      <point x="751" y="396" type="curve" smooth="yes"/>
      <point x="760" y="464" type="line"/>
      <point x="822" y="464" type="line"/>
      <point x="822" y="229" type="line"/>
      <point x="760" y="229" type="line"/>
      <point x="751" y="298" type="line" smooth="yes"/>
      <point x="750" y="305"/>
      <point x="741" y="315"/>
      <point x="733" y="315" type="curve" smooth="yes"/>
      <point x="622" y="315" type="line"/>
      <point x="622" y="60" type="line"/>
      <point x="833" y="60" type="line" smooth="yes"/>
      <point x="841" y="60"/>
      <point x="849" y="72"/>
      <point x="850" y="79" type="curve" smooth="yes"/>
      <point x="866" y="183" type="line"/>
      <point x="939" y="183" type="line"/>
      <point x="939" y="0" type="line"/>
      <point x="401" y="0" type="line"/>
      <point x="401" y="51" type="line"/>
      <point x="453" y="55" type="line" smooth="yes"/>
      <point x="467" y="56"/>
      <point x="479" y="68"/>
      <point x="479" y="77" type="curve" smooth="yes"/>
      <point x="479" y="244" type="line"/>
      <point x="258" y="244" type="line"/>
      <point x="159" y="77" type="line"/>
      <point x="157" y="73"/>
      <point x="156" y="70"/>
      <point x="156" y="67" type="curve" smooth="yes"/>
      <point x="156" y="61"/>
      <point x="160" y="57"/>
      <point x="166" y="56" type="curve"/>
      <point x="223" y="51" type="line"/>
      <point x="223" y="0" type="line"/>
    </contour>
    <contour>
      <point x="295" y="306" type="line"/>
      <point x="479" y="306" type="line"/>
      <point x="479" y="614" type="line"/>
    </contour>
  </outline>
</glyph>
<glyph name="Eacute" format="2">
  <advance width="598"/>
  <unicode hex="00C9"/>
  <outline>
    <contour>
      <point x="26" y="0" type="line"/>
      <point x="26" y="51" type="line"/>
      <point x="81" y="56" type="line" smooth="yes"/>
      <point x="93" y="57"/>
      <point x="104" y="65"/>
      <point x="104" y="78" type="curve" smooth="yes"/>
      <point x="104" y="593" type="line" smooth="yes"/>
      <point x="104" y="606"/>
      <point x="93" y="614"/>
      <point x="81" y="615" type="curve" smooth="yes"/>
      <point x="26" y="620" type="line"/>
      <point x="26" y="671" type="line"/>
      <point x="536" y="671" type="line"/>
      <point x="536" y="511" type="line"/>
      <point x="464" y="511" type="line"/>
      <point x="448" y="594" type="line" smooth="yes"/>
      <point x="446" y="604"/>
      <point x="439" y="613"/>
      <point x="430" y="613" type="curve" smooth="yes"/>
      <point x="244" y="613" type="line"/>
      <point x="244" y="378" type="line"/>
      <point x="363" y="378" type="line" smooth="yes"/>
      <point x="372" y="378"/>
      <point x="379" y="389"/>
      <point x="380" y="396" type="curve" smooth="yes"/>
      <point x="389" y="464" type="line"/>
      <point x="451" y="464" type="line"/>
      <point x="451" y="229" type="line"/>
      <point x="389" y="229" type="line"/>
      <point x="380" y="297" type="line" smooth="yes"/>
      <point x="379" y="304"/>
      <point x="372" y="315"/>
      <point x="363" y="315" type="curve" smooth="yes"/>
      <point x="244" y="315" type="line"/>
      <point x="244" y="60" type="line"/>
      <point x="462" y="60" type="line" smooth="yes"/>
      <point x="470" y="60"/>
      <point x="479" y="72"/>
      <point x="480" y="79" type="curve" smooth="yes"/>
      <point x="495" y="183" type="line"/>
      <point x="568" y="183" type="line"/>
      <point x="568" y="0" type="line"/>
    </contour>
    <contour>
      <point x="246" y="747" type="line"/>
      <point x="383" y="898" type="line" smooth="yes"/>
      <point x="406" y="923"/>
      <point x="419" y="930"/>
      <point x="446" y="930" type="curve" smooth="yes"/>
      <point x="489" y="930"/>
      <point x="504" y="901"/>
      <point x="504" y="877" type="curve" smooth="yes"/>
      <point x="504" y="864"/>
      <point x="492" y="843"/>
      <point x="478" y="835" type="curve" smooth="yes"/>
      <point x="316" y="747" type="line"/>
    </contour>
  </outline>
</glyph>
<glyph name="Igrave" format="2">
  <advance width="358"/>
  <unicode hex="00CC"/>
  <outline>
    <contour>
      <point x="-43" y="877" type="curve" smooth="yes"/>
      <point x="-43" y="901"/>
      <point x="-29" y="930"/>
      <point x="14" y="930" type="curve" smooth="yes"/>
      <point x="41" y="930"/>
      <point x="54" y="923"/>
      <point x="77" y="898" type="curve" smooth="yes"/>
      <point x="214" y="747" type="line"/>
      <point x="144" y="747" type="line"/>
      <point x="-18" y="835" type="line" smooth="yes"/>
      <point x="-32" y="843"/>
      <point x="-43" y="864"/>
    </contour>
    <contour>
      <point x="23" y="0" type="line"/>
      <point x="23" y="51" type="line"/>
      <point x="85" y="56" type="line" smooth="yes"/>
      <point x="97" y="57"/>
      <point x="107" y="65"/>
      <point x="107" y="78" type="curve" smooth="yes"/>
      <point x="107" y="593" type="line" smooth="yes"/>
      <point x="107" y="606"/>
      <point x="97" y="614"/>
      <point x="85" y="615" type="curve" smooth="yes"/>
      <point x="23" y="620" type="line"/>
      <point x="23" y="671" type="line"/>
      <point x="335" y="671" type="line"/>
      <point x="335" y="620" type="line"/>
      <point x="273" y="615" type="line" smooth="yes"/>
      <point x="262" y="614"/>
      <point x="250" y="606"/>
      <point x="250" y="593" type="curve" smooth="yes"/>
      <point x="250" y="78" type="line" smooth="yes"/>
      <point x="250" y="65"/>
      <point x="262" y="57"/>
      <point x="273" y="56" type="curve" smooth="yes"/>
      <point x="335" y="51" type="line"/>
      <point x="335" y="0" type="line"/>
    </contour>
  </outline>
</glyph>
<glyph name="Ntilde" format="2">
  <advance width="744"/>
  <unicode hex="00D1"/>
  <outline>
    <contour>
      <point x="28" y="620" type="line"/>
      <point x="28" y="671" type="line"/>
      <point x="275" y="671" type="line"/>
      <point x="275" y="644" type="line"/>
      <point x="563" y="193" type="line"/>
      <point x="563" y="593" type="line" smooth="yes"/>
      <point x="563" y="606"/>
      <point x="552" y="614"/>
      <point x="540" y="615" type="curve" smooth="yes"/>
      <point x="483" y="620" type="line"/>
      <point x="483" y="671" type="line"/>
      <point x="715" y="671" type="line"/>
      <point x="715" y="620" type="line"/>
      <point x="661" y="615" type="line" smooth="yes"/>
      <point x="650" y="614"/>
      <point x="639" y="606"/>
      <point x="639" y="593" type="curve" smooth="yes"/>
      <point x="639" y="0" type="line"/>
      <point x="517" y="0" type="line"/>
      <point x="180" y="529" type="line"/>
      <point x="180" y="78" type="line" smooth="yes"/>
      <point x="180" y="65"/>
      <point x="191" y="57"/>
      <point x="202" y="56" type="curve" smooth="yes"/>
      <point x="258" y="51" type="line"/>
      <point x="258" y="0" type="line"/>
      <point x="27" y="0" type="line"/>
      <point x="27" y="51" type="line"/>
      <point x="82" y="56" type="line" smooth="yes"/>
      <point x="94" y="57"/>
      <point x="104" y="65"/>
      <point x="104" y="78" type="curve" smooth="yes"/>
      <point x="104" y="593" type="line" smooth="yes"/>
      <point x="104" y="606"/>
      <point x="94" y="614"/>
      <point x="82" y="615" type="curve" smooth="yes"/>
    </contour>
    <contour>
      <point x="196" y="747" type="line"/>
      <point x="213" y="816"/>
      <point x="249" y="871"/>
      <point x="316" y="871" type="curve" smooth="yes"/>
      <point x="342" y="871"/>
      <point x="360" y="860"/>
      <point x="379" y="848" type="curve"/>
      <point x="398" y="835"/>
      <point x="419" y="824"/>
      <point x="449" y="824" type="curve" smooth="yes"/>
      <point x="470" y="824"/>
      <point x="490" y="845"/>
      <point x="493" y="871" type="curve"/>
      <point x="547" y="871" type="line"/>
      <point x="530" y="802"/>
      <point x="494" y="747"/>
      <point x="426" y="747" type="curve" smooth="yes"/>
      <point x="401" y="747"/>
      <point x="382" y="758"/>
      <point x="364" y="770" type="curve" smooth="yes"/>
      <point x="344" y="783"/>
      <point x="324" y="795"/>
      <point x="294" y="795" type="curve" smooth="yes"/>
      <point x="272" y="795"/>
      <point x="253" y="774"/>
      <point x="250" y="747" type="curve"/>
    </contour>
  </outline>
</glyph>
<glyph name="Oacute" format="2">
  <advance width="755"/>
  <unicode hex="00D3"/>
  <outline>
    <contour>
      <point x="37" y="340" type="curve" smooth="yes"/>
      <point x="37" y="537"/>
      <point x="162" y="687"/>
      <point x="375" y="687" type="curve" smooth="yes"/>
      <point x="583" y="687"/>
      <point x="720" y="526"/>
      <point x="720" y="332" type="curve" smooth="yes"/>
      <point x="720" y="141"/>
      <point x="585" y="-16"/>
      <point x="384" y="-16" type="curve" smooth="yes"/>
      <point x="184" y="-16"/>
      <point x="37" y="113"/>
    </contour>
    <contour>
      <point x="197" y="337" type="curve" smooth="yes"/>
      <point x="197" y="195"/>
      <point x="251" y="47"/>
      <point x="374" y="47" type="curve" smooth="yes"/>
      <point x="508" y="47"/>
      <point x="559" y="199"/>
      <point x="559" y="328" type="curve" smooth="yes"/>
      <point x="559" y="485"/>
      <point x="500" y="620"/>
      <point x="384" y="620" type="curve" smooth="yes"/>
      <point x="245" y="620"/>
      <point x="197" y="471"/>
    </contour>
    <contour>
      <point x="340" y="747" type="line"/>
      <point x="477" y="898" type="line" smooth="yes"/>
      <point x="500" y="923"/>
      <point x="513" y="930"/>
      <point x="540" y="930" type="curve" smooth="yes"/>
      <point x="583" y="930"/>
      <point x="598" y="901"/>
      <point x="598" y="877" type="curve" smooth="yes"/>
      <point x="598" y="864"/>
      <point x="586" y="843"/>
      <point x="572" y="835" type="curve" smooth="yes"/>
      <point x="410" y="747" type="line"/>
    </contour>
  </outline>
</glyph>
<glyph name="multiply" format="2">
  <advance width="1000"/>
  <unicode hex="00D7"/>
  <outline>
    <contour>
      <point x="230" y="69" type="line"/>
      <point x="460" y="300" type="line"/>
      <point x="230" y="531" type="line"/>
      <point x="269" y="570" type="line"/>
      <point x="500" y="338" type="line"/>
      <point x="731" y="570" type="line"/>
      <point x="770" y="531" type="line"/>
      <point x="540" y="300" type="line"/>
      <point x="770" y="69" type="line"/>
      <point x="731" y="30" type="line"/>
      <point x="500" y="262" type="line"/>
      <point x="269" y="30" type="line"/>
    </contour>
  </outline>
</glyph>
<glyph name="Ugrave" format="2">
  <advance width="729"/>
  <unicode hex="00D9"/>
  <outline>
    <contour>
      <point x="22" y="620" type="line"/>
      <point x="22" y="671" type="line"/>
      <point x="318" y="671" type="line"/>
      <point x="318" y="620" type="line"/>
      <point x="264" y="615" type="line" smooth="yes"/>
      <point x="253" y="614"/>
      <point x="242" y="606"/>
      <point x="242" y="593" type="curve" smooth="yes"/>
      <point x="242" y="246" type="line" smooth="yes"/>
      <point x="242" y="121"/>
      <point x="294" y="67"/>
      <point x="404" y="67" type="curve" smooth="yes"/>
      <point x="509" y="67"/>
      <point x="552" y="138"/>
      <point x="552" y="246" type="curve" smooth="yes"/>
      <point x="552" y="593" type="line" smooth="yes"/>
      <point x="552" y="606"/>
      <point x="542" y="614"/>
      <point x="530" y="615" type="curve" smooth="yes"/>
      <point x="473" y="620" type="line"/>
      <point x="473" y="671" type="line"/>
      <point x="703" y="671" type="line"/>
      <point x="703" y="620" type="line"/>
      <point x="650" y="615" type="line" smooth="yes"/>
      <point x="639" y="614"/>
      <point x="628" y="606"/>
      <point x="628" y="593" type="curve" smooth="yes"/>
      <point x="628" y="254" type="line" smooth="yes"/>
      <point x="628" y="57"/>
      <point x="541" y="-16"/>
      <point x="354" y="-16" type="curve" smooth="yes"/>
      <point x="182" y="-16"/>
      <point x="99" y="78"/>
      <point x="99" y="254" type="curve" smooth="yes"/>
      <point x="99" y="593" type="line" smooth="yes"/>
      <point x="99" y="606"/>
      <point x="88" y="614"/>
      <point x="76" y="615" type="curve" smooth="yes"/>
    </contour>
    <contour>
      <point x="140" y="877" type="curve" smooth="yes"/>
      <point x="140" y="901"/>
      <point x="155" y="930"/>
      <point x="198" y="930" type="curve" smooth="yes"/>
      <point x="225" y="930"/>
      <point x="237" y="923"/>
      <point x="260" y="898" type="curve" smooth="yes"/>
      <point x="398" y="747" type="line"/>
      <point x="328" y="747" type="line"/>
      <point x="166" y="835" type="line" smooth="yes"/>
      <point x="152" y="843"/>
      <point x="140" y="864"/>
    </contour>
  </outline>
</glyph>
<glyph name="Uacute" format="2">
  <advance width="729"/>
  <unicode hex="00DA"/>
  <outline>
    <contour>
      <point x="22" y="620" type="line"/>
      <point x="22" y="671" type="line"/>
      <point x="318" y="671" type="line"/>
      <point x="318" y="620" type="line"/>
      <point x="264" y="615" type="line" smooth="yes"/>
      <point x="253" y="614"/>
      <point x="242" y="606"/>
      <point x="242" y="593" type="curve" smooth="yes"/>
      <point x="242" y="246" type="line" smooth="yes"/>
      <point x="242" y="121"/>
      <point x="294" y="67"/>
      <point x="404" y="67" type="curve" smooth="yes"/>
      <point x="509" y="67"/>
      <point x="552" y="138"/>
      <point x="552" y="246" type="curve" smooth="yes"/>
      <point x="552" y="593" type="line" smooth="yes"/>
      <point x="552" y="606"/>
      <point x="542" y="614"/>
      <point x="530" y="615" type="curve" smooth="yes"/>
      <point x="473" y="620" type="line"/>
      <point x="473" y="671" type="line"/>
      <point x="703" y="671" type="line"/>
      <point x="703" y="620" type="line"/>
      <point x="650" y="615" type="line" smooth="yes"/>
      <point x="639" y="614"/>
      <point x="628" y="606"/>
      <point x="628" y="593" type="curve" smooth="yes"/>
      <point x="628" y="254" type="line" smooth="yes"/>
      <point x="628" y="57"/>
      <point x="541" y="-16"/>
      <point x="354" y="-16" type="curve" smooth="yes"/>
      <point x="182" y="-16"/>
      <point x="99" y="78"/>
      <point x="99" y="254" type="curve" smooth="yes"/>
      <point x="99" y="593" type="line" smooth="yes"/>
      <point x="99" y="606"/>
      <point x="88" y="614"/>
      <point x="76" y="615" type="curve" smooth="yes"/>
    </contour>
    <contour>
      <point x="328" y="747" type="line"/>
      <point x="464" y="898" type="line" smooth="yes"/>
      <point x="487" y="923"/>
      <point x="501" y="930"/>
      <point x="528" y="930" type="curve" smooth="yes"/>
      <point x="571" y="930"/>
      <point x="586" y="901"/>
      <point x="586" y="877" type="curve" smooth="yes"/>
      <point x="586" y="864"/>
      <point x="574" y="843"/>
      <point x="560" y="835" type="curve" smooth="yes"/>
      <point x="398" y="747" type="line"/>
    </contour>
  </outline>
</glyph>
<glyph name="Thorn" format="2">
  <advance width="613"/>
  <unicode hex="00DE"/>
  <outline>
    <contour>
      <point x="26" y="0" type="line"/>
      <point x="26" y="51" type="line"/>
      <point x="82" y="54" type="line"/>
      <point x="94" y="55"/>
      <point x="104" y="64"/>
      <point x="104" y="76" type="curve" smooth="yes"/>
      <point x="104" y="595" type="line" smooth="yes"/>
      <point x="104" y="608"/>
      <point x="94" y="617"/>
      <point x="82" y="617" type="curve"/>
      <point x="26" y="620" type="line"/>
      <point x="26" y="671" type="line"/>
      <point x="329" y="671" type="line"/>
      <point x="329" y="620" type="line"/>
      <point x="269" y="617" type="line"/>
      <point x="257" y="617"/>
      <point x="247" y="608"/>
      <point x="247" y="595" type="curve" smooth="yes"/>
      <point x="247" y="548" type="line"/>
      <point x="348" y="548" type="line"/>
      <point x="469" y="546"/>
      <point x="577" y="496"/>
      <point x="577" y="347" type="curve" smooth="yes"/>
      <point x="577" y="207"/>
      <point x="484" y="126"/>
      <point x="312" y="126" type="curve" smooth="yes"/>
      <point x="287" y="126"/>
      <point x="247" y="129"/>
      <point x="247" y="129" type="curve"/>
      <point x="247" y="76" type="line" smooth="yes"/>
      <point x="247" y="64"/>
      <point x="257" y="55"/>
      <point x="269" y="54" type="curve"/>
      <point x="329" y="51" type="line"/>
      <point x="329" y="0" type="line"/>
    </contour>
    <contour>
      <point x="247" y="188" type="line"/>
      <point x="247" y="188"/>
      <point x="263" y="187"/>
      <point x="276" y="187" type="curve" smooth="yes"/>
      <point x="376" y="187"/>
      <point x="428" y="235"/>
      <point x="428" y="343" type="curve" smooth="yes"/>
      <point x="428" y="443"/>
      <point x="373" y="491"/>
      <point x="299" y="491" type="curve" smooth="yes"/>
      <point x="282" y="491"/>
      <point x="264" y="489"/>
      <point x="247" y="487" type="curve"/>
    </contour>
  </outline>
</glyph>
<glyph name="ccedilla" format="2">
  <advance width="501"/>
  <unicode hex="00E7"/>
  <outline>
    <contour>
      <point x="32" y="234" type="curve" smooth="yes"/>
      <point x="32" y="392"/>
      <point x="147" y="500"/>
      <point x="290" y="500" type="curve" smooth="yes"/>
      <point x="395" y="500"/>
      <point x="463" y="454"/>
      <point x="463" y="390" type="curve" smooth="yes"/>
      <point x="463" y="345"/>
      <point x="428" y="315"/>
      <point x="392" y="315" type="curve" smooth="yes"/>
      <point x="350" y="315"/>
      <point x="335" y="327"/>
      <point x="325" y="336" type="curve"/>
      <point x="325" y="445" type="line"/>
      <point x="322" y="447"/>
      <point x="313" y="449"/>
      <point x="306" y="449" type="curve" smooth="yes"/>
      <point x="245" y="449"/>
      <point x="179" y="387"/>
      <point x="179" y="263" type="curve" smooth="yes"/>
      <point x="179" y="146"/>
      <point x="237" y="72"/>
      <point x="331" y="72" type="curve" smooth="yes"/>
      <point x="392" y="72"/>
      <point x="458" y="111"/>
      <point x="471" y="121" type="curve"/>
      <point x="471" y="44" type="line"/>
      <point x="437" y="24"/>
      <point x="375" y="-12"/>
      <point x="274" y="-12" type="curve" smooth="yes"/>
      <point x="118" y="-12"/>
      <point x="32" y="103"/>
    </contour>
    <contour>
      <point x="193" y="-248" type="curve"/>
      <point x="193" y="-198" type="line"/>
      <point x="193" y="-198"/>
      <point x="232" y="-206"/>
      <point x="256" y="-206" type="curve" smooth="yes"/>
      <point x="282" y="-206"/>
      <point x="315" y="-200"/>
      <point x="315" y="-172" type="curve" smooth="yes"/>
      <point x="315" y="-148"/>
      <point x="294" y="-138"/>
      <point x="271" y="-138" type="curve" smooth="yes"/>
      <point x="264" y="-138"/>
      <point x="249" y="-140"/>
      <point x="249" y="-140" type="curve"/>
      <point x="249" y="-3" type="line"/>
      <point x="299" y="-3" type="line"/>
      <point x="299" y="-85" type="line"/>
      <point x="302" y="-84"/>
      <point x="307" y="-83"/>
      <point x="313" y="-83" type="curve" smooth="yes"/>
      <point x="359" y="-83"/>
      <point x="397" y="-106"/>
      <point x="397" y="-159" type="curve" smooth="yes"/>
      <point x="397" y="-224"/>
      <point x="345" y="-259"/>
      <point x="274" y="-259" type="curve" smooth="yes"/>
      <point x="233" y="-259"/>
      <point x="193" y="-248"/>
    </contour>
  </outline>
</glyph>
<glyph name="igrave" format="2">
  <advance width="333"/>
  <unicode hex="00EC"/>
  <outline>
    <contour>
      <point x="14" y="690" type="curve" smooth="yes"/>
      <point x="14" y="714"/>
      <point x="28" y="743"/>
      <point x="71" y="743" type="curve" smooth="yes"/>
      <point x="98" y="743"/>
      <point x="111" y="736"/>
      <point x="134" y="711" type="curve" smooth="yes"/>
      <point x="271" y="560" type="line"/>
      <point x="201" y="560" type="line"/>
      <point x="39" y="648" type="line" smooth="yes"/>
      <point x="25" y="656"/>
      <point x="14" y="677"/>
    </contour>
    <contour>
      <point x="32" y="0" type="line"/>
      <point x="32" y="47" type="line"/>
      <point x="78" y="50" type="line" smooth="yes"/>
      <point x="90" y="51"/>
      <point x="100" y="61"/>
      <point x="100" y="73" type="curve" smooth="yes"/>
      <point x="100" y="409" type="line"/>
      <point x="36" y="409" type="line"/>
      <point x="36" y="450" type="line"/>
      <point x="182" y="500" type="line"/>
      <point x="233" y="500" type="line"/>
      <point x="233" y="73" type="line" smooth="yes"/>
      <point x="233" y="61"/>
      <point x="244" y="51"/>
      <point x="256" y="50" type="curve" smooth="yes"/>
      <point x="304" y="47" type="line"/>
      <point x="304" y="0" type="line"/>
    </contour>
  </outline>
</glyph>
<glyph name="iacute" format="2">
  <advance width="333"/>
  <unicode hex="00ED"/>
  <outline>
    <contour>
      <point x="32" y="0" type="line"/>
      <point x="32" y="47" type="line"/>
      <point x="78" y="50" type="line" smooth="yes"/>
      <point x="90" y="51"/>
      <point x="100" y="61"/>
      <point x="100" y="73" type="curve" smooth="yes"/>
      <point x="100" y="409" type="line"/>
      <point x="36" y="409" type="line"/>
      <point x="36" y="450" type="line"/>
      <point x="182" y="500" type="line"/>
      <point x="233" y="500" type="line"/>
      <point x="233" y="73" type="line" smooth="yes"/>
      <point x="233" y="61"/>
      <point x="244" y="51"/>
      <point x="256" y="50" type="curve" smooth="yes"/>
      <point x="304" y="47" type="line"/>
      <point x="304" y="0" type="line"/>
    </contour>
    <contour>
      <point x="51" y="560" type="line"/>
      <point x="188" y="711" type="line" smooth="yes"/>
      <point x="211" y="736"/>
      <point x="224" y="743"/>
      <point x="251" y="743" type="curve" smooth="yes"/>
      <point x="294" y="743"/>
      <point x="309" y="714"/>
      <point x="309" y="690" type="curve" smooth="yes"/>
      <point x="309" y="677"/>
      <point x="297" y="656"/>
      <point x="283" y="648" type="curve" smooth="yes"/>
      <point x="121" y="560" type="line"/>
    </contour>
  </outline>
</glyph>
<glyph name="idieresis" format="2">
  <advance width="333"/>
  <unicode hex="00EF"/>
  <outline>
    <contour>
      <point x="-7.5" y="629" type="curve" smooth="yes"/>
      <point x="-7.5" y="667"/>
      <point x="23.5" y="698"/>
      <point x="61.5" y="698" type="curve" smooth="yes"/>
      <point x="99.5" y="698"/>
      <point x="130.5" y="667"/>
      <point x="130.5" y="629" type="curve" smooth="yes"/>
      <point x="130.5" y="591"/>
      <point x="99.5" y="560"/>
      <point x="61.5" y="560" type="curve" smooth="yes"/>
      <point x="23.5" y="560"/>
      <point x="-7.5" y="591"/>
    </contour>
    <contour>
      <point x="202.5" y="629" type="curve" smooth="yes"/>
      <point x="202.5" y="667"/>
      <point x="233.5" y="698"/>
      <point x="271.5" y="698" type="curve" smooth="yes"/>
      <point x="309.5" y="698"/>
      <point x="340.5" y="667"/>
      <point x="340.5" y="629" type="curve" smooth="yes"/>
      <point x="340.5" y="591"/>
      <point x="309.5" y="560"/>
      <point x="271.5" y="560" type="curve" smooth="yes"/>
      <point x="233.5" y="560"/>
      <point x="202.5" y="591"/>
    </contour>
    <contour>
      <point x="32" y="0" type="line"/>
      <point x="32" y="47" type="line"/>
      <point x="78" y="50" type="line" smooth="yes"/>
      <point x="90" y="51"/>
      <point x="100" y="61"/>
      <point x="100" y="73" type="curve" smooth="yes"/>
      <point x="100" y="409" type="line"/>
      <point x="36" y="409" type="line"/>
      <point x="36" y="450" type="line"/>
      <point x="182" y="500" type="line"/>
      <point x="233" y="500" type="line"/>
      <point x="233" y="73" type="line" smooth="yes"/>
      <point x="233" y="61"/>
      <point x="244" y="51"/>
      <point x="256" y="50" type="curve" smooth="yes"/>
      <point x="304" y="47" type="line"/>
      <point x="304" y="0" type="line"/>
    </contour>
  </outline>
</glyph>
<glyph name="divide" format="2">
  <advance width="1000"/>
  <unicode hex="00F7"/>
  <outline>
    <contour>
      <point x="200" y="269" type="line"/>
      <point x="200" y="331" type="line"/>
      <point x="800" y="331" type="line"/>
      <point x="800" y="269" type="line"/>
    </contour>
    <contour>
      <point x="440" y="139" type="curve" smooth="yes"/>
      <point x="440" y="173"/>
      <point x="467" y="199"/>
      <point x="500" y="199" type="curve" smooth="yes"/>
      <point x="533" y="199"/>
      <point x="560" y="173"/>
      <point x="560" y="139" type="curve" smooth="yes"/>
      <point x="560" y="106"/>
      <point x="533" y="80"/>
      <point x="500" y="80" type="curve" smooth="yes"/>
      <point x="467" y="80"/>
      <point x="440" y="106"/>
    </contour>
    <contour>
      <point x="440" y="461" type="curve" smooth="yes"/>
      <point x="440" y="494"/>
      <point x="467" y="521"/>
      <point x="500" y="521" type="curve" smooth="yes"/>
      <point x="533" y="521"/>
      <point x="560" y="494"/>
      <point x="560" y="461" type="curve" smooth="yes"/>
      <point x="560" y="427"/>
      <point x="533" y="401"/>
      <point x="500" y="401" type="curve" smooth="yes"/>
      <point x="467" y="401"/>
      <point x="440" y="427"/>
    </contour>
  </outline>
</glyph>
<glyph name="ugrave" format="2">
  <advance width="620"/>
  <unicode hex="00F9"/>
  <outline>
    <contour>
      <point x="25" y="396" type="line"/>
      <point x="25" y="437" type="line"/>
      <point x="172" y="488" type="line"/>
      <point x="224" y="488" type="line"/>
      <point x="224" y="190" type="line" smooth="yes"/>
      <point x="224" y="141"/>
      <point x="231" y="79"/>
      <point x="316" y="79" type="curve" smooth="yes"/>
      <point x="358" y="79"/>
      <point x="396" y="96"/>
      <point x="396" y="96" type="curve"/>
      <point x="396" y="396" type="line"/>
      <point x="333" y="396" type="line"/>
      <point x="333" y="437" type="line"/>
      <point x="479" y="488" type="line"/>
      <point x="530" y="488" type="line"/>
      <point x="530" y="73" type="line" smooth="yes"/>
      <point x="530" y="61"/>
      <point x="541" y="51"/>
      <point x="553" y="50" type="curve" smooth="yes"/>
      <point x="597" y="47" type="line"/>
      <point x="597" y="0" type="line"/>
      <point x="396" y="0" type="line"/>
      <point x="396" y="55" type="line"/>
      <point x="396" y="55"/>
      <point x="311" y="-12"/>
      <point x="238" y="-12" type="curve" smooth="yes"/>
      <point x="124" y="-12"/>
      <point x="90" y="49"/>
      <point x="90" y="151" type="curve" smooth="yes"/>
      <point x="90" y="396" type="line"/>
    </contour>
    <contour>
      <point x="129" y="690" type="curve" smooth="yes"/>
      <point x="129" y="714"/>
      <point x="143" y="743"/>
      <point x="186" y="743" type="curve" smooth="yes"/>
      <point x="213" y="743"/>
      <point x="226" y="736"/>
      <point x="249" y="711" type="curve" smooth="yes"/>
      <point x="386" y="560" type="line"/>
      <point x="316" y="560" type="line"/>
      <point x="154" y="648" type="line" smooth="yes"/>
      <point x="140" y="656"/>
      <point x="129" y="677"/>
    </contour>
  </outline>
</glyph>
<glyph name="udieresis" format="2">
  <advance width="620"/>
  <unicode hex="00FC"/>
  <outline>
    <contour>
      <point x="25" y="396" type="line"/>
      <point x="25" y="437" type="line"/>
      <point x="172" y="488" type="line"/>
      <point x="224" y="488" type="line"/>
      <point x="224" y="190" type="line" smooth="yes"/>
      <point x="224" y="141"/>
      <point x="231" y="79"/>
      <point x="316" y="79" type="curve" smooth="yes"/>
      <point x="358" y="79"/>
      <point x="396" y="96"/>
      <point x="396" y="96" type="curve"/>
      <point x="396" y="396" type="line"/>
      <point x="333" y="396" type="line"/>
      <point x="333" y="437" type="line"/>
      <point x="479" y="488" type="line"/>
      <point x="530" y="488" type="line"/>
      <point x="530" y="73" type="line" smooth="yes"/>
      <point x="530" y="61"/>
      <point x="541" y="51"/>
      <point x="553" y="50" type="curve" smooth="yes"/>
      <point x="597" y="47" type="line"/>
      <point x="597" y="0" type="line"/>
      <point x="396" y="0" type="line"/>
      <point x="396" y="55" type="line"/>
      <point x="396" y="55"/>
      <point x="311" y="-12"/>
      <point x="238" y="-12" type="curve" smooth="yes"/>
      <point x="124" y="-12"/>
      <point x="90" y="49"/>
      <point x="90" y="151" type="curve" smooth="yes"/>
      <point x="90" y="396" type="line"/>
    </contour>
    <contour>
      <point x="127" y="629" type="curve" smooth="yes"/>
      <point x="127" y="667"/>
      <point x="158" y="698"/>
      <point x="196" y="698" type="curve" smooth="yes"/>
      <point x="234" y="698"/>
      <point x="265" y="667"/>
      <point x="265" y="629" type="curve" smooth="yes"/>
      <point x="265" y="591"/>
      <point x="234" y="560"/>
      <point x="196" y="560" type="curve" smooth="yes"/>
      <point x="158" y="560"/>
      <point x="127" y="591"/>
    </contour>
    <contour>
      <point x="337" y="629" type="curve" smooth="yes"/>
      <point x="337" y="667"/>
      <point x="368" y="698"/>
      <point x="406" y="698" type="curve" smooth="yes"/>
      <point x="444" y="698"/>
      <point x="475" y="667"/>
      <point x="475" y="629" type="curve" smooth="yes"/>
      <point x="475" y="591"/>
      <point x="444" y="560"/>
      <point x="406" y="560" type="curve" smooth="yes"/>
      <point x="368" y="560"/>
      <point x="337" y="591"/>
    </contour>
  </outline>
</glyph>
<glyph name="ccaron" format="2">
  <advance width="501"/>
  <unicode hex="010D"/>
  <outline>
    <contour>
      <point x="32" y="234" type="curve" smooth="yes"/>
      <point x="32" y="392"/>
      <point x="147" y="500"/>
      <point x="290" y="500" type="curve" smooth="yes"/>
      <point x="395" y="500"/>
      <point x="463" y="454"/>
      <point x="463" y="390" type="curve" smooth="yes"/>
      <point x="463" y="345"/>
      <point x="428" y="315"/>
      <point x="392" y="315" type="curve" smooth="yes"/>
      <point x="350" y="315"/>
      <point x="335" y="327"/>
      <point x="325" y="336" type="curve"/>
      <point x="325" y="445" type="line"/>
      <point x="322" y="447"/>
      <point x="313" y="449"/>
      <point x="306" y="449" type="curve" smooth="yes"/>
      <point x="245" y="449"/>
      <point x="179" y="387"/>
      <point x="179" y="263" type="curve" smooth="yes"/>
      <point x="179" y="146"/>
      <point x="237" y="72"/>
      <point x="331" y="72" type="curve" smooth="yes"/>
      <point x="392" y="72"/>
      <point x="458" y="111"/>
      <point x="471" y="121" type="curve"/>
      <point x="471" y="44" type="line"/>
      <point x="437" y="24"/>
      <point x="375" y="-12"/>
      <point x="274" y="-12" type="curve" smooth="yes"/>
      <point x="118" y="-12"/>
      <point x="32" y="103"/>
    </contour>
    <contour>
      <point x="120" y="731" type="line"/>
      <point x="203" y="731" type="line"/>
      <point x="290" y="637" type="line"/>
      <point x="377" y="731" type="line"/>
      <point x="460" y="731" type="line"/>
      <point x="349" y="560" type="line"/>
      <point x="231" y="560" type="line"/>
    </contour>
  </outline>
</glyph>
<glyph name="dcaron" format="2">
  <advance width="784"/>
  <unicode hex="010F"/>
  <outline>
    <contour>
      <point x="32" y="233" type="curve" smooth="yes"/>
      <point x="32" y="405"/>
      <point x="142" y="500"/>
      <point x="293" y="500" type="curve" smooth="yes"/>
      <point x="323" y="500"/>
      <point x="365" y="495"/>
      <point x="386" y="488" type="curve"/>
      <point x="386" y="649" type="line"/>
      <point x="312" y="649" type="line"/>
      <point x="312" y="690" type="line"/>
      <point x="468" y="740" type="line"/>
      <point x="519" y="740" type="line"/>
      <point x="519" y="73" type="line" smooth="yes"/>
      <point x="519" y="61"/>
      <point x="529" y="51"/>
      <point x="541" y="50" type="curve" smooth="yes"/>
      <point x="583" y="47" type="line"/>
      <point x="583" y="0" type="line"/>
      <point x="386" y="0" type="line"/>
      <point x="386" y="58" type="line"/>
      <point x="346" y="20"/>
      <point x="273" y="-12"/>
      <point x="228" y="-12" type="curve" smooth="yes"/>
      <point x="106" y="-12"/>
      <point x="32" y="92"/>
    </contour>
    <contour>
      <point x="178" y="256" type="curve" smooth="yes"/>
      <point x="178" y="151"/>
      <point x="221" y="80"/>
      <point x="308" y="80" type="curve" smooth="yes"/>
      <point x="338" y="80"/>
      <point x="366" y="87"/>
      <point x="386" y="99" type="curve"/>
      <point x="386" y="422" type="line"/>
      <point x="372" y="432"/>
      <point x="341" y="440"/>
      <point x="315" y="440" type="curve" smooth="yes"/>
      <point x="222" y="440"/>
      <point x="178" y="359"/>
    </contour>
    <contour>
      <point x="573" y="466" type="line"/>
      <point x="650" y="509"/>
      <point x="668" y="553"/>
      <point x="668" y="602" type="curve" smooth="yes"/>
      <point x="668" y="612" type="line"/>
      <point x="609" y="612" type="line"/>
      <point x="604" y="618"/>
      <point x="589" y="636"/>
      <point x="589" y="667" type="curve" smooth="yes"/>
      <point x="589" y="709"/>
      <point x="612" y="740"/>
      <point x="662" y="740" type="curve" smooth="yes"/>
      <point x="715" y="740"/>
      <point x="752" y="695"/>
      <point x="752" y="636" type="curve" smooth="yes"/>
      <point x="752" y="488"/>
      <point x="637" y="439"/>
      <point x="588" y="428" type="curve"/>
    </contour>
  </outline>
</glyph>
<glyph name="Ebreve" format="2">
  <advance width="598"/>
  <unicode hex="0114"/>
  <outline>
    <contour>
      <point x="26" y="0" type="line"/>
      <point x="26" y="51" type="line"/>
      <point x="81" y="56" type="line" smooth="yes"/>
      <point x="93" y="57"/>
      <point x="104" y="65"/>
      <point x="104" y="78" type="curve" smooth="yes"/>
      <point x="104" y="593" type="line" smooth="yes"/>
      <point x="104" y="606"/>
      <point x="93" y="614"/>
      <point x="81" y="615" type="curve" smooth="yes"/>
      <point x="26" y="620" type="line"/>
      <point x="26" y="671" type="line"/>
      <point x="536" y="671" type="line"/>
      <point x="536" y="511" type="line"/>
      <point x="464" y="511" type="line"/>
      <point x="448" y="594" type="line" smooth="yes"/>
      <point x="446" y="604"/>
      <point x="439" y="613"/>
      <point x="430" y="613" type="curve" smooth="yes"/>
      <point x="244" y="613" type="line"/>
      <point x="244" y="378" type="line"/>
      <point x="363" y="378" type="line" smooth="yes"/>
      <point x="372" y="378"/>
      <point x="379" y="389"/>
      <point x="380" y="396" type="curve" smooth="yes"/>
      <point x="389" y="464" type="line"/>
      <point x="451" y="464" type="line"/>
      <point x="451" y="229" type="line"/>
      <point x="389" y="229" type="line"/>
      <point x="380" y="297" type="line" smooth="yes"/>
      <point x="379" y="304"/>
      <point x="372" y="315"/>
      <point x="363" y="315" type="curve" smooth="yes"/>
      <point x="244" y="315" type="line"/>
      <point x="244" y="60" type="line"/>
      <point x="462" y="60" type="line" smooth="yes"/>
      <point x="470" y="60"/>
      <point x="479" y="72"/>
      <point x="480" y="79" type="curve" smooth="yes"/>
      <point x="495" y="183" type="line"/>
      <point x="568" y="183" type="line"/>
      <point x="568" y="0" type="line"/>
    </contour>
    <contour>
      <point x="124" y="910" type="curve"/>
      <point x="176" y="910" type="line"/>
      <point x="187" y="859"/>
      <point x="226" y="828"/>
      <point x="280" y="828" type="curve" smooth="yes"/>
      <point x="334" y="828"/>
      <point x="373" y="858"/>
      <point x="384" y="910" type="curve"/>
      <point x="438" y="910" type="line"/>
      <point x="438" y="810"/>
      <point x="376" y="747"/>
      <point x="280" y="747" type="curve" smooth="yes"/>
      <point x="184" y="747"/>
      <point x="124" y="810"/>
    </contour>
  </outline>
</glyph>
<glyph name="eogonek" format="2">
  <advance width="528"/>
  <unicode hex="0119"/>
  <outline>
    <contour>
      <point x="174" y="-130" type="curve" smooth="yes"/>
      <point x="174" y="-88"/>
      <point x="206" y="-40"/>
      <point x="256" y="-5" type="curve"/>
      <point x="318" y="-5" type="line"/>
      <point x="276" y="-37"/>
      <point x="256" y="-69"/>
      <point x="256" y="-104" type="curve" smooth="yes"/>
      <point x="256" y="-136"/>
      <point x="276" y="-156"/>
      <point x="306" y="-156" type="curve" smooth="yes"/>
      <point x="322" y="-156"/>
      <point x="342" y="-147"/>
      <point x="352" y="-137" type="curve"/>
      <point x="380" y="-183" type="line"/>
      <point x="352" y="-204"/>
      <point x="323" y="-214"/>
      <point x="286" y="-214" type="curve" smooth="yes"/>
      <point x="219" y="-214"/>
      <point x="174" y="-180"/>
    </contour>
    <contour>
      <point x="32" y="238" type="curve" smooth="yes"/>
      <point x="32" y="389"/>
      <point x="132" y="500"/>
      <point x="284" y="500" type="curve" smooth="yes"/>
      <point x="441" y="500"/>
      <point x="498" y="388"/>
      <point x="498" y="272" type="curve" smooth="yes"/>
      <point x="498" y="248" type="line"/>
      <point x="170" y="248" type="line"/>
      <point x="170" y="139"/>
      <point x="226" y="71"/>
      <point x="324" y="71" type="curve" smooth="yes"/>
      <point x="425" y="71"/>
      <point x="498" y="127"/>
      <point x="498" y="127" type="curve"/>
      <point x="498" y="47" type="line"/>
      <point x="498" y="47"/>
      <point x="414" y="-12"/>
      <point x="287" y="-12" type="curve" smooth="yes"/>
      <point x="117" y="-12"/>
      <point x="32" y="99"/>
    </contour>
    <contour>
      <point x="175" y="304" type="curve"/>
      <point x="355" y="304" type="line"/>
      <point x="355" y="326" type="line" smooth="yes"/>
      <point x="355" y="390"/>
      <point x="332" y="441"/>
      <point x="273" y="441" type="curve" smooth="yes"/>
      <point x="199" y="441"/>
      <point x="175" y="367"/>
    </contour>
  </outline>
</glyph>
<glyph name="Gcommaaccent" format="2">
  <advance width="715"/>
  <unicode hex="0122"/>
  <outline>
    <contour>
      <point x="37" y="337" type="curve" smooth="yes"/>
      <point x="37" y="546"/>
      <point x="181" y="687"/>
      <point x="395" y="687" type="curve" smooth="yes"/>
      <point x="526" y="687"/>
      <point x="620" y="648"/>
      <point x="620" y="648" type="curve"/>
      <point x="620" y="475" type="line"/>
      <point x="542" y="475" type="line"/>
      <point x="522" y="583" type="line"/>
      <point x="521" y="590"/>
      <point x="512" y="600"/>
      <point x="503" y="604" type="curve"/>
      <point x="497" y="607" type="line"/>
      <point x="482" y="614"/>
      <point x="450" y="621"/>
      <point x="432" y="621" type="curve" smooth="yes"/>
      <point x="284" y="621"/>
      <point x="192" y="513"/>
      <point x="192" y="341" type="curve" smooth="yes"/>
      <point x="192" y="164"/>
      <point x="283" y="59"/>
      <point x="436" y="59" type="curve" smooth="yes"/>
      <point x="451" y="59"/>
      <point x="473" y="61"/>
      <point x="481" y="63" type="curve"/>
      <point x="481" y="254" type="line" smooth="yes"/>
      <point x="481" y="266"/>
      <point x="471" y="275"/>
      <point x="458" y="276" type="curve" smooth="yes"/>
      <point x="391" y="281" type="line"/>
      <point x="391" y="332" type="line"/>
      <point x="693" y="332" type="line"/>
      <point x="693" y="281" type="line"/>
      <point x="642" y="276" type="line"/>
      <point x="628" y="275"/>
      <point x="619" y="266"/>
      <point x="619" y="254" type="curve" smooth="yes"/>
      <point x="619" y="31" type="line"/>
      <point x="619" y="31"/>
      <point x="521" y="-16"/>
      <point x="387" y="-16" type="curve" smooth="yes"/>
      <point x="181" y="-16"/>
      <point x="37" y="130"/>
    </contour>
    <contour>
      <point x="310" y="-134" type="curve" smooth="yes"/>
      <point x="310" y="-95"/>
      <point x="343" y="-76"/>
      <point x="378" y="-76" type="curve" smooth="yes"/>
      <point x="429" y="-76"/>
      <point x="464" y="-114"/>
      <point x="464" y="-161" type="curve" smooth="yes"/>
      <point x="464" y="-229"/>
      <point x="400" y="-277"/>
      <point x="323" y="-292" type="curve"/>
      <point x="323" y="-252" type="line"/>
      <point x="362" y="-241"/>
      <point x="393" y="-210"/>
      <point x="393" y="-178" type="curve"/>
      <point x="330" y="-178" type="line"/>
      <point x="317" y="-166"/>
      <point x="310" y="-150"/>
    </contour>
  </outline>
</glyph>
<glyph name="imacron" format="2">
  <advance width="333"/>
  <unicode hex="012B"/>
  <outline>
    <contour>
      <point x="-4" y="560" type="line"/>
      <point x="-4" y="641" type="line"/>
      <point x="336" y="641" type="line"/>
      <point x="336" y="560" type="line"/>
    </contour>
    <contour>
      <point x="32" y="0" type="line"/>
      <point x="32" y="47" type="line"/>
      <point x="78" y="50" type="line" smooth="yes"/>
      <point x="90" y="51"/>
      <point x="100" y="61"/>
      <point x="100" y="73" type="curve" smooth="yes"/>
      <point x="100" y="409" type="line"/>
      <point x="36" y="409" type="line"/>
      <point x="36" y="450" type="line"/>
      <point x="182" y="500" type="line"/>
      <point x="233" y="500" type="line"/>
      <point x="233" y="73" type="line" smooth="yes"/>
      <point x="233" y="61"/>
      <point x="244" y="51"/>
      <point x="256" y="50" type="curve" smooth="yes"/>
      <point x="304" y="47" type="line"/>
      <point x="304" y="0" type="line"/>
    </contour>
  </outline>
</glyph>
<glyph name="Kcommaaccent" format="2">
  <advance width="682"/>
  <unicode hex="0136"/>
  <outline>
    <contour>
      <point x="29" y="0" type="line"/>
      <point x="29" y="51" type="line"/>
      <point x="82" y="56" type="line" smooth="yes"/>
      <point x="94" y="57"/>
      <point x="104" y="65"/>
      <point x="104" y="78" type="curve" smooth="yes"/>
      <point x="104" y="593" type="line" smooth="yes"/>
      <point x="104" y="606"/>
      <point x="94" y="614"/>
      <point x="82" y="615" type="curve" smooth="yes"/>
      <point x="29" y="620" type="line"/>
      <point x="29" y="671" type="line"/>
      <point x="322" y="671" type="line"/>
      <point x="322" y="620" type="line"/>
      <point x="269" y="615" type="line" smooth="yes"/>
      <point x="257" y="614"/>
      <point x="247" y="606"/>
      <point x="247" y="593" type="curve" smooth="yes"/>
      <point x="247" y="341" type="line"/>
      <point x="275" y="341" type="line"/>
      <point x="490" y="603" type="line"/>
      <point x="491" y="604"/>
      <point x="492" y="606"/>
      <point x="492" y="608" type="curve"/>
      <point x="492" y="612"/>
      <point x="489" y="615"/>
      <point x="485" y="615" type="curve"/>
      <point x="428" y="620" type="line"/>
      <point x="428" y="671" type="line"/>
      <point x="657" y="671" type="line"/>
      <point x="657" y="620" type="line"/>
      <point x="587" y="614" type="line"/>
      <point x="401" y="392" type="line"/>
      <point x="611" y="57" type="line"/>
      <point x="682" y="51" type="line"/>
      <point x="682" y="0" type="line"/>
      <point x="465" y="0" type="line"/>
      <point x="465" y="37" type="line"/>
      <point x="302" y="293" type="line"/>
      <point x="247" y="293" type="line"/>
      <point x="247" y="78" type="line" smooth="yes"/>
      <point x="247" y="65"/>
      <point x="257" y="57"/>
      <point x="269" y="56" type="curve" smooth="yes"/>
      <point x="322" y="51" type="line"/>
      <point x="322" y="0" type="line"/>
    </contour>
    <contour>
      <point x="278" y="-118" type="curve" smooth="yes"/>
      <point x="278" y="-79"/>
      <point x="311" y="-60"/>
      <point x="346" y="-60" type="curve" smooth="yes"/>
      <point x="397" y="-60"/>
      <point x="432" y="-98"/>
      <point x="432" y="-145" type="curve" smooth="yes"/>
      <point x="432" y="-213"/>
      <point x="369" y="-261"/>
      <point x="292" y="-276" type="curve"/>
      <point x="292" y="-236" type="line"/>
      <point x="331" y="-225"/>
      <point x="362" y="-194"/>
      <point x="362" y="-162" type="curve"/>
      <point x="298" y="-162" type="line"/>
      <point x="285" y="-150"/>
      <point x="278" y="-134"/>
    </contour>
  </outline>
</glyph>
<glyph name="kcommaaccent" format="2">
  <advance width="591"/>
  <unicode hex="0137"/>
  <outline>
    <contour>
      <point x="20" y="649" type="line"/>
      <point x="20" y="690" type="line"/>
      <point x="172" y="740" type="line"/>
      <point x="223" y="740" type="line"/>
      <point x="223" y="260" type="line"/>
      <point x="245" y="260" type="line"/>
      <point x="379" y="420" type="line"/>
      <point x="381" y="422"/>
      <point x="382" y="425"/>
      <point x="382" y="428" type="curve" smooth="yes"/>
      <point x="382" y="433"/>
      <point x="378" y="436"/>
      <point x="372" y="437" type="curve"/>
      <point x="334" y="441" type="line"/>
      <point x="334" y="488" type="line"/>
      <point x="542" y="488" type="line"/>
      <point x="542" y="441" type="line"/>
      <point x="476" y="433" type="line"/>
      <point x="369" y="311" type="line"/>
      <point x="523" y="52" type="line"/>
      <point x="582" y="47" type="line"/>
      <point x="582" y="0" type="line"/>
      <point x="380" y="0" type="line"/>
      <point x="380" y="41" type="line"/>
      <point x="270" y="226" type="line"/>
      <point x="223" y="226" type="line"/>
      <point x="223" y="73" type="line" smooth="yes"/>
      <point x="223" y="61"/>
      <point x="232" y="51"/>
      <point x="245" y="50" type="curve" smooth="yes"/>
      <point x="285" y="47" type="line"/>
      <point x="285" y="0" type="line"/>
      <point x="26" y="0" type="line"/>
      <point x="26" y="47" type="line"/>
      <point x="68" y="50" type="line" smooth="yes"/>
      <point x="80" y="51"/>
      <point x="90" y="61"/>
      <point x="90" y="73" type="curve" smooth="yes"/>
      <point x="90" y="649" type="line"/>
    </contour>
    <contour>
      <point x="227" y="-118" type="curve" smooth="yes"/>
      <point x="227" y="-79"/>
      <point x="260" y="-60"/>
      <point x="295" y="-60" type="curve" smooth="yes"/>
      <point x="346" y="-60"/>
      <point x="381" y="-98"/>
      <point x="381" y="-145" type="curve" smooth="yes"/>
      <point x="381" y="-213"/>
      <point x="317" y="-261"/>
      <point x="240" y="-276" type="curve"/>
      <point x="240" y="-236" type="line"/>
      <point x="279" y="-225"/>
      <point x="310" y="-194"/>
      <point x="310" y="-162" type="curve"/>
      <point x="247" y="-162" type="line"/>
      <point x="234" y="-150"/>
      <point x="227" y="-134"/>
    </contour>
  </outline>
</glyph>
<glyph name="lcommaaccent" format="2">
  <advance width="333"/>
  <unicode hex="013C"/>
  <outline>
    <contour>
      <point x="29" y="649" type="line"/>
      <point x="29" y="690" type="line"/>
      <point x="182" y="740" type="line"/>
      <point x="233" y="740" type="line"/>
      <point x="233" y="73" type="line" smooth="yes"/>
      <point x="233" y="60"/>
      <point x="242" y="51"/>
      <point x="255" y="50" type="curve" smooth="yes"/>
      <point x="305" y="47" type="line"/>
      <point x="305" y="0" type="line"/>
      <point x="29" y="0" type="line"/>
      <point x="29" y="47" type="line"/>
      <point x="78" y="50" type="line" smooth="yes"/>
      <point x="91" y="51"/>
      <point x="100" y="60"/>
      <point x="100" y="73" type="curve" smooth="yes"/>
      <point x="100" y="649" type="line"/>
    </contour>
    <contour>
      <point x="90" y="-118" type="curve" smooth="yes"/>
      <point x="90" y="-79"/>
      <point x="123" y="-60"/>
      <point x="158" y="-60" type="curve" smooth="yes"/>
      <point x="209" y="-60"/>
      <point x="244" y="-98"/>
      <point x="244" y="-145" type="curve" smooth="yes"/>
      <point x="244" y="-213"/>
      <point x="180" y="-261"/>
      <point x="103" y="-276" type="curve"/>
      <point x="103" y="-236" type="line"/>
      <point x="142" y="-225"/>
      <point x="173" y="-194"/>
      <point x="173" y="-162" type="curve"/>
      <point x="110" y="-162" type="line"/>
      <point x="97" y="-150"/>
      <point x="90" y="-134"/>
    </contour>
  </outline>
</glyph>
<glyph name="lcaron" format="2">
  <advance width="464"/>
  <unicode hex="013E"/>
  <outline>
    <contour>
      <point x="29" y="649" type="line"/>
      <point x="29" y="690" type="line"/>
      <point x="182" y="740" type="line"/>
      <point x="233" y="740" type="line"/>
      <point x="233" y="73" type="line" smooth="yes"/>
      <point x="233" y="60"/>
      <point x="242" y="51"/>
      <point x="255" y="50" type="curve" smooth="yes"/>
      <point x="305" y="47" type="line"/>
      <point x="305" y="0" type="line"/>
      <point x="29" y="0" type="line"/>
      <point x="29" y="47" type="line"/>
      <point x="78" y="50" type="line" smooth="yes"/>
      <point x="91" y="51"/>
      <point x="100" y="60"/>
      <point x="100" y="73" type="curve" smooth="yes"/>
      <point x="100" y="649" type="line"/>
    </contour>
    <contour>
      <point x="256" y="466" type="line"/>
      <point x="333" y="509"/>
      <point x="351" y="553"/>
      <point x="351" y="602" type="curve" smooth="yes"/>
      <point x="351" y="612" type="line"/>
      <point x="292" y="612" type="line"/>
      <point x="287" y="618"/>
      <point x="272" y="636"/>
      <point x="272" y="667" type="curve" smooth="yes"/>
      <point x="272" y="709"/>
      <point x="295" y="740"/>
      <point x="345" y="740" type="curve" smooth="yes"/>
      <point x="398" y="740"/>
      <point x="435" y="695"/>
      <point x="435" y="636" type="curve" smooth="yes"/>
      <point x="435" y="488"/>
      <point x="320" y="439"/>
      <point x="271" y="428" type="curve"/>
    </contour>
  </outline>
</glyph>
<glyph name="lslash" format="2">
  <advance width="333"/>
  <unicode hex="0142"/>
  <outline>
    <contour>
      <point x="-7" y="278" type="line"/>
      <point x="100" y="353" type="line"/>
      <point x="100" y="647" type="line"/>
      <point x="29" y="647" type="line"/>
      <point x="29" y="690" type="line"/>
      <point x="188" y="740" type="line"/>
      <point x="233" y="740" type="line"/>
      <point x="233" y="446" type="line"/>
      <point x="312" y="501" type="line"/>
      <point x="341" y="454" type="line"/>
      <point x="233" y="378" type="line"/>
      <point x="233" y="73" type="line" smooth="yes"/>
      <point x="233" y="60"/>
      <point x="244" y="51"/>
      <point x="256" y="50" type="curve" smooth="yes"/>
      <point x="306" y="47" type="line"/>
      <point x="306" y="0" type="line"/>
      <point x="29" y="0" type="line"/>
      <point x="29" y="47" type="line"/>
      <point x="78" y="50" type="line" smooth="yes"/>
      <point x="90" y="51"/>
      <point x="100" y="60"/>
      <point x="100" y="73" type="curve" smooth="yes"/>
      <point x="100" y="286" type="line"/>
      <point x="21" y="230" type="line"/>
    </contour>
  </outline>
</glyph>
<glyph name="Ncommaaccent" format="2">
  <advance width="744"/>
  <unicode hex="0145"/>
  <outline>
    <contour>
      <point x="28" y="620" type="line"/>
      <point x="28" y="671" type="line"/>
      <point x="275" y="671" type="line"/>
      <point x="275" y="644" type="line"/>
      <point x="563" y="193" type="line"/>
      <point x="563" y="593" type="line" smooth="yes"/>
      <point x="563" y="606"/>
      <point x="552" y="614"/>
      <point x="540" y="615" type="curve" smooth="yes"/>
      <point x="483" y="620" type="line"/>
      <point x="483" y="671" type="line"/>
      <point x="715" y="671" type="line"/>
      <point x="715" y="620" type="line"/>
      <point x="661" y="615" type="line" smooth="yes"/>
      <point x="650" y="614"/>
      <point x="639" y="606"/>
      <point x="639" y="593" type="curve" smooth="yes"/>
      <point x="639" y="0" type="line"/>
      <point x="517" y="0" type="line"/>
      <point x="180" y="529" type="line"/>
      <point x="180" y="78" type="line" smooth="yes"/>
      <point x="180" y="65"/>
      <point x="191" y="57"/>
      <point x="202" y="56" type="curve" smooth="yes"/>
      <point x="258" y="51" type="line"/>
      <point x="258" y="0" type="line"/>
      <point x="27" y="0" type="line"/>
      <point x="27" y="51" type="line"/>
      <point x="82" y="56" type="line" smooth="yes"/>
      <point x="94" y="57"/>
      <point x="104" y="65"/>
      <point x="104" y="78" type="curve" smooth="yes"/>
      <point x="104" y="593" type="line" smooth="yes"/>
      <point x="104" y="606"/>
      <point x="94" y="614"/>
      <point x="82" y="615" type="curve" smooth="yes"/>
    </contour>
    <contour>
      <point x="256" y="-118" type="curve" smooth="yes"/>
      <point x="256" y="-79"/>
      <point x="289" y="-60"/>
      <point x="324" y="-60" type="curve" smooth="yes"/>
      <point x="375" y="-60"/>
      <point x="410" y="-98"/>
      <point x="410" y="-145" type="curve" smooth="yes"/>
      <point x="410" y="-213"/>
      <point x="346" y="-261"/>
      <point x="269" y="-276" type="curve"/>
      <point x="269" y="-236" type="line"/>
      <point x="308" y="-225"/>
      <point x="339" y="-194"/>
      <point x="339" y="-162" type="curve"/>
      <point x="276" y="-162" type="line"/>
      <point x="263" y="-150"/>
      <point x="256" y="-134"/>
    </contour>
  </outline>
</glyph>
<glyph name="ncommaaccent" format="2">
  <advance width="625"/>
  <unicode hex="0146"/>
  <outline>
    <contour>
      <point x="21" y="396" type="line"/>
      <point x="21" y="437" type="line"/>
      <point x="171" y="488" type="line"/>
      <point x="223" y="488" type="line"/>
      <point x="223" y="439" type="line"/>
      <point x="272" y="476"/>
      <point x="340" y="500"/>
      <point x="398" y="500" type="curve" smooth="yes"/>
      <point x="490" y="500"/>
      <point x="534" y="443"/>
      <point x="534" y="326" type="curve" smooth="yes"/>
      <point x="534" y="73" type="line" smooth="yes"/>
      <point x="534" y="61"/>
      <point x="545" y="51"/>
      <point x="557" y="50" type="curve" smooth="yes"/>
      <point x="588" y="47" type="line"/>
      <point x="588" y="0" type="line"/>
      <point x="342" y="0" type="line"/>
      <point x="342" y="47" type="line"/>
      <point x="379" y="50" type="line" smooth="yes"/>
      <point x="391" y="51"/>
      <point x="401" y="61"/>
      <point x="401" y="73" type="curve" smooth="yes"/>
      <point x="401" y="308" type="line" smooth="yes"/>
      <point x="401" y="370"/>
      <point x="370" y="408"/>
      <point x="319" y="408" type="curve" smooth="yes"/>
      <point x="264" y="408"/>
      <point x="223" y="395"/>
      <point x="223" y="395" type="curve"/>
      <point x="223" y="73" type="line" smooth="yes"/>
      <point x="223" y="61"/>
      <point x="234" y="51"/>
      <point x="246" y="50" type="curve" smooth="yes"/>
      <point x="276" y="47" type="line"/>
      <point x="276" y="0" type="line"/>
      <point x="32" y="0" type="line"/>
      <point x="32" y="47" type="line"/>
      <point x="68" y="50" type="line" smooth="yes"/>
      <point x="80" y="51"/>
      <point x="90" y="61"/>
      <point x="90" y="73" type="curve" smooth="yes"/>
      <point x="90" y="396" type="line"/>
    </contour>
    <contour>
      <point x="233" y="-118" type="curve" smooth="yes"/>
      <point x="233" y="-79"/>
      <point x="266" y="-60"/>
      <point x="301" y="-60" type="curve" smooth="yes"/>
      <point x="352" y="-60"/>
      <point x="387" y="-98"/>
      <point x="387" y="-145" type="curve" smooth="yes"/>
      <point x="387" y="-213"/>
      <point x="323" y="-261"/>
      <point x="246" y="-276" type="curve"/>
      <point x="246" y="-236" type="line"/>
      <point x="285" y="-225"/>
      <point x="316" y="-194"/>
      <point x="316" y="-162" type="curve"/>
      <point x="253" y="-162" type="line"/>
      <point x="240" y="-150"/>
      <point x="233" y="-134"/>
    </contour>
  </outline>
</glyph>
<glyph name="ncaron" format="2">
  <advance width="625"/>
  <unicode hex="0148"/>
  <outline>
    <contour>
      <point x="21" y="396" type="line"/>
      <point x="21" y="437" type="line"/>
      <point x="171" y="488" type="line"/>
      <point x="223" y="488" type="line"/>
      <point x="223" y="439" type="line"/>
      <point x="272" y="476"/>
      <point x="340" y="500"/>
      <point x="398" y="500" type="curve" smooth="yes"/>
      <point x="490" y="500"/>
      <point x="534" y="443"/>
      <point x="534" y="326" type="curve" smooth="yes"/>
      <point x="534" y="73" type="line" smooth="yes"/>
      <point x="534" y="61"/>
      <point x="545" y="51"/>
      <point x="557" y="50" type="curve" smooth="yes"/>
      <point x="588" y="47" type="line"/>
      <point x="588" y="0" type="line"/>
      <point x="342" y="0" type="line"/>
      <point x="342" y="47" type="line"/>
      <point x="379" y="50" type="line" smooth="yes"/>
      <point x="391" y="51"/>
      <point x="401" y="61"/>
      <point x="401" y="73" type="curve" smooth="yes"/>
      <point x="401" y="308" type="line" smooth="yes"/>
      <point x="401" y="370"/>
      <point x="370" y="408"/>
      <point x="319" y="408" type="curve" smooth="yes"/>
      <point x="264" y="408"/>
      <point x="223" y="395"/>
      <point x="223" y="395" type="curve"/>
      <point x="223" y="73" type="line" smooth="yes"/>
      <point x="223" y="61"/>
      <point x="234" y="51"/>
      <point x="246" y="50" type="curve" smooth="yes"/>
      <point x="276" y="47" type="line"/>
      <point x="276" y="0" type="line"/>
      <point x="32" y="0" type="line"/>
      <point x="32" y="47" type="line"/>
      <point x="68" y="50" type="line" smooth="yes"/>
      <point x="80" y="51"/>
      <point x="90" y="61"/>
      <point x="90" y="73" type="curve" smooth="yes"/>
      <point x="90" y="396" type="line"/>
    </contour>
    <contour>
      <point x="134" y="731" type="line"/>
      <point x="218" y="731" type="line"/>
      <point x="304" y="637" type="line"/>
      <point x="392" y="731" type="line"/>
      <point x="474" y="731" type="line"/>
      <point x="364" y="560" type="line"/>
      <point x="246" y="560" type="line"/>
    </contour>
  </outline>
</glyph>
<glyph name="napostrophe" format="2">
  <advance width="819"/>
  <unicode hex="0149"/>
  <outline>
    <contour>
      <point x="59" y="421" type="line"/>
      <point x="136" y="464"/>
      <point x="154" y="508"/>
      <point x="154" y="557" type="curve" smooth="yes"/>
      <point x="154" y="567" type="line"/>
      <point x="95" y="567" type="line"/>
      <point x="90" y="573"/>
      <point x="75" y="591"/>
      <point x="75" y="622" type="curve" smooth="yes"/>
      <point x="75" y="664"/>
      <point x="98" y="695"/>
      <point x="148" y="695" type="curve" smooth="yes"/>
      <point x="201" y="695"/>
      <point x="238" y="650"/>
      <point x="238" y="591" type="curve" smooth="yes"/>
      <point x="238" y="443"/>
      <point x="123" y="394"/>
      <point x="74" y="383" type="curve"/>
    </contour>
    <contour>
      <point x="215" y="396" type="line"/>
      <point x="215" y="437" type="line"/>
      <point x="365" y="488" type="line"/>
      <point x="417" y="488" type="line"/>
      <point x="417" y="439" type="line"/>
      <point x="466" y="476"/>
      <point x="534" y="500"/>
      <point x="592" y="500" type="curve" smooth="yes"/>
      <point x="684" y="500"/>
      <point x="728" y="443"/>
      <point x="728" y="326" type="curve" smooth="yes"/>
      <point x="728" y="73" type="line" smooth="yes"/>
      <point x="728" y="61"/>
      <point x="739" y="51"/>
      <point x="751" y="50" type="curve" smooth="yes"/>
      <point x="782" y="47" type="line"/>
      <point x="782" y="0" type="line"/>
      <point x="536" y="0" type="line"/>
      <point x="536" y="47" type="line"/>
      <point x="573" y="50" type="line" smooth="yes"/>
      <point x="585" y="51"/>
      <point x="595" y="61"/>
      <point x="595" y="73" type="curve" smooth="yes"/>
      <point x="595" y="308" type="line" smooth="yes"/>
      <point x="595" y="370"/>
      <point x="564" y="408"/>
      <point x="513" y="408" type="curve" smooth="yes"/>
      <point x="458" y="408"/>
      <point x="417" y="395"/>
      <point x="417" y="395" type="curve"/>
      <point x="417" y="73" type="line" smooth="yes"/>
      <point x="417" y="61"/>
      <point x="428" y="51"/>
      <point x="440" y="50" type="curve" smooth="yes"/>
      <point x="470" y="47" type="line"/>
      <point x="470" y="0" type="line"/>
      <point x="226" y="0" type="line"/>
      <point x="226" y="47" type="line"/>
      <point x="262" y="50" type="line" smooth="yes"/>
      <point x="274" y="51"/>
      <point x="284" y="61"/>
      <point x="284" y="73" type="curve" smooth="yes"/>
      <point x="284" y="396" type="line"/>
    </contour>
  </outline>
</glyph>
<glyph name="ohungarumlaut" format="2">
  <advance width="582"/>
  <unicode hex="0151"/>
  <outline>
    <contour>
      <point x="30" y="242" type="curve" smooth="yes"/>
      <point x="30" y="406"/>
      <point x="139" y="500"/>
      <point x="294" y="500" type="curve" smooth="yes"/>
      <point x="459" y="500"/>
      <point x="552" y="393"/>
      <point x="552" y="241" type="curve" smooth="yes"/>
      <point x="552" y="92"/>
      <point x="453" y="-12"/>
      <point x="287" y="-12" type="curve" smooth="yes"/>
      <point x="135" y="-12"/>
      <point x="30" y="84"/>
    </contour>
    <contour>
      <point x="92" y="560" type="line"/>
      <point x="228" y="711" type="line" smooth="yes"/>
      <point x="250" y="736"/>
      <point x="265" y="743"/>
      <point x="292" y="743" type="curve" smooth="yes"/>
      <point x="335" y="743"/>
      <point x="348" y="714"/>
      <point x="348" y="690" type="curve" smooth="yes"/>
      <point x="348" y="677"/>
      <point x="337" y="656"/>
      <point x="322" y="648" type="curve" smooth="yes"/>
      <point x="162" y="560" type="line"/>
    </contour>
    <contour>
      <point x="180" y="246" type="curve" smooth="yes"/>
      <point x="180" y="160"/>
      <point x="198" y="45"/>
      <point x="291" y="45" type="curve" smooth="yes"/>
      <point x="382" y="45"/>
      <point x="402" y="153"/>
      <point x="402" y="242" type="curve" smooth="yes"/>
      <point x="402" y="327"/>
      <point x="382" y="443"/>
      <point x="290" y="443" type="curve" smooth="yes"/>
      <point x="200" y="443"/>
      <point x="180" y="332"/>
    </contour>
    <contour>
      <point x="306" y="560" type="line"/>
      <point x="444" y="711" type="line" smooth="yes"/>
      <point x="466" y="736"/>
      <point x="479" y="743"/>
      <point x="506" y="743" type="curve" smooth="yes"/>
      <point x="549" y="743"/>
      <point x="564" y="714"/>
      <point x="564" y="690" type="curve" smooth="yes"/>
      <point x="564" y="677"/>
      <point x="553" y="656"/>
      <point x="538" y="648" type="curve" smooth="yes"/>
      <point x="376" y="560" type="line"/>
    </contour>
  </outline>
</glyph>
<glyph name="racute" format="2">
  <advance width="432"/>
  <unicode hex="0155"/>
  <outline>
    <contour>
      <point x="17" y="408" type="line"/>
      <point x="17" y="449" type="line"/>
      <point x="172" y="500" type="line"/>
      <point x="224" y="500" type="line"/>
      <point x="224" y="394" type="line"/>
      <point x="249" y="426"/>
      <point x="313" y="500"/>
      <point x="359" y="500" type="curve" smooth="yes"/>
      <point x="382" y="500"/>
      <point x="410" y="491"/>
      <point x="422" y="482" type="curve"/>
      <point x="422" y="330" type="line"/>
      <point x="354" y="330" type="line"/>
      <point x="346" y="343"/>
      <point x="328" y="370"/>
      <point x="289" y="370" type="curve" smooth="yes"/>
      <point x="251" y="370"/>
      <point x="224" y="352"/>
      <point x="224" y="352" type="curve"/>
      <point x="224" y="72" type="line" smooth="yes"/>
      <point x="224" y="60"/>
      <point x="233" y="49"/>
      <point x="246" y="49" type="curve"/>
      <point x="310" y="46" type="line"/>
      <point x="310" y="-1" type="line"/>
      <point x="24" y="-1" type="line"/>
      <point x="24" y="46" type="line"/>
      <point x="68" y="49" type="line" smooth="yes"/>
      <point x="80" y="50"/>
      <point x="90" y="60"/>
      <point x="90" y="72" type="curve" smooth="yes"/>
      <point x="90" y="408" type="line"/>
    </contour>
    <contour>
      <point x="94" y="560" type="line"/>
      <point x="232" y="711" type="line" smooth="yes"/>
      <point x="255" y="736"/>
      <point x="267" y="743"/>
      <point x="294" y="743" type="curve" smooth="yes"/>
      <point x="337" y="743"/>
      <point x="352" y="714"/>
      <point x="352" y="690" type="curve" smooth="yes"/>
      <point x="352" y="677"/>
      <point x="340" y="656"/>
      <point x="326" y="648" type="curve" smooth="yes"/>
      <point x="164" y="560" type="line"/>
    </contour>
  </outline>
</glyph>
<glyph name="scedilla" format="2">
  <advance width="444"/>
  <unicode hex="015F"/>
  <outline>
    <contour>
      <point x="32" y="15" type="curve"/>
      <point x="32" y="167" type="line"/>
      <point x="95" y="167" type="line"/>
      <point x="107" y="75" type="line"/>
      <point x="122" y="63"/>
      <point x="175" y="47"/>
      <point x="200" y="47" type="curve" smooth="yes"/>
      <point x="249" y="47"/>
      <point x="286" y="74"/>
      <point x="286" y="111" type="curve" smooth="yes"/>
      <point x="286" y="143"/>
      <point x="259" y="166"/>
      <point x="179" y="203" type="curve" smooth="yes"/>
      <point x="143" y="220" type="line" smooth="yes"/>
      <point x="71" y="253"/>
      <point x="38" y="294"/>
      <point x="38" y="348" type="curve" smooth="yes"/>
      <point x="38" y="439"/>
      <point x="119" y="500"/>
      <point x="239" y="500" type="curve" smooth="yes"/>
      <point x="300" y="500"/>
      <point x="362" y="489"/>
      <point x="398" y="473" type="curve"/>
      <point x="398" y="335" type="line"/>
      <point x="336" y="335" type="line"/>
      <point x="325" y="415" type="line"/>
      <point x="312" y="430"/>
      <point x="282" y="440"/>
      <point x="247" y="440" type="curve" smooth="yes"/>
      <point x="200" y="440"/>
      <point x="172" y="420"/>
      <point x="172" y="385" type="curve" smooth="yes"/>
      <point x="172" y="354"/>
      <point x="199" y="329"/>
      <point x="273" y="292" type="curve" smooth="yes"/>
      <point x="297" y="280" type="line" smooth="yes"/>
      <point x="379" y="239"/>
      <point x="414" y="202"/>
      <point x="414" y="156" type="curve" smooth="yes"/>
      <point x="414" y="52"/>
      <point x="336" y="-12"/>
      <point x="210" y="-12" type="curve" smooth="yes"/>
      <point x="112" y="-12"/>
      <point x="32" y="15"/>
    </contour>
    <contour>
      <point x="129" y="-248" type="curve"/>
      <point x="129" y="-198" type="line"/>
      <point x="129" y="-198"/>
      <point x="168" y="-206"/>
      <point x="192" y="-206" type="curve" smooth="yes"/>
      <point x="218" y="-206"/>
      <point x="251" y="-200"/>
      <point x="251" y="-172" type="curve" smooth="yes"/>
      <point x="251" y="-148"/>
      <point x="230" y="-138"/>
      <point x="207" y="-138" type="curve" smooth="yes"/>
      <point x="200" y="-138"/>
      <point x="185" y="-140"/>
      <point x="185" y="-140" type="curve"/>
      <point x="185" y="-3" type="line"/>
      <point x="235" y="-3" type="line"/>
      <point x="235" y="-85" type="line"/>
      <point x="238" y="-84"/>
      <point x="241" y="-83"/>
      <point x="249" y="-83" type="curve" smooth="yes"/>
      <point x="295" y="-83"/>
      <point x="333" y="-106"/>
      <point x="333" y="-159" type="curve" smooth="yes"/>
      <point x="333" y="-224"/>
      <point x="281" y="-259"/>
      <point x="210" y="-259" type="curve" smooth="yes"/>
      <point x="169" y="-259"/>
      <point x="129" y="-248"/>
    </contour>
  </outline>
</glyph>
<glyph name="Tcaron" format="2">
  <advance width="608"/>
  <unicode hex="0164"/>
  <outline>
    <contour>
      <point x="16" y="488" type="line"/>
      <point x="16" y="671" type="line"/>
      <point x="593" y="671" type="line"/>
      <point x="593" y="488" type="line"/>
      <point x="520" y="488" type="line"/>
      <point x="502" y="599" type="line"/>
      <point x="501" y="607"/>
      <point x="496" y="611"/>
      <point x="488" y="611" type="curve" smooth="yes"/>
      <point x="376" y="611" type="line"/>
      <point x="376" y="78" type="line" smooth="yes"/>
      <point x="376" y="65"/>
      <point x="386" y="57"/>
      <point x="398" y="56" type="curve" smooth="yes"/>
      <point x="457" y="51" type="line"/>
      <point x="457" y="0" type="line"/>
      <point x="152" y="0" type="line"/>
      <point x="152" y="51" type="line"/>
      <point x="210" y="56" type="line" smooth="yes"/>
      <point x="222" y="57"/>
      <point x="233" y="65"/>
      <point x="233" y="78" type="curve" smooth="yes"/>
      <point x="233" y="611" type="line"/>
      <point x="121" y="611" type="line" smooth="yes"/>
      <point x="113" y="611"/>
      <point x="107" y="607"/>
      <point x="106" y="599" type="curve"/>
      <point x="88" y="488" type="line"/>
    </contour>
    <contour>
      <point x="134" y="918" type="line"/>
      <point x="218" y="918" type="line"/>
      <point x="304" y="824" type="line"/>
      <point x="392" y="918" type="line"/>
      <point x="474" y="918" type="line"/>
      <point x="364" y="747" type="line"/>
      <point x="246" y="747" type="line"/>
    </contour>
  </outline>
</glyph>
<glyph name="utilde" format="2">
  <advance width="620"/>
  <unicode hex="0169"/>
  <outline>
    <contour>
      <point x="25" y="396" type="line"/>
      <point x="25" y="437" type="line"/>
      <point x="172" y="488" type="line"/>
      <point x="224" y="488" type="line"/>
      <point x="224" y="190" type="line" smooth="yes"/>
      <point x="224" y="141"/>
      <point x="231" y="79"/>
      <point x="316" y="79" type="curve" smooth="yes"/>
      <point x="358" y="79"/>
      <point x="396" y="96"/>
      <point x="396" y="96" type="curve"/>
      <point x="396" y="396" type="line"/>
      <point x="333" y="396" type="line"/>
      <point x="333" y="437" type="line"/>
      <point x="479" y="488" type="line"/>
      <point x="530" y="488" type="line"/>
      <point x="530" y="73" type="line" smooth="yes"/>
      <point x="530" y="61"/>
      <point x="541" y="51"/>
      <point x="553" y="50" type="curve" smooth="yes"/>
      <point x="597" y="47" type="line"/>
      <point x="597" y="0" type="line"/>
      <point x="396" y="0" type="line"/>
      <point x="396" y="55" type="line"/>
      <point x="396" y="55"/>
      <point x="311" y="-12"/>
      <point x="238" y="-12" type="curve" smooth="yes"/>
      <point x="124" y="-12"/>
      <point x="90" y="49"/>
      <point x="90" y="151" type="curve" smooth="yes"/>
      <point x="90" y="396" type="line"/>
    </contour>
    <contour>
      <point x="176" y="560" type="line"/>
      <point x="193" y="629"/>
      <point x="229" y="684"/>
      <point x="296" y="684" type="curve" smooth="yes"/>
      <point x="322" y="684"/>
      <point x="339" y="673"/>
      <point x="358" y="661" type="curve"/>
      <point x="377" y="648"/>
      <point x="398" y="637"/>
      <point x="428" y="637" type="curve" smooth="yes"/>
      <point x="449" y="637"/>
      <point x="469" y="658"/>
      <point x="472" y="684" type="curve"/>
      <point x="526" y="684" type="line"/>
      <point x="509" y="615"/>
      <point x="474" y="560"/>
      <point x="406" y="560" type="curve" smooth="yes"/>
      <point x="381" y="560"/>
      <point x="362" y="571"/>
      <point x="344" y="583" type="curve" smooth="yes"/>
      <point x="324" y="596"/>
      <point x="304" y="608"/>
      <point x="274" y="608" type="curve" smooth="yes"/>
      <point x="252" y="608"/>
      <point x="233" y="587"/>
      <point x="230" y="560" type="curve"/>
    </contour>
  </outline>
</glyph>
<glyph name="Uring" format="2">
  <advance width="729"/>
  <unicode hex="016E"/>
  <outline>
    <contour>
      <point x="22" y="620" type="line"/>
      <point x="22" y="671" type="line"/>
      <point x="318" y="671" type="line"/>
      <point x="318" y="620" type="line"/>
      <point x="264" y="615" type="line" smooth="yes"/>
      <point x="253" y="614"/>
      <point x="242" y="606"/>
      <point x="242" y="593" type="curve" smooth="yes"/>
      <point x="242" y="246" type="line" smooth="yes"/>
      <point x="242" y="121"/>
      <point x="294" y="67"/>
      <point x="404" y="67" type="curve" smooth="yes"/>
      <point x="509" y="67"/>
      <point x="552" y="138"/>
      <point x="552" y="246" type="curve" smooth="yes"/>
      <point x="552" y="593" type="line" smooth="yes"/>
      <point x="552" y="606"/>
      <point x="542" y="614"/>
      <point x="530" y="615" type="curve" smooth="yes"/>
      <point x="473" y="620" type="line"/>
      <point x="473" y="671" type="line"/>
      <point x="703" y="671" type="line"/>
      <point x="703" y="620" type="line"/>
      <point x="650" y="615" type="line" smooth="yes"/>
      <point x="639" y="614"/>
      <point x="628" y="606"/>
      <point x="628" y="593" type="curve" smooth="yes"/>
      <point x="628" y="254" type="line" smooth="yes"/>
      <point x="628" y="57"/>
      <point x="541" y="-16"/>
      <point x="354" y="-16" type="curve" smooth="yes"/>
      <point x="182" y="-16"/>
      <point x="99" y="78"/>
      <point x="99" y="254" type="curve" smooth="yes"/>
      <point x="99" y="593" type="line" smooth="yes"/>
      <point x="99" y="606"/>
      <point x="88" y="614"/>
      <point x="76" y="615" type="curve" smooth="yes"/>
    </contour>
    <contour>
      <point x="236" y="873" type="curve" smooth="yes"/>
      <point x="236" y="943"/>
      <point x="293" y="999"/>
      <point x="362" y="999" type="curve" smooth="yes"/>
      <point x="432" y="999"/>
      <point x="489" y="943"/>
      <point x="489" y="873" type="curve" smooth="yes"/>
      <point x="489" y="803"/>
      <point x="432" y="747"/>
      <point x="362" y="747" type="curve" smooth="yes"/>
      <point x="293" y="747"/>
      <point x="236" y="803"/>
    </contour>
    <contour>
      <point x="299" y="873" type="curve" smooth="yes"/>
      <point x="299" y="838"/>
      <point x="328" y="810"/>
      <point x="362" y="810" type="curve" smooth="yes"/>
      <point x="397" y="810"/>
      <point x="425" y="838"/>
      <point x="425" y="873" type="curve" smooth="yes"/>
      <point x="425" y="908"/>
      <point x="397" y="936"/>
      <point x="362" y="936" type="curve" smooth="yes"/>
      <point x="328" y="936"/>
      <point x="299" y="908"/>
    </contour>
  </outline>
</glyph>
<glyph name="Uogonek" format="2">
  <advance width="729"/>
  <unicode hex="0172"/>
  <outline>
    <contour>
      <point x="22" y="620" type="line"/>
      <point x="76" y="615" type="line" smooth="yes"/>
      <point x="88" y="614"/>
      <point x="99" y="606"/>
      <point x="99" y="593" type="curve" smooth="yes"/>
      <point x="99" y="254" type="line" smooth="yes"/>
      <point x="99" y="78"/>
      <point x="182" y="-16"/>
      <point x="354" y="-16" type="curve" smooth="yes"/>
      <point x="541" y="-16"/>
      <point x="628" y="57"/>
      <point x="628" y="254" type="curve" smooth="yes"/>
      <point x="628" y="593" type="line" smooth="yes"/>
      <point x="628" y="606"/>
      <point x="639" y="614"/>
      <point x="650" y="615" type="curve" smooth="yes"/>
      <point x="703" y="620" type="line"/>
      <point x="703" y="671" type="line"/>
      <point x="473" y="671" type="line"/>
      <point x="473" y="620" type="line"/>
      <point x="530" y="615" type="line" smooth="yes"/>
      <point x="542" y="614"/>
      <point x="552" y="606"/>
      <point x="552" y="593" type="curve" smooth="yes"/>
      <point x="552" y="246" type="line" smooth="yes"/>
      <point x="552" y="138"/>
      <point x="509" y="67"/>
      <point x="404" y="67" type="curve" smooth="yes"/>
      <point x="294" y="67"/>
      <point x="242" y="121"/>
      <point x="242" y="246" type="curve" smooth="yes"/>
      <point x="242" y="593" type="line" smooth="yes"/>
      <point x="242" y="606"/>
      <point x="253" y="614"/>
      <point x="264" y="615" type="curve" smooth="yes"/>
      <point x="318" y="620" type="line"/>
      <point x="318" y="671" type="line"/>
      <point x="22" y="671" type="line"/>
    </contour>
    <contour>
      <point x="242" y="-134" type="curve" smooth="yes"/>
      <point x="242" y="-92"/>
      <point x="272" y="-44"/>
      <point x="322" y="-9" type="curve"/>
      <point x="386" y="-9" type="line"/>
      <point x="344" y="-41"/>
      <point x="322" y="-73"/>
      <point x="322" y="-108" type="curve" smooth="yes"/>
      <point x="322" y="-140"/>
      <point x="342" y="-160"/>
      <point x="372" y="-160" type="curve" smooth="yes"/>
      <point x="388" y="-160"/>
      <point x="410" y="-151"/>
      <point x="420" y="-141" type="curve"/>
      <point x="448" y="-187" type="line"/>
      <point x="420" y="-208"/>
      <point x="389" y="-218"/>
      <point x="352" y="-218" type="curve" smooth="yes"/>
      <point x="285" y="-218"/>
      <point x="242" y="-184"/>
    </contour>
  </outline>
</glyph>
<glyph name="uogonek" format="2">
  <advance width="620"/>
  <unicode hex="0173"/>
  <outline>
    <contour>
      <point x="25" y="396" type="line"/>
      <point x="25" y="437" type="line"/>
      <point x="172" y="488" type="line"/>
      <point x="224" y="488" type="line"/>
      <point x="224" y="190" type="line" smooth="yes"/>
      <point x="224" y="141"/>
      <point x="231" y="79"/>
      <point x="316" y="79" type="curve" smooth="yes"/>
      <point x="358" y="79"/>
      <point x="396" y="96"/>
      <point x="396" y="96" type="curve"/>
      <point x="396" y="396" type="line"/>
      <point x="333" y="396" type="line"/>
      <point x="333" y="437" type="line"/>
      <point x="479" y="488" type="line"/>
      <point x="530" y="488" type="line"/>
      <point x="530" y="73" type="line" smooth="yes"/>
      <point x="530" y="61"/>
      <point x="541" y="51"/>
      <point x="553" y="50" type="curve" smooth="yes"/>
      <point x="597" y="47" type="line"/>
      <point x="597" y="0" type="line"/>
      <point x="396" y="0" type="line"/>
      <point x="396" y="55" type="line"/>
      <point x="396" y="55"/>
      <point x="311" y="-12"/>
      <point x="238" y="-12" type="curve" smooth="yes"/>
      <point x="124" y="-12"/>
      <point x="90" y="49"/>
      <point x="90" y="151" type="curve" smooth="yes"/>
      <point x="90" y="396" type="line"/>
    </contour>
    <contour>
      <point x="350" y="-130" type="curve" smooth="yes"/>
      <point x="350" y="-88"/>
      <point x="381" y="-40"/>
      <point x="431" y="-5" type="curve"/>
      <point x="494" y="-5" type="line"/>
      <point x="452" y="-37"/>
      <point x="431" y="-69"/>
      <point x="431" y="-104" type="curve" smooth="yes"/>
      <point x="431" y="-136"/>
      <point x="451" y="-156"/>
      <point x="481" y="-156" type="curve" smooth="yes"/>
      <point x="497" y="-156"/>
      <point x="518" y="-147"/>
      <point x="528" y="-137" type="curve"/>
      <point x="556" y="-183" type="line"/>
      <point x="528" y="-204"/>
      <point x="498" y="-214"/>
      <point x="461" y="-214" type="curve" smooth="yes"/>
      <point x="394" y="-214"/>
      <point x="350" y="-180"/>
    </contour>
  </outline>
</glyph>
<glyph name="Ydieresis" format="2">
  <advance width="663"/>
  <unicode hex="0178"/>
  <outline>
    <contour>
      <point x="10" y="620" type="line"/>
      <point x="10" y="671" type="line"/>
      <point x="294" y="671" type="line"/>
      <point x="294" y="620" type="line"/>
      <point x="241" y="615" type="line" smooth="yes"/>
      <point x="236.361" y="614.562"/>
      <point x="232.621" y="609.916"/>
      <point x="232.621" y="603.072" type="curve" smooth="yes"/>
      <point x="232.621" y="599.541"/>
      <point x="233.617" y="595.425"/>
      <point x="236" y="591" type="curve" smooth="yes"/>
      <point x="362" y="354" type="line"/>
      <point x="498" y="592" type="line" smooth="yes"/>
      <point x="500.654" y="596.551"/>
      <point x="501.875" y="601.016"/>
      <point x="501.875" y="604.838" type="curve" smooth="yes"/>
      <point x="501.875" y="611.097"/>
      <point x="498.604" y="615.633"/>
      <point x="493" y="616" type="curve" smooth="yes"/>
      <point x="432" y="620" type="line"/>
      <point x="432" y="671" type="line"/>
      <point x="653" y="671" type="line"/>
      <point x="653" y="620" type="line"/>
      <point x="595" y="611" type="line"/>
      <point x="410" y="290" type="line"/>
      <point x="410" y="78" type="line" smooth="yes"/>
      <point x="410" y="65"/>
      <point x="420" y="57"/>
      <point x="432" y="56" type="curve" smooth="yes"/>
      <point x="493" y="51" type="line"/>
      <point x="493" y="0" type="line"/>
      <point x="183" y="0" type="line"/>
      <point x="183" y="51" type="line"/>
      <point x="244" y="56" type="line" smooth="yes"/>
      <point x="255" y="57"/>
      <point x="267" y="65"/>
      <point x="267" y="78" type="curve" smooth="yes"/>
      <point x="267" y="262" type="line"/>
      <point x="74" y="611" type="line"/>
    </contour>
    <contour>
      <point x="157.5" y="816" type="curve" smooth="yes"/>
      <point x="157.5" y="854"/>
      <point x="188.5" y="885"/>
      <point x="226.5" y="885" type="curve" smooth="yes"/>
      <point x="264.5" y="885"/>
      <point x="295.5" y="854"/>
      <point x="295.5" y="816" type="curve" smooth="yes"/>
      <point x="295.5" y="778"/>
      <point x="264.5" y="747"/>
      <point x="226.5" y="747" type="curve" smooth="yes"/>
      <point x="188.5" y="747"/>
      <point x="157.5" y="778"/>
    </contour>
    <contour>
      <point x="367.5" y="816" type="curve" smooth="yes"/>
      <point x="367.5" y="854"/>
      <point x="398.5" y="885"/>
      <point x="436.5" y="885" type="curve" smooth="yes"/>
      <point x="474.5" y="885"/>
      <point x="505.5" y="854"/>
      <point x="505.5" y="816" type="curve" smooth="yes"/>
      <point x="505.5" y="778"/>
      <point x="474.5" y="747"/>
      <point x="436.5" y="747" type="curve" smooth="yes"/>
      <point x="398.5" y="747"/>
      <point x="367.5" y="778"/>
    </contour>
  </outline>
</glyph>
<glyph name="uni0182" format="2">
  <advance width="763"/>
  <unicode hex="0182"/>
  <outline>
    <contour>
      <point x="21" y="0" type="line"/>
      <point x="21" y="51" type="line"/>
      <point x="82" y="56" type="line" smooth="yes"/>
      <point x="94" y="57"/>
      <point x="104" y="65"/>
      <point x="104" y="78" type="curve" smooth="yes"/>
      <point x="104" y="593" type="line" smooth="yes"/>
      <point x="104" y="606"/>
      <point x="94" y="614"/>
      <point x="82" y="615" type="curve" smooth="yes"/>
      <point x="21" y="620" type="line"/>
      <point x="21" y="671" type="line"/>
      <point x="521" y="671" type="line"/>
      <point x="521" y="507" type="line"/>
      <point x="449" y="507" type="line"/>
      <point x="436" y="592" type="line"/>
      <point x="433" y="608"/>
      <point x="427" y="614"/>
      <point x="414" y="614" type="curve" smooth="yes"/>
      <point x="262" y="614" type="line" smooth="yes"/>
      <point x="252" y="614"/>
      <point x="247" y="605"/>
      <point x="247" y="599" type="curve" smooth="yes"/>
      <point x="247" y="371" type="line"/>
      <point x="263" y="373"/>
      <point x="283" y="374"/>
      <point x="299" y="374" type="curve" smooth="yes"/>
      <point x="473" y="374"/>
      <point x="602" y="332"/>
      <point x="602" y="195" type="curve" smooth="yes"/>
      <point x="602" y="59"/>
      <point x="510" y="0"/>
      <point x="282" y="0" type="curve" smooth="yes"/>
    </contour>
    <contour>
      <point x="247" y="56" type="line"/>
      <point x="255" y="55"/>
      <point x="266" y="55"/>
      <point x="277" y="55" type="curve" smooth="yes"/>
      <point x="391" y="55"/>
      <point x="452" y="88"/>
      <point x="452" y="188" type="curve" smooth="yes"/>
      <point x="452" y="299"/>
      <point x="373" y="317"/>
      <point x="290" y="317" type="curve" smooth="yes"/>
      <point x="280" y="317"/>
      <point x="260" y="315"/>
      <point x="247" y="313" type="curve"/>
    </contour>
  </outline>
</glyph>
<glyph name="uni0186" format="2">
  <advance width="636"/>
  <unicode hex="0186"/>
  <outline>
    <contour>
      <point x="37" y="26" type="curve"/>
      <point x="37" y="196" type="line"/>
      <point x="114" y="196" type="line"/>
      <point x="136" y="84" type="line" smooth="yes"/>
      <point x="137" y="79"/>
      <point x="143" y="71"/>
      <point x="149" y="68" type="curve"/>
      <point x="160" y="63"/>
      <point x="196" y="52"/>
      <point x="221" y="52" type="curve" smooth="yes"/>
      <point x="357" y="52"/>
      <point x="442" y="164"/>
      <point x="442" y="337" type="curve" smooth="yes"/>
      <point x="442" y="477"/>
      <point x="380" y="622"/>
      <point x="212" y="622" type="curve" smooth="yes"/>
      <point x="188" y="622"/>
      <point x="165" y="614"/>
      <point x="154" y="609" type="curve"/>
      <point x="149" y="607"/>
      <point x="140" y="599"/>
      <point x="138" y="590" type="curve" smooth="yes"/>
      <point x="115" y="472" type="line"/>
      <point x="37" y="472" type="line"/>
      <point x="37" y="647" type="line"/>
      <point x="96" y="671"/>
      <point x="183" y="687"/>
      <point x="249" y="687" type="curve" smooth="yes"/>
      <point x="454" y="687"/>
      <point x="600" y="541"/>
      <point x="600" y="335" type="curve" smooth="yes"/>
      <point x="600" y="126"/>
      <point x="446" y="-16"/>
      <point x="248" y="-16" type="curve" smooth="yes"/>
      <point x="171" y="-16"/>
      <point x="129" y="-4"/>
    </contour>
  </outline>
</glyph>
<glyph name="uni018D" format="2">
  <advance width="597"/>
  <unicode hex="018D"/>
  <outline>
    <contour>
      <point x="32" y="263" type="curve" smooth="yes"/>
      <point x="32" y="430"/>
      <point x="175" y="500"/>
      <point x="295" y="500" type="curve" smooth="yes"/>
      <point x="426" y="500"/>
      <point x="567" y="450"/>
      <point x="567" y="283" type="curve" smooth="yes"/>
      <point x="567" y="158"/>
      <point x="449" y="96"/>
      <point x="334" y="60" type="curve"/>
      <point x="347" y="51"/>
      <point x="360" y="42"/>
      <point x="373" y="33" type="curve" smooth="yes"/>
      <point x="442" y="-13"/>
      <point x="504" y="-57"/>
      <point x="504" y="-109" type="curve" smooth="yes"/>
      <point x="504" y="-201"/>
      <point x="418" y="-252"/>
      <point x="308" y="-252" type="curve" smooth="yes"/>
      <point x="157" y="-252"/>
      <point x="91" y="-187"/>
      <point x="91" y="-138" type="curve" smooth="yes"/>
      <point x="91" y="-111"/>
      <point x="118" y="-78"/>
      <point x="163" y="-78" type="curve" smooth="yes"/>
      <point x="172" y="-78"/>
      <point x="201" y="-80"/>
      <point x="210" y="-86" type="curve"/>
      <point x="234" y="-165" type="line"/>
      <point x="263" y="-186"/>
      <point x="285" y="-195"/>
      <point x="311" y="-195" type="curve" smooth="yes"/>
      <point x="351" y="-195"/>
      <point x="391" y="-172"/>
      <point x="391" y="-127" type="curve" smooth="yes"/>
      <point x="391" y="-91"/>
      <point x="313" y="-45"/>
      <point x="274" y="-23" type="curve" smooth="yes"/>
      <point x="229" y="2"/>
      <point x="179" y="33"/>
      <point x="136" y="69" type="curve" smooth="yes"/>
      <point x="77" y="119"/>
      <point x="32" y="180"/>
    </contour>
    <contour>
      <point x="182" y="270" type="curve" smooth="yes"/>
      <point x="182" y="196"/>
      <point x="229" y="142"/>
      <point x="287" y="95" type="curve"/>
      <point x="351" y="130"/>
      <point x="417" y="194"/>
      <point x="417" y="284" type="curve" smooth="yes"/>
      <point x="417" y="382"/>
      <point x="378" y="444"/>
      <point x="303" y="444" type="curve" smooth="yes"/>
      <point x="224" y="444"/>
      <point x="182" y="375"/>
    </contour>
  </outline>
</glyph>
<glyph name="uni0193" format="2">
  <advance width="715"/>
  <unicode hex="0193"/>
  <outline>
    <contour>
      <point x="37" y="337" type="curve" smooth="yes"/>
      <point x="37" y="553"/>
      <point x="188" y="687"/>
      <point x="395" y="687" type="curve" smooth="yes"/>
      <point x="438" y="687"/>
      <point x="484" y="684"/>
      <point x="521" y="675" type="curve"/>
      <point x="521" y="788"/>
      <point x="615" y="851"/>
      <point x="721" y="851" type="curve" smooth="yes"/>
      <point x="779" y="851"/>
      <point x="822" y="817"/>
      <point x="822" y="770" type="curve" smooth="yes"/>
      <point x="822" y="735"/>
      <point x="800" y="703"/>
      <point x="773" y="693" type="curve"/>
      <point x="668" y="790" type="line"/>
      <point x="642" y="781"/>
      <point x="620" y="739"/>
      <point x="620" y="684" type="curve" smooth="yes"/>
      <point x="620" y="476" type="line"/>
      <point x="542" y="476" type="line"/>
      <point x="521" y="587" type="line" smooth="yes"/>
      <point x="520" y="593"/>
      <point x="514" y="600"/>
      <point x="507" y="603" type="curve"/>
      <point x="488" y="612"/>
      <point x="449" y="621"/>
      <point x="432" y="621" type="curve" smooth="yes"/>
      <point x="258" y="621"/>
      <point x="192" y="483"/>
      <point x="192" y="341" type="curve" smooth="yes"/>
      <point x="192" y="169"/>
      <point x="279" y="59"/>
      <point x="436" y="59" type="curve" smooth="yes"/>
      <point x="445" y="59"/>
      <point x="470" y="60"/>
      <point x="481" y="61" type="curve"/>
      <point x="481" y="254" type="line" smooth="yes"/>
      <point x="481" y="267"/>
      <point x="470" y="275"/>
      <point x="458" y="276" type="curve" smooth="yes"/>
      <point x="391" y="281" type="line"/>
      <point x="391" y="332" type="line"/>
      <point x="693" y="332" type="line"/>
      <point x="693" y="281" type="line"/>
      <point x="642" y="276" type="line" smooth="yes"/>
      <point x="630" y="275"/>
      <point x="619" y="267"/>
      <point x="619" y="254" type="curve" smooth="yes"/>
      <point x="619" y="31" type="line"/>
      <point x="619" y="31"/>
      <point x="521" y="-16"/>
      <point x="387" y="-16" type="curve" smooth="yes"/>
      <point x="187" y="-16"/>
      <point x="37" y="124"/>
    </contour>
  </outline>
</glyph>
<glyph name="uni0194" format="2">
  <advance width="695"/>
  <unicode hex="0194"/>
  <outline>
    <contour>
      <point x="10" y="620" type="line"/>
      <point x="10" y="671" type="line"/>
      <point x="295" y="671" type="line"/>
      <point x="295" y="620" type="line"/>
      <point x="239" y="613" type="line" smooth="yes"/>
      <point x="230" y="612"/>
      <point x="227" y="606"/>
      <point x="227" y="600" type="curve" smooth="yes"/>
      <point x="227" y="597"/>
      <point x="228" y="594"/>
      <point x="229" y="591" type="curve"/>
      <point x="365" y="346" type="line"/>
      <point x="530" y="592" type="line"/>
      <point x="531" y="594"/>
      <point x="532" y="597"/>
      <point x="532" y="600" type="curve" smooth="yes"/>
      <point x="532" y="606"/>
      <point x="528" y="611"/>
      <point x="516" y="613" type="curve"/>
      <point x="462" y="620" type="line"/>
      <point x="462" y="671" type="line"/>
      <point x="686" y="671" type="line"/>
      <point x="686" y="620" type="line"/>
      <point x="623" y="612" type="line"/>
      <point x="406" y="271" type="line"/>
      <point x="472" y="152" type="line"/>
      <point x="484" y="132"/>
      <point x="487" y="117"/>
      <point x="487" y="88" type="curve" smooth="yes"/>
      <point x="487" y="29"/>
      <point x="426" y="-16"/>
      <point x="345" y="-16" type="curve" smooth="yes"/>
      <point x="258" y="-16"/>
      <point x="209" y="16"/>
      <point x="209" y="73" type="curve" smooth="yes"/>
      <point x="209" y="97"/>
      <point x="217" y="125"/>
      <point x="229" y="143" type="curve" smooth="yes"/>
      <point x="284" y="224" type="line"/>
      <point x="74" y="611" type="line"/>
    </contour>
    <contour>
      <point x="294" y="81" type="curve" smooth="yes"/>
      <point x="294" y="58"/>
      <point x="307" y="44"/>
      <point x="329" y="44" type="curve" smooth="yes"/>
      <point x="344" y="44"/>
      <point x="355" y="58"/>
      <point x="355" y="79" type="curve" smooth="yes"/>
      <point x="355" y="89"/>
      <point x="352" y="98"/>
      <point x="345" y="111" type="curve" smooth="yes"/>
      <point x="326" y="145" type="line"/>
      <point x="304" y="111" type="line" smooth="yes"/>
      <point x="297" y="100"/>
      <point x="294" y="91"/>
    </contour>
  </outline>
</glyph>
<glyph name="uni0195" format="2">
  <advance width="922"/>
  <unicode hex="0195"/>
  <outline>
    <contour>
      <point x="19" y="649" type="line"/>
      <point x="19" y="690" type="line"/>
      <point x="172" y="740" type="line"/>
      <point x="224" y="740" type="line"/>
      <point x="224" y="438" type="line"/>
      <point x="277" y="475"/>
      <point x="349" y="500"/>
      <point x="399" y="500" type="curve" smooth="yes"/>
      <point x="484" y="500"/>
      <point x="536" y="440"/>
      <point x="536" y="343" type="curve" smooth="yes"/>
      <point x="536" y="137" type="line" smooth="yes"/>
      <point x="536" y="91"/>
      <point x="576" y="56"/>
      <point x="628" y="56" type="curve" smooth="yes"/>
      <point x="673" y="56"/>
      <point x="708" y="91"/>
      <point x="708" y="137" type="curve" smooth="yes"/>
      <point x="708" y="409" type="line"/>
      <point x="645" y="409" type="line"/>
      <point x="645" y="450" type="line"/>
      <point x="791" y="500" type="line"/>
      <point x="842" y="500" type="line"/>
      <point x="842" y="144" type="line" smooth="yes"/>
      <point x="842" y="55"/>
      <point x="743" y="-16"/>
      <point x="618" y="-16" type="curve" smooth="yes"/>
      <point x="489" y="-16"/>
      <point x="402" y="49"/>
      <point x="402" y="144" type="curve" smooth="yes"/>
      <point x="402" y="309" type="line" smooth="yes"/>
      <point x="402" y="369"/>
      <point x="369" y="408"/>
      <point x="318" y="408" type="curve" smooth="yes"/>
      <point x="288" y="408"/>
      <point x="254" y="403"/>
      <point x="224" y="395" type="curve"/>
      <point x="224" y="73" type="line" smooth="yes"/>
      <point x="224" y="61"/>
      <point x="234" y="51"/>
      <point x="246" y="50" type="curve" smooth="yes"/>
      <point x="281" y="47" type="line"/>
      <point x="281" y="0" type="line"/>
      <point x="27" y="0" type="line"/>
      <point x="27" y="47" type="line"/>
      <point x="68" y="50" type="line" smooth="yes"/>
      <point x="80" y="51"/>
      <point x="90" y="61"/>
      <point x="90" y="73" type="curve" smooth="yes"/>
      <point x="90" y="649" type="line"/>
    </contour>
  </outline>
</glyph>
<glyph name="uni019C" format="2">
  <advance width="1096"/>
  <unicode hex="019C"/>
  <outline>
    <contour>
      <point x="22" y="620" type="line"/>
      <point x="22" y="671" type="line"/>
      <point x="314" y="671" type="line"/>
      <point x="314" y="620" type="line"/>
      <point x="262" y="615" type="line" smooth="yes"/>
      <point x="250" y="614"/>
      <point x="240" y="606"/>
      <point x="240" y="593" type="curve" smooth="yes"/>
      <point x="240" y="220" type="line" smooth="yes"/>
      <point x="240" y="140"/>
      <point x="299" y="76"/>
      <point x="372" y="76" type="curve" smooth="yes"/>
      <point x="405" y="76"/>
      <point x="447" y="92"/>
      <point x="484" y="118" type="curve"/>
      <point x="477" y="143"/>
      <point x="473" y="171"/>
      <point x="473" y="200" type="curve" smooth="yes"/>
      <point x="473" y="593" type="line" smooth="yes"/>
      <point x="473" y="606"/>
      <point x="463" y="614"/>
      <point x="451" y="615" type="curve" smooth="yes"/>
      <point x="398" y="620" type="line"/>
      <point x="398" y="671" type="line"/>
      <point x="690" y="671" type="line"/>
      <point x="690" y="620" type="line"/>
      <point x="638" y="615" type="line" smooth="yes"/>
      <point x="626" y="614"/>
      <point x="616" y="606"/>
      <point x="616" y="593" type="curve" smooth="yes"/>
      <point x="616" y="220" type="line" smooth="yes"/>
      <point x="616" y="131"/>
      <point x="656" y="76"/>
      <point x="721" y="76" type="curve" smooth="yes"/>
      <point x="762" y="76"/>
      <point x="797" y="94"/>
      <point x="849" y="142" type="curve"/>
      <point x="849" y="593" type="line" smooth="yes"/>
      <point x="849" y="606"/>
      <point x="839" y="614"/>
      <point x="827" y="615" type="curve" smooth="yes"/>
      <point x="774" y="620" type="line"/>
      <point x="774" y="671" type="line"/>
      <point x="1066" y="671" type="line"/>
      <point x="1066" y="620" type="line"/>
      <point x="1014" y="615" type="line" smooth="yes"/>
      <point x="1002" y="614"/>
      <point x="992" y="606"/>
      <point x="992" y="593" type="curve" smooth="yes"/>
      <point x="992" y="70" type="line" smooth="yes"/>
      <point x="992" y="60"/>
      <point x="995" y="57"/>
      <point x="1004" y="56" type="curve"/>
      <point x="1070" y="51" type="line"/>
      <point x="1070" y="0" type="line"/>
      <point x="849" y="0" type="line"/>
      <point x="849" y="56" type="line"/>
      <point x="785" y="-3"/>
      <point x="754" y="-16"/>
      <point x="682" y="-16" type="curve" smooth="yes"/>
      <point x="614" y="-16"/>
      <point x="559" y="8"/>
      <point x="521" y="53" type="curve"/>
      <point x="448" y="3"/>
      <point x="396" y="-16"/>
      <point x="333" y="-16" type="curve" smooth="yes"/>
      <point x="192" y="-16"/>
      <point x="97" y="71"/>
      <point x="97" y="200" type="curve" smooth="yes"/>
      <point x="97" y="593" type="line" smooth="yes"/>
      <point x="97" y="606"/>
      <point x="87" y="614"/>
      <point x="75" y="615" type="curve" smooth="yes"/>
    </contour>
  </outline>
</glyph>
<glyph name="uni019D" format="2">
  <advance width="771"/>
  <unicode hex="019D"/>
  <outline>
    <contour>
      <point x="-85" y="-149" type="curve" smooth="yes"/>
      <point x="-85" y="-111"/>
      <point x="-65" y="-88"/>
      <point x="-22" y="-77" type="curve"/>
      <point x="76" y="-167" type="line"/>
      <point x="114" y="-167"/>
      <point x="132" y="-127"/>
      <point x="132" y="-45" type="curve" smooth="yes"/>
      <point x="132" y="593" type="line" smooth="yes"/>
      <point x="132" y="606"/>
      <point x="122" y="614"/>
      <point x="110" y="615" type="curve" smooth="yes"/>
      <point x="56" y="620" type="line"/>
      <point x="56" y="671" type="line"/>
      <point x="303" y="671" type="line"/>
      <point x="303" y="644" type="line"/>
      <point x="591" y="193" type="line"/>
      <point x="591" y="593" type="line" smooth="yes"/>
      <point x="591" y="606"/>
      <point x="580" y="614"/>
      <point x="568" y="615" type="curve" smooth="yes"/>
      <point x="511" y="620" type="line"/>
      <point x="511" y="671" type="line"/>
      <point x="743" y="671" type="line"/>
      <point x="743" y="620" type="line"/>
      <point x="689" y="615" type="line" smooth="yes"/>
      <point x="678" y="614"/>
      <point x="667" y="606"/>
      <point x="667" y="593" type="curve" smooth="yes"/>
      <point x="667" y="0" type="line"/>
      <point x="545" y="0" type="line"/>
      <point x="208" y="529" type="line"/>
      <point x="211" y="-35" type="line"/>
      <point x="211" y="-166"/>
      <point x="148" y="-231"/>
      <point x="21" y="-231" type="curve" smooth="yes"/>
      <point x="-35" y="-231"/>
      <point x="-85" y="-192"/>
    </contour>
  </outline>
</glyph>
<glyph name="uni01A6" format="2">
  <advance width="648"/>
  <unicode hex="01A6"/>
  <outline>
    <contour>
      <point x="23" y="0" type="line"/>
      <point x="23" y="51" type="line"/>
      <point x="85" y="56" type="line" smooth="yes"/>
      <point x="97" y="57"/>
      <point x="107" y="64"/>
      <point x="107" y="78" type="curve" smooth="yes"/>
      <point x="107" y="590" type="line" smooth="yes"/>
      <point x="107" y="609"/>
      <point x="97" y="615"/>
      <point x="82" y="616" type="curve" smooth="yes"/>
      <point x="23" y="620" type="line"/>
      <point x="23" y="671" type="line"/>
      <point x="335" y="671" type="line"/>
      <point x="335" y="620" type="line"/>
      <point x="273" y="615" type="line" smooth="yes"/>
      <point x="262" y="614"/>
      <point x="250" y="606"/>
      <point x="250" y="593" type="curve" smooth="yes"/>
      <point x="250" y="565" type="line"/>
      <point x="296" y="565" type="line" smooth="yes"/>
      <point x="452" y="565"/>
      <point x="559" y="539"/>
      <point x="559" y="429" type="curve" smooth="yes"/>
      <point x="559" y="342"/>
      <point x="499" y="297"/>
      <point x="404" y="279" type="curve"/>
      <point x="445" y="263"/>
      <point x="480" y="226"/>
      <point x="512" y="163" type="curve" smooth="yes"/>
      <point x="521" y="146"/>
      <point x="529" y="128"/>
      <point x="537" y="109" type="curve" smooth="yes"/>
      <point x="560" y="55"/>
      <point x="575" y="29"/>
      <point x="592" y="11" type="curve" smooth="yes"/>
      <point x="607" y="-5"/>
      <point x="623" y="-13"/>
      <point x="642" y="-13" type="curve" smooth="yes"/>
      <point x="657" y="-13"/>
      <point x="668" y="-12"/>
      <point x="675" y="-11" type="curve"/>
      <point x="675" y="-64" type="line"/>
      <point x="650" y="-73"/>
      <point x="621" y="-78"/>
      <point x="590" y="-78" type="curve" smooth="yes"/>
      <point x="547" y="-78"/>
      <point x="503" y="-65"/>
      <point x="479" y="-38" type="curve" smooth="yes"/>
      <point x="450" y="-5"/>
      <point x="429" y="33"/>
      <point x="415" y="70" type="curve" smooth="yes"/>
      <point x="392" y="128"/>
      <point x="376" y="164"/>
      <point x="358" y="196" type="curve" smooth="yes"/>
      <point x="331" y="244"/>
      <point x="294" y="272"/>
      <point x="258" y="272" type="curve" smooth="yes"/>
      <point x="250" y="272" type="line"/>
      <point x="250" y="77" type="line" smooth="yes"/>
      <point x="250" y="67"/>
      <point x="258" y="57"/>
      <point x="273" y="56" type="curve" smooth="yes"/>
      <point x="335" y="51" type="line"/>
      <point x="335" y="0" type="line"/>
    </contour>
    <contour>
      <point x="250" y="334" type="line"/>
      <point x="262" y="333"/>
      <point x="279" y="332"/>
      <point x="305" y="332" type="curve" smooth="yes"/>
      <point x="361" y="332"/>
      <point x="412" y="367"/>
      <point x="412" y="422" type="curve" smooth="yes"/>
      <point x="412" y="492"/>
      <point x="356" y="505"/>
      <point x="280" y="505" type="curve" smooth="yes"/>
      <point x="250" y="505" type="line"/>
    </contour>
  </outline>
</glyph>
<glyph name="uni01A8" format="2">
  <advance width="457"/>
  <unicode hex="01A8"/>
  <outline>
    <contour>
      <point x="31" y="130" type="curve" smooth="yes"/>
      <point x="31" y="202"/>
      <point x="86" y="249"/>
      <point x="178" y="292" type="curve" smooth="yes"/>
      <point x="196" y="300" type="line" smooth="yes"/>
      <point x="245" y="323"/>
      <point x="292" y="345"/>
      <point x="292" y="377" type="curve" smooth="yes"/>
      <point x="292" y="411"/>
      <point x="265" y="440"/>
      <point x="219" y="440" type="curve" smooth="yes"/>
      <point x="183" y="440"/>
      <point x="154" y="430"/>
      <point x="140" y="415" type="curve"/>
      <point x="126" y="335" type="line"/>
      <point x="64" y="335" type="line"/>
      <point x="69" y="473" type="line"/>
      <point x="90" y="481"/>
      <point x="140" y="500"/>
      <point x="229" y="500" type="curve" smooth="yes"/>
      <point x="343" y="500"/>
      <point x="425" y="453"/>
      <point x="425" y="369" type="curve" smooth="yes"/>
      <point x="425" y="299"/>
      <point x="381" y="258"/>
      <point x="305" y="220" type="curve" smooth="yes"/>
      <point x="213" y="174" type="line" smooth="yes"/>
      <point x="176" y="156"/>
      <point x="159" y="134"/>
      <point x="159" y="111" type="curve" smooth="yes"/>
      <point x="159" y="80"/>
      <point x="178" y="47"/>
      <point x="242" y="47" type="curve" smooth="yes"/>
      <point x="281" y="47"/>
      <point x="326" y="60"/>
      <point x="336" y="75" type="curve"/>
      <point x="351" y="167" type="line"/>
      <point x="414" y="167" type="line"/>
      <point x="409" y="15" type="line"/>
      <point x="380" y="4"/>
      <point x="318" y="-12"/>
      <point x="230" y="-12" type="curve" smooth="yes"/>
      <point x="133" y="-12"/>
      <point x="31" y="19"/>
    </contour>
  </outline>
</glyph>
<glyph name="uni01B2" format="2">
  <advance width="714"/>
  <unicode hex="01B2"/>
  <outline>
    <contour>
      <point x="22" y="630" type="line"/>
      <point x="22" y="671" type="line"/>
      <point x="243" y="671" type="line"/>
      <point x="243" y="229" type="line" smooth="yes"/>
      <point x="243" y="115"/>
      <point x="280" y="71"/>
      <point x="376" y="71" type="curve" smooth="yes"/>
      <point x="509" y="71"/>
      <point x="607" y="191"/>
      <point x="607" y="355" type="curve" smooth="yes"/>
      <point x="607" y="427"/>
      <point x="574" y="503"/>
      <point x="522" y="547" type="curve"/>
      <point x="416" y="547" type="line"/>
      <point x="391" y="563"/>
      <point x="376" y="588"/>
      <point x="376" y="616" type="curve" smooth="yes"/>
      <point x="376" y="662"/>
      <point x="409" y="687"/>
      <point x="470" y="687" type="curve" smooth="yes"/>
      <point x="570" y="687"/>
      <point x="679" y="519"/>
      <point x="679" y="366" type="curve" smooth="yes"/>
      <point x="679" y="130"/>
      <point x="551" y="-16"/>
      <point x="345" y="-16" type="curve" smooth="yes"/>
      <point x="198" y="-16"/>
      <point x="99" y="74"/>
      <point x="99" y="208" type="curve" smooth="yes"/>
      <point x="99" y="604" type="line" smooth="yes"/>
      <point x="99" y="615"/>
      <point x="90" y="624"/>
      <point x="78" y="625" type="curve" smooth="yes"/>
    </contour>
  </outline>
</glyph>
<glyph name="uni01B9" format="2">
  <advance width="560"/>
  <unicode hex="01B9"/>
  <outline>
    <contour>
      <point x="32" y="3" type="curve" smooth="yes"/>
      <point x="32" y="104"/>
      <point x="135" y="201"/>
      <point x="242" y="201" type="curve"/>
      <point x="60" y="442" type="line"/>
      <point x="60" y="488" type="line"/>
      <point x="506" y="488" type="line"/>
      <point x="506" y="264" type="line"/>
      <point x="435" y="264" type="line"/>
      <point x="428" y="353" type="line"/>
      <point x="428" y="363"/>
      <point x="417" y="374"/>
      <point x="408" y="374" type="curve" smooth="yes"/>
      <point x="201" y="374" type="line"/>
      <point x="353" y="170" type="line"/>
      <point x="326" y="144" type="line"/>
      <point x="316" y="150"/>
      <point x="305" y="152"/>
      <point x="287" y="152" type="curve" smooth="yes"/>
      <point x="219" y="152"/>
      <point x="179" y="101"/>
      <point x="179" y="13" type="curve" smooth="yes"/>
      <point x="179" y="-80"/>
      <point x="239" y="-167"/>
      <point x="304" y="-167" type="curve" smooth="yes"/>
      <point x="333" y="-167"/>
      <point x="375" y="-156"/>
      <point x="395" y="-144" type="curve"/>
      <point x="428" y="-32" type="line"/>
      <point x="443" y="-24"/>
      <point x="457" y="-20"/>
      <point x="471" y="-20" type="curve" smooth="yes"/>
      <point x="515" y="-20"/>
      <point x="544" y="-48"/>
      <point x="544" y="-91" type="curve" smooth="yes"/>
      <point x="544" y="-163"/>
      <point x="432" y="-231"/>
      <point x="313" y="-231" type="curve" smooth="yes"/>
      <point x="159" y="-231"/>
      <point x="32" y="-125"/>
    </contour>
  </outline>
</glyph>
<glyph name="uni01BD" format="2">
  <advance width="491"/>
  <unicode hex="01BD"/>
  <outline>
    <contour>
      <point x="24" y="441" type="line"/>
      <point x="24" y="488" type="line"/>
      <point x="429" y="488" type="line"/>
      <point x="429" y="350" type="line"/>
      <point x="378" y="350" type="line"/>
      <point x="366" y="411" type="line"/>
      <point x="363" y="424"/>
      <point x="357" y="430"/>
      <point x="346" y="430" type="curve" smooth="yes"/>
      <point x="217" y="430" type="line" smooth="yes"/>
      <point x="208" y="430"/>
      <point x="200" y="423"/>
      <point x="200" y="415" type="curve" smooth="yes"/>
      <point x="200" y="329" type="line"/>
      <point x="355" y="329"/>
      <point x="461" y="260"/>
      <point x="461" y="158" type="curve" smooth="yes"/>
      <point x="461" y="61"/>
      <point x="359" y="-12"/>
      <point x="223" y="-12" type="curve" smooth="yes"/>
      <point x="106" y="-12"/>
      <point x="34" y="20"/>
      <point x="34" y="72" type="curve" smooth="yes"/>
      <point x="34" y="105"/>
      <point x="59" y="132"/>
      <point x="89" y="132" type="curve" smooth="yes"/>
      <point x="99" y="132"/>
      <point x="112" y="130"/>
      <point x="122" y="128" type="curve"/>
      <point x="176" y="51" type="line"/>
      <point x="191" y="46"/>
      <point x="210" y="42"/>
      <point x="224" y="42" type="curve" smooth="yes"/>
      <point x="277" y="42"/>
      <point x="318" y="84"/>
      <point x="318" y="140" type="curve" smooth="yes"/>
      <point x="318" y="224"/>
      <point x="244" y="265"/>
      <point x="92" y="265" type="curve"/>
      <point x="92" y="415" type="line" smooth="yes"/>
      <point x="92" y="427"/>
      <point x="81" y="438"/>
      <point x="70" y="438" type="curve"/>
    </contour>
  </outline>
</glyph>
<glyph name="uni01C8" format="2">
  <advance width="878"/>
  <unicode hex="01C8"/>
  <outline>
    <contour>
      <point x="27" y="0" type="line"/>
      <point x="27" y="51" type="line"/>
      <point x="82" y="56" type="line" smooth="yes"/>
      <point x="94" y="57"/>
      <point x="104" y="65"/>
      <point x="104" y="78" type="curve" smooth="yes"/>
      <point x="104" y="593" type="line" smooth="yes"/>
      <point x="104" y="606"/>
      <point x="94" y="614"/>
      <point x="82" y="615" type="curve" smooth="yes"/>
      <point x="27" y="620" type="line"/>
      <point x="27" y="671" type="line"/>
      <point x="325" y="671" type="line"/>
      <point x="325" y="620" type="line"/>
      <point x="269" y="615" type="line" smooth="yes"/>
      <point x="257" y="614"/>
      <point x="247" y="606"/>
      <point x="247" y="593" type="curve" smooth="yes"/>
      <point x="247" y="61" type="line"/>
      <point x="421" y="61" type="line" smooth="yes"/>
      <point x="435" y="61"/>
      <point x="444" y="76"/>
      <point x="445" y="84" type="curve" smooth="yes"/>
      <point x="458" y="199" type="line"/>
      <point x="538" y="199" type="line"/>
      <point x="538" y="0" type="line"/>
    </contour>
    <contour>
      <point x="464" y="-155" type="curve" smooth="yes"/>
      <point x="464" y="-119"/>
      <point x="494" y="-91"/>
      <point x="528" y="-88" type="curve"/>
      <point x="626" y="-187" type="line"/>
      <point x="654" y="-135"/>
      <point x="654" y="-23"/>
      <point x="654" y="-5" type="curve" smooth="yes"/>
      <point x="654" y="409" type="line"/>
      <point x="583" y="409" type="line"/>
      <point x="583" y="450" type="line"/>
      <point x="736" y="500" type="line"/>
      <point x="787" y="500" type="line"/>
      <point x="787" y="47" type="line" smooth="yes"/>
      <point x="787" y="-102"/>
      <point x="718" y="-231"/>
      <point x="564" y="-231" type="curve" smooth="yes"/>
      <point x="510" y="-231"/>
      <point x="464" y="-204"/>
    </contour>
    <contour>
      <point x="642" y="663" type="curve" smooth="yes"/>
      <point x="642" y="706"/>
      <point x="677" y="740"/>
      <point x="720" y="740" type="curve" smooth="yes"/>
      <point x="763" y="740"/>
      <point x="797" y="706"/>
      <point x="797" y="663" type="curve" smooth="yes"/>
      <point x="797" y="620"/>
      <point x="763" y="585"/>
      <point x="720" y="585" type="curve" smooth="yes"/>
      <point x="677" y="585"/>
      <point x="642" y="620"/>
    </contour>
  </outline>
</glyph>
<glyph name="uni01CB" format="2">
  <advance width="1068"/>
  <unicode hex="01CB"/>
  <outline>
    <contour>
      <point x="28" y="620" type="line"/>
      <point x="28" y="671" type="line"/>
      <point x="275" y="671" type="line"/>
      <point x="275" y="644" type="line"/>
      <point x="563" y="193" type="line"/>
      <point x="563" y="593" type="line" smooth="yes"/>
      <point x="563" y="606"/>
      <point x="552" y="614"/>
      <point x="540" y="615" type="curve" smooth="yes"/>
      <point x="483" y="620" type="line"/>
      <point x="483" y="671" type="line"/>
      <point x="715" y="671" type="line"/>
      <point x="715" y="620" type="line"/>
      <point x="661" y="615" type="line" smooth="yes"/>
      <point x="650" y="614"/>
      <point x="639" y="606"/>
      <point x="639" y="593" type="curve" smooth="yes"/>
      <point x="639" y="0" type="line"/>
      <point x="517" y="0" type="line"/>
      <point x="180" y="529" type="line"/>
      <point x="180" y="78" type="line" smooth="yes"/>
      <point x="180" y="65"/>
      <point x="191" y="57"/>
      <point x="202" y="56" type="curve" smooth="yes"/>
      <point x="258" y="51" type="line"/>
      <point x="258" y="0" type="line"/>
      <point x="27" y="0" type="line"/>
      <point x="27" y="51" type="line"/>
      <point x="82" y="56" type="line" smooth="yes"/>
      <point x="94" y="57"/>
      <point x="104" y="65"/>
      <point x="104" y="78" type="curve" smooth="yes"/>
      <point x="104" y="593" type="line" smooth="yes"/>
      <point x="104" y="606"/>
      <point x="94" y="614"/>
      <point x="82" y="615" type="curve" smooth="yes"/>
    </contour>
    <contour>
      <point x="654" y="-155" type="curve" smooth="yes"/>
      <point x="654" y="-119"/>
      <point x="684" y="-91"/>
      <point x="718" y="-88" type="curve"/>
      <point x="816" y="-187" type="line"/>
      <point x="844" y="-135"/>
      <point x="844" y="-23"/>
      <point x="844" y="-5" type="curve" smooth="yes"/>
      <point x="844" y="409" type="line"/>
      <point x="773" y="409" type="line"/>
      <point x="773" y="450" type="line"/>
      <point x="926" y="500" type="line"/>
      <point x="977" y="500" type="line"/>
      <point x="977" y="47" type="line" smooth="yes"/>
      <point x="977" y="-102"/>
      <point x="908" y="-231"/>
      <point x="754" y="-231" type="curve" smooth="yes"/>
      <point x="700" y="-231"/>
      <point x="654" y="-204"/>
    </contour>
    <contour>
      <point x="832" y="663" type="curve" smooth="yes"/>
      <point x="832" y="706"/>
      <point x="867" y="740"/>
      <point x="910" y="740" type="curve" smooth="yes"/>
      <point x="953" y="740"/>
      <point x="987" y="706"/>
      <point x="987" y="663" type="curve" smooth="yes"/>
      <point x="987" y="620"/>
      <point x="953" y="585"/>
      <point x="910" y="585" type="curve" smooth="yes"/>
      <point x="867" y="585"/>
      <point x="832" y="620"/>
    </contour>
  </outline>
</glyph>
<glyph name="uni01D2" format="2">
  <advance width="582"/>
  <unicode hex="01D2"/>
  <outline>
    <contour>
      <point x="30" y="242" type="curve" smooth="yes"/>
      <point x="30" y="406"/>
      <point x="139" y="500"/>
      <point x="294" y="500" type="curve" smooth="yes"/>
      <point x="459" y="500"/>
      <point x="552" y="393"/>
      <point x="552" y="241" type="curve" smooth="yes"/>
      <point x="552" y="92"/>
      <point x="453" y="-12"/>
      <point x="287" y="-12" type="curve" smooth="yes"/>
      <point x="135" y="-12"/>
      <point x="30" y="84"/>
    </contour>
    <contour>
      <point x="104" y="731" type="line"/>
      <point x="187" y="731" type="line"/>
      <point x="274" y="637" type="line"/>
      <point x="361" y="731" type="line"/>
      <point x="444" y="731" type="line"/>
      <point x="333" y="560" type="line"/>
      <point x="215" y="560" type="line"/>
    </contour>
    <contour>
      <point x="180" y="246" type="curve" smooth="yes"/>
      <point x="180" y="160"/>
      <point x="198" y="45"/>
      <point x="291" y="45" type="curve" smooth="yes"/>
      <point x="382" y="45"/>
      <point x="402" y="153"/>
      <point x="402" y="242" type="curve" smooth="yes"/>
      <point x="402" y="327"/>
      <point x="382" y="443"/>
      <point x="290" y="443" type="curve" smooth="yes"/>
      <point x="200" y="443"/>
      <point x="180" y="332"/>
    </contour>
  </outline>
</glyph>
<glyph name="uni01DB" format="2">
  <advance width="729"/>
  <unicode hex="01DB"/>
  <outline>
    <contour>
      <point x="22" y="620" type="line"/>
      <point x="22" y="671" type="line"/>
      <point x="318" y="671" type="line"/>
      <point x="318" y="620" type="line"/>
      <point x="264" y="615" type="line" smooth="yes"/>
      <point x="253" y="614"/>
      <point x="242" y="606"/>
      <point x="242" y="593" type="curve" smooth="yes"/>
      <point x="242" y="246" type="line" smooth="yes"/>
      <point x="242" y="121"/>
      <point x="294" y="67"/>
      <point x="404" y="67" type="curve" smooth="yes"/>
      <point x="509" y="67"/>
      <point x="552" y="138"/>
      <point x="552" y="246" type="curve" smooth="yes"/>
      <point x="552" y="593" type="line" smooth="yes"/>
      <point x="552" y="606"/>
      <point x="542" y="614"/>
      <point x="530" y="615" type="curve" smooth="yes"/>
      <point x="473" y="620" type="line"/>
      <point x="473" y="671" type="line"/>
      <point x="703" y="671" type="line"/>
      <point x="703" y="620" type="line"/>
      <point x="650" y="615" type="line" smooth="yes"/>
      <point x="639" y="614"/>
      <point x="628" y="606"/>
      <point x="628" y="593" type="curve" smooth="yes"/>
      <point x="628" y="254" type="line" smooth="yes"/>
      <point x="628" y="57"/>
      <point x="541" y="-16"/>
      <point x="354" y="-16" type="curve" smooth="yes"/>
      <point x="182" y="-16"/>
      <point x="99" y="78"/>
      <point x="99" y="254" type="curve" smooth="yes"/>
      <point x="99" y="593" type="line" smooth="yes"/>
      <point x="99" y="606"/>
      <point x="88" y="614"/>
      <point x="76" y="615" type="curve" smooth="yes"/>
    </contour>
    <contour>
      <point x="188" y="816" type="curve" smooth="yes"/>
      <point x="188" y="854"/>
      <point x="220" y="885"/>
      <point x="258" y="885" type="curve" smooth="yes"/>
      <point x="296" y="885"/>
      <point x="326" y="854"/>
      <point x="326" y="816" type="curve" smooth="yes"/>
      <point x="326" y="778"/>
      <point x="296" y="747"/>
      <point x="258" y="747" type="curve" smooth="yes"/>
      <point x="220" y="747"/>
      <point x="188" y="778"/>
    </contour>
    <contour>
      <point x="398" y="816" type="curve" smooth="yes"/>
      <point x="398" y="854"/>
      <point x="430" y="885"/>
      <point x="468" y="885" type="curve" smooth="yes"/>
      <point x="506" y="885"/>
      <point x="536" y="854"/>
      <point x="536" y="816" type="curve" smooth="yes"/>
      <point x="536" y="778"/>
      <point x="506" y="747"/>
      <point x="468" y="747" type="curve" smooth="yes"/>
      <point x="430" y="747"/>
      <point x="398" y="778"/>
    </contour>
    <contour>
      <point x="141" y="1075" type="curve" smooth="yes"/>
      <point x="141" y="1099"/>
      <point x="155" y="1128"/>
      <point x="198" y="1128" type="curve" smooth="yes"/>
      <point x="225" y="1128"/>
      <point x="238" y="1121"/>
      <point x="261" y="1096" type="curve" smooth="yes"/>
      <point x="398" y="945" type="line"/>
      <point x="328" y="945" type="line"/>
      <point x="166" y="1033" type="line" smooth="yes"/>
      <point x="152" y="1041"/>
      <point x="141" y="1062"/>
    </contour>
  </outline>
</glyph>
<glyph name="uni01EA" format="2">
  <advance width="755"/>
  <unicode hex="01EA"/>
  <outline>
    <contour>
      <point x="37" y="340" type="curve" smooth="yes"/>
      <point x="37" y="537"/>
      <point x="162" y="687"/>
      <point x="375" y="687" type="curve" smooth="yes"/>
      <point x="583" y="687"/>
      <point x="720" y="526"/>
      <point x="720" y="332" type="curve" smooth="yes"/>
      <point x="720" y="141"/>
      <point x="585" y="-16"/>
      <point x="384" y="-16" type="curve" smooth="yes"/>
      <point x="184" y="-16"/>
      <point x="37" y="113"/>
    </contour>
    <contour>
      <point x="197" y="337" type="curve" smooth="yes"/>
      <point x="197" y="195"/>
      <point x="251" y="47"/>
      <point x="374" y="47" type="curve" smooth="yes"/>
      <point x="508" y="47"/>
      <point x="559" y="199"/>
      <point x="559" y="328" type="curve" smooth="yes"/>
      <point x="559" y="485"/>
      <point x="500" y="620"/>
      <point x="384" y="620" type="curve" smooth="yes"/>
      <point x="245" y="620"/>
      <point x="197" y="471"/>
    </contour>
    <contour>
      <point x="272" y="-134" type="curve" smooth="yes"/>
      <point x="272" y="-92"/>
      <point x="302" y="-44"/>
      <point x="352" y="-9" type="curve"/>
      <point x="416" y="-9" type="line"/>
      <point x="374" y="-41"/>
      <point x="352" y="-73"/>
      <point x="352" y="-108" type="curve" smooth="yes"/>
      <point x="352" y="-140"/>
      <point x="372" y="-160"/>
      <point x="402" y="-160" type="curve" smooth="yes"/>
      <point x="418" y="-160"/>
      <point x="440" y="-151"/>
      <point x="450" y="-141" type="curve"/>
      <point x="478" y="-187" type="line"/>
      <point x="450" y="-208"/>
      <point x="419" y="-218"/>
      <point x="382" y="-218" type="curve" smooth="yes"/>
      <point x="315" y="-218"/>
      <point x="272" y="-184"/>
    </contour>
  </outline>
</glyph>
<glyph name="uni0200" format="2">
  <advance width="686"/>
  <unicode hex="0200"/>
  <outline>
    <contour>
      <point x="5" y="0" type="line"/>
      <point x="5" y="51" type="line"/>
      <point x="61" y="59" type="line"/>
      <point x="285" y="687" type="line"/>
      <point x="399" y="687" type="line"/>
      <point x="621" y="77" type="line"/>
      <point x="626" y="65"/>
      <point x="629" y="61"/>
      <point x="643" y="58" type="curve"/>
      <point x="681" y="51" type="line"/>
      <point x="681" y="0" type="line"/>
      <point x="405" y="0" type="line"/>
      <point x="405" y="51" type="line"/>
      <point x="464" y="58" type="line"/>
      <point x="469" y="59"/>
      <point x="474" y="65"/>
      <point x="474" y="71" type="curve"/>
      <point x="474" y="72"/>
      <point x="474" y="74"/>
      <point x="473" y="75" type="curve"/>
      <point x="419" y="234" type="line"/>
      <point x="205" y="234" type="line"/>
      <point x="150" y="79" type="line"/>
      <point x="149" y="78"/>
      <point x="149" y="76"/>
      <point x="149" y="75" type="curve"/>
      <point x="149" y="67"/>
      <point x="158" y="59"/>
      <point x="164" y="58" type="curve"/>
      <point x="220" y="51" type="line"/>
      <point x="220" y="0" type="line"/>
    </contour>
    <contour>
      <point x="12" y="877" type="curve" smooth="yes"/>
      <point x="12" y="909"/>
      <point x="35" y="930"/>
      <point x="69" y="930" type="curve" smooth="yes"/>
      <point x="96" y="930"/>
      <point x="110" y="923"/>
      <point x="133" y="898" type="curve" smooth="yes"/>
      <point x="269" y="747" type="line"/>
      <point x="200" y="747" type="line"/>
      <point x="38" y="835" type="line"/>
      <point x="25" y="843"/>
      <point x="12" y="863"/>
    </contour>
    <contour>
      <point x="224" y="293" type="line"/>
      <point x="394" y="293" type="line"/>
      <point x="308" y="533" type="line"/>
    </contour>
    <contour>
      <point x="227" y="877" type="curve" smooth="yes"/>
      <point x="227" y="909"/>
      <point x="250" y="930"/>
      <point x="284" y="930" type="curve" smooth="yes"/>
      <point x="311" y="930"/>
      <point x="325" y="923"/>
      <point x="347" y="898" type="curve" smooth="yes"/>
      <point x="484" y="747" type="line"/>
      <point x="414" y="747" type="line"/>
      <point x="253" y="835" type="line"/>
      <point x="239" y="842"/>
      <point x="227" y="862"/>
    </contour>
  </outline>
</glyph>
<glyph name="uni0204" format="2">
  <advance width="598"/>
  <unicode hex="0204"/>
  <outline>
    <contour>
      <point x="-49" y="877" type="curve" smooth="yes"/>
      <point x="-49" y="909"/>
      <point x="-26" y="930"/>
      <point x="8" y="930" type="curve" smooth="yes"/>
      <point x="35" y="930"/>
      <point x="49" y="923"/>
      <point x="72" y="898" type="curve" smooth="yes"/>
      <point x="208" y="747" type="line"/>
      <point x="139" y="747" type="line"/>
      <point x="-23" y="835" type="line"/>
      <point x="-36" y="843"/>
      <point x="-49" y="863"/>
    </contour>
    <contour>
      <point x="26" y="0" type="line"/>
      <point x="26" y="51" type="line"/>
      <point x="81" y="56" type="line" smooth="yes"/>
      <point x="93" y="57"/>
      <point x="104" y="65"/>
      <point x="104" y="78" type="curve" smooth="yes"/>
      <point x="104" y="593" type="line" smooth="yes"/>
      <point x="104" y="606"/>
      <point x="93" y="614"/>
      <point x="81" y="615" type="curve" smooth="yes"/>
      <point x="26" y="620" type="line"/>
      <point x="26" y="671" type="line"/>
      <point x="536" y="671" type="line"/>
      <point x="536" y="511" type="line"/>
      <point x="464" y="511" type="line"/>
      <point x="448" y="594" type="line" smooth="yes"/>
      <point x="446" y="604"/>
      <point x="439" y="613"/>
      <point x="430" y="613" type="curve" smooth="yes"/>
      <point x="244" y="613" type="line"/>
      <point x="244" y="378" type="line"/>
      <point x="363" y="378" type="line" smooth="yes"/>
      <point x="372" y="378"/>
      <point x="379" y="389"/>
      <point x="380" y="396" type="curve" smooth="yes"/>
      <point x="389" y="464" type="line"/>
      <point x="451" y="464" type="line"/>
      <point x="451" y="229" type="line"/>
      <point x="389" y="229" type="line"/>
      <point x="380" y="297" type="line" smooth="yes"/>
      <point x="379" y="304"/>
      <point x="372" y="315"/>
      <point x="363" y="315" type="curve" smooth="yes"/>
      <point x="244" y="315" type="line"/>
      <point x="244" y="60" type="line"/>
      <point x="462" y="60" type="line" smooth="yes"/>
      <point x="470" y="60"/>
      <point x="479" y="72"/>
      <point x="480" y="79" type="curve" smooth="yes"/>
      <point x="495" y="183" type="line"/>
      <point x="568" y="183" type="line"/>
      <point x="568" y="0" type="line"/>
    </contour>
    <contour>
      <point x="166" y="877" type="curve" smooth="yes"/>
      <point x="166" y="909"/>
      <point x="189" y="930"/>
      <point x="223" y="930" type="curve" smooth="yes"/>
      <point x="250" y="930"/>
      <point x="264" y="923"/>
      <point x="286" y="898" type="curve" smooth="yes"/>
      <point x="423" y="747" type="line"/>
      <point x="353" y="747" type="line"/>
      <point x="192" y="835" type="line"/>
      <point x="178" y="842"/>
      <point x="166" y="862"/>
    </contour>
  </outline>
</glyph>
<glyph name="uni0209" format="2">
  <advance width="333"/>
  <unicode hex="0209"/>
  <outline>
    <contour>
      <point x="-164" y="690" type="curve" smooth="yes"/>
      <point x="-164" y="722"/>
      <point x="-141" y="743"/>
      <point x="-107" y="743" type="curve" smooth="yes"/>
      <point x="-80" y="743"/>
      <point x="-66" y="736"/>
      <point x="-43" y="711" type="curve" smooth="yes"/>
      <point x="93" y="560" type="line"/>
      <point x="24" y="560" type="line"/>
      <point x="-138" y="648" type="line"/>
      <point x="-151" y="656"/>
      <point x="-164" y="676"/>
    </contour>
    <contour>
      <point x="32" y="0" type="line"/>
      <point x="32" y="47" type="line"/>
      <point x="78" y="50" type="line" smooth="yes"/>
      <point x="90" y="51"/>
      <point x="100" y="61"/>
      <point x="100" y="73" type="curve" smooth="yes"/>
      <point x="100" y="409" type="line"/>
      <point x="36" y="409" type="line"/>
      <point x="36" y="450" type="line"/>
      <point x="182" y="500" type="line"/>
      <point x="233" y="500" type="line"/>
      <point x="233" y="73" type="line" smooth="yes"/>
      <point x="233" y="61"/>
      <point x="244" y="51"/>
      <point x="256" y="50" type="curve" smooth="yes"/>
      <point x="304" y="47" type="line"/>
      <point x="304" y="0" type="line"/>
    </contour>
    <contour>
      <point x="51" y="690" type="curve" smooth="yes"/>
      <point x="51" y="722"/>
      <point x="74" y="743"/>
      <point x="108" y="743" type="curve" smooth="yes"/>
      <point x="135" y="743"/>
      <point x="149" y="736"/>
      <point x="171" y="711" type="curve" smooth="yes"/>
      <point x="308" y="560" type="line"/>
      <point x="238" y="560" type="line"/>
      <point x="77" y="648" type="line"/>
      <point x="63" y="655"/>
      <point x="51" y="675"/>
    </contour>
  </outline>
</glyph>
<glyph name="uni0212" format="2">
  <advance width="704"/>
  <unicode hex="0212"/>
  <outline>
    <contour>
      <point x="28" y="0" type="line"/>
      <point x="28" y="51" type="line"/>
      <point x="81" y="56" type="line" smooth="yes"/>
      <point x="95" y="57"/>
      <point x="104" y="66"/>
      <point x="104" y="78" type="curve" smooth="yes"/>
      <point x="104" y="593" type="line" smooth="yes"/>
      <point x="104" y="605"/>
      <point x="95" y="614"/>
      <point x="81" y="615" type="curve" smooth="yes"/>
      <point x="28" y="620" type="line"/>
      <point x="28" y="671" type="line"/>
      <point x="360" y="671" type="line" smooth="yes"/>
      <point x="490" y="671"/>
      <point x="578" y="604"/>
      <point x="578" y="505" type="curve" smooth="yes"/>
      <point x="578" y="414"/>
      <point x="510" y="346"/>
      <point x="404" y="330" type="curve"/>
      <point x="483" y="315"/>
      <point x="521" y="273"/>
      <point x="552" y="170" type="curve" smooth="yes"/>
      <point x="579" y="78"/>
      <point x="614" y="51"/>
      <point x="704" y="51" type="curve"/>
      <point x="704" y="0" type="line"/>
      <point x="680" y="-3"/>
      <point x="664" y="-5"/>
      <point x="650" y="-9" type="curve"/>
      <point x="634" y="-13"/>
      <point x="619" y="-16"/>
      <point x="605" y="-16" type="curve" smooth="yes"/>
      <point x="502" y="-16"/>
      <point x="450" y="30"/>
      <point x="407" y="155" type="curve" smooth="yes"/>
      <point x="372" y="259"/>
      <point x="337" y="294"/>
      <point x="267" y="294" type="curve" smooth="yes"/>
      <point x="263.162" y="294"/>
      <point x="250.011" y="294"/>
      <point x="247" y="294" type="curve"/>
      <point x="247" y="78" type="line" smooth="yes"/>
      <point x="247" y="66"/>
      <point x="256" y="57"/>
      <point x="269" y="56" type="curve" smooth="yes"/>
      <point x="324" y="51" type="line"/>
      <point x="324" y="0" type="line"/>
    </contour>
    <contour>
      <point x="118" y="747" type="line"/>
      <point x="118" y="837"/>
      <point x="169" y="910"/>
      <point x="274" y="910" type="curve" smooth="yes"/>
      <point x="379" y="910"/>
      <point x="430" y="837"/>
      <point x="430" y="747" type="curve"/>
      <point x="378" y="747" type="line"/>
      <point x="365" y="807"/>
      <point x="319" y="828"/>
      <point x="274" y="828" type="curve" smooth="yes"/>
      <point x="230" y="828"/>
      <point x="183" y="807"/>
      <point x="170" y="747" type="curve"/>
    </contour>
    <contour>
      <point x="247" y="353" type="line"/>
      <point x="280" y="353" type="line" smooth="yes"/>
      <point x="375" y="353"/>
      <point x="428" y="401"/>
      <point x="428" y="486" type="curve" smooth="yes"/>
      <point x="428" y="569"/>
      <point x="378" y="611"/>
      <point x="279" y="611" type="curve" smooth="yes"/>
      <point x="247" y="611" type="line"/>
    </contour>
  </outline>
</glyph>
<glyph name="uni0216" format="2">
  <advance width="729"/>
  <unicode hex="0216"/>
  <outline>
    <contour>
      <point x="22" y="620" type="line"/>
      <point x="22" y="671" type="line"/>
      <point x="318" y="671" type="line"/>
      <point x="318" y="620" type="line"/>
      <point x="264" y="615" type="line" smooth="yes"/>
      <point x="253" y="614"/>
      <point x="242" y="606"/>
      <point x="242" y="593" type="curve" smooth="yes"/>
      <point x="242" y="246" type="line" smooth="yes"/>
      <point x="242" y="121"/>
      <point x="294" y="67"/>
      <point x="404" y="67" type="curve" smooth="yes"/>
      <point x="509" y="67"/>
      <point x="552" y="138"/>
      <point x="552" y="246" type="curve" smooth="yes"/>
      <point x="552" y="593" type="line" smooth="yes"/>
      <point x="552" y="606"/>
      <point x="542" y="614"/>
      <point x="530" y="615" type="curve" smooth="yes"/>
      <point x="473" y="620" type="line"/>
      <point x="473" y="671" type="line"/>
      <point x="703" y="671" type="line"/>
      <point x="703" y="620" type="line"/>
      <point x="650" y="615" type="line" smooth="yes"/>
      <point x="639" y="614"/>
      <point x="628" y="606"/>
      <point x="628" y="593" type="curve" smooth="yes"/>
      <point x="628" y="254" type="line" smooth="yes"/>
      <point x="628" y="57"/>
      <point x="541" y="-16"/>
      <point x="354" y="-16" type="curve" smooth="yes"/>
      <point x="182" y="-16"/>
      <point x="99" y="78"/>
      <point x="99" y="254" type="curve" smooth="yes"/>
      <point x="99" y="593" type="line" smooth="yes"/>
      <point x="99" y="606"/>
      <point x="88" y="614"/>
      <point x="76" y="615" type="curve" smooth="yes"/>
    </contour>
    <contour>
      <point x="206" y="747" type="line"/>
      <point x="206" y="837"/>
      <point x="257" y="910"/>
      <point x="362" y="910" type="curve" smooth="yes"/>
      <point x="467" y="910"/>
      <point x="519" y="837"/>
      <point x="519" y="747" type="curve"/>
      <point x="466" y="747" type="line"/>
      <point x="453" y="807"/>
      <point x="407" y="828"/>
      <point x="362" y="828" type="curve" smooth="yes"/>
      <point x="318" y="828"/>
      <point x="271" y="807"/>
      <point x="258" y="747" type="curve"/>
    </contour>
  </outline>
</glyph>
<glyph name="uni021B" format="2">
  <advance width="375"/>
  <unicode hex="021B"/>
  <outline>
    <contour>
      <point x="24" y="424" type="line"/>
      <point x="24" y="464" type="line"/>
      <point x="101" y="510" type="line"/>
      <point x="155" y="616" type="line"/>
      <point x="224" y="616" type="line"/>
      <point x="224" y="488" type="line"/>
      <point x="363" y="488" type="line"/>
      <point x="363" y="424" type="line"/>
      <point x="224" y="424" type="line"/>
      <point x="224" y="152" type="line" smooth="yes"/>
      <point x="224" y="88"/>
      <point x="253" y="65"/>
      <point x="306" y="65" type="curve" smooth="yes"/>
      <point x="338" y="65"/>
      <point x="371" y="72"/>
      <point x="371" y="72" type="curve"/>
      <point x="371" y="22" type="line"/>
      <point x="371" y="22"/>
      <point x="292" y="-12"/>
      <point x="211" y="-12" type="curve" smooth="yes"/>
      <point x="122" y="-12"/>
      <point x="90" y="27"/>
      <point x="90" y="111" type="curve" smooth="yes"/>
      <point x="90" y="424" type="line"/>
    </contour>
    <contour>
      <point x="134" y="-130" type="curve" smooth="yes"/>
      <point x="134" y="-91"/>
      <point x="167" y="-72"/>
      <point x="202" y="-72" type="curve" smooth="yes"/>
      <point x="253" y="-72"/>
      <point x="288" y="-110"/>
      <point x="288" y="-157" type="curve" smooth="yes"/>
      <point x="288" y="-225"/>
      <point x="224" y="-273"/>
      <point x="147" y="-288" type="curve"/>
      <point x="147" y="-248" type="line"/>
      <point x="186" y="-237"/>
      <point x="217" y="-206"/>
      <point x="217" y="-174" type="curve"/>
      <point x="154" y="-174" type="line"/>
      <point x="141" y="-162"/>
      <point x="134" y="-146"/>
    </contour>
  </outline>
</glyph>
<glyph name="uni0224" format="2">
  <advance width="581"/>
  <unicode hex="0224"/>
  <outline>
    <contour>
      <point x="37" y="0" type="line"/>
      <point x="37" y="59" type="line"/>
      <point x="380" y="610" type="line"/>
      <point x="159" y="610" type="line" smooth="yes"/>
      <point x="151" y="610"/>
      <point x="146" y="606"/>
      <point x="145" y="598" type="curve"/>
      <point x="127" y="489" type="line"/>
      <point x="54" y="489" type="line"/>
      <point x="54" y="671" type="line"/>
      <point x="539" y="671" type="line"/>
      <point x="539" y="612" type="line"/>
      <point x="197" y="62" type="line"/>
      <point x="563" y="62" type="line"/>
      <point x="571" y="52"/>
      <point x="577" y="28"/>
      <point x="577" y="3" type="curve" smooth="yes"/>
      <point x="577" y="-44"/>
      <point x="534" y="-118"/>
      <point x="483" y="-160" type="curve"/>
      <point x="441" y="-160" type="line"/>
      <point x="462" y="-135"/>
      <point x="477" y="-86"/>
      <point x="477" y="-44" type="curve" smooth="yes"/>
      <point x="477" y="-28"/>
      <point x="473" y="-10"/>
      <point x="467" y="0" type="curve"/>
    </contour>
  </outline>
</glyph>
<glyph name="uni0225" format="2">
  <advance width="491"/>
  <unicode hex="0225"/>
  <outline>
    <contour>
      <point x="32" y="0" type="line"/>
      <point x="32" y="65" type="line"/>
      <point x="288" y="431" type="line"/>
      <point x="137" y="431" type="line" smooth="yes"/>
      <point x="128" y="431"/>
      <point x="118" y="420"/>
      <point x="118" y="410" type="curve"/>
      <point x="111" y="333" type="line"/>
      <point x="40" y="333" type="line"/>
      <point x="40" y="488" type="line"/>
      <point x="445" y="488" type="line"/>
      <point x="445" y="432" type="line"/>
      <point x="183" y="59" type="line"/>
      <point x="471" y="59" type="line"/>
      <point x="479" y="45"/>
      <point x="484" y="23"/>
      <point x="484" y="0" type="curve" smooth="yes"/>
      <point x="484" y="-42"/>
      <point x="445" y="-108"/>
      <point x="398" y="-144" type="curve"/>
      <point x="356" y="-144" type="line"/>
      <point x="379" y="-119"/>
      <point x="394" y="-80"/>
      <point x="394" y="-44" type="curve" smooth="yes"/>
      <point x="394" y="-23"/>
      <point x="391" y="-11"/>
      <point x="384" y="0" type="curve"/>
    </contour>
  </outline>
</glyph>
<glyph name="uni022C" format="2">
  <advance width="755"/>
  <unicode hex="022C"/>
  <outline>
    <contour>
      <point x="197" y="337" type="curve" smooth="yes"/>
      <point x="197" y="195"/>
      <point x="251" y="47"/>
      <point x="374" y="47" type="curve" smooth="yes"/>
      <point x="508" y="47"/>
      <point x="559" y="199"/>
      <point x="559" y="328" type="curve" smooth="yes"/>
      <point x="559" y="485"/>
      <point x="500" y="620"/>
      <point x="384" y="620" type="curve" smooth="yes"/>
      <point x="245" y="620"/>
      <point x="197" y="471"/>
    </contour>
    <contour>
      <point x="37" y="340" type="curve" smooth="yes"/>
      <point x="37" y="537"/>
      <point x="162" y="687"/>
      <point x="375" y="687" type="curve" smooth="yes"/>
      <point x="583" y="687"/>
      <point x="720" y="526"/>
      <point x="720" y="332" type="curve" smooth="yes"/>
      <point x="720" y="141"/>
      <point x="585" y="-16"/>
      <point x="384" y="-16" type="curve" smooth="yes"/>
      <point x="184" y="-16"/>
      <point x="37" y="113"/>
    </contour>
    <contour>
      <point x="185" y="931" type="line"/>
      <point x="185" y="1012" type="line"/>
      <point x="525" y="1012" type="line"/>
      <point x="525" y="931" type="line"/>
    </contour>
    <contour>
      <point x="190" y="747" type="line"/>
      <point x="207" y="816"/>
      <point x="243" y="871"/>
      <point x="310" y="871" type="curve" smooth="yes"/>
      <point x="336" y="871"/>
      <point x="352" y="861"/>
      <point x="372" y="848" type="curve" smooth="yes"/>
      <point x="396.141" y="832.308"/>
      <point x="412" y="824"/>
      <point x="442" y="824" type="curve" smooth="yes"/>
      <point x="463" y="824"/>
      <point x="483" y="845"/>
      <point x="486" y="871" type="curve"/>
      <point x="540" y="871" type="line"/>
      <point x="523" y="802"/>
      <point x="488" y="747"/>
      <point x="420" y="747" type="curve" smooth="yes"/>
      <point x="395" y="747"/>
      <point x="376" y="758"/>
      <point x="358" y="770" type="curve" smooth="yes"/>
      <point x="338" y="783"/>
      <point x="318" y="795"/>
      <point x="288" y="795" type="curve" smooth="yes"/>
      <point x="266" y="795"/>
      <point x="247" y="774"/>
      <point x="244" y="747" type="curve"/>
    </contour>
  </outline>
</glyph>
<glyph name="uni022D" format="2">
  <advance width="582"/>
  <unicode hex="022D"/>
  <outline>
    <contour>
      <point x="30" y="242" type="curve" smooth="yes"/>
      <point x="30" y="406"/>
      <point x="139" y="500"/>
      <point x="294" y="500" type="curve" smooth="yes"/>
      <point x="459" y="500"/>
      <point x="552" y="393"/>
      <point x="552" y="241" type="curve" smooth="yes"/>
      <point x="552" y="92"/>
      <point x="453" y="-12"/>
      <point x="287" y="-12" type="curve" smooth="yes"/>
      <point x="135" y="-12"/>
      <point x="30" y="84"/>
    </contour>
    <contour>
      <point x="104" y="744" type="line"/>
      <point x="104" y="825" type="line"/>
      <point x="444" y="825" type="line"/>
      <point x="444" y="744" type="line"/>
    </contour>
    <contour>
      <point x="180" y="246" type="curve" smooth="yes"/>
      <point x="180" y="160"/>
      <point x="198" y="45"/>
      <point x="291" y="45" type="curve" smooth="yes"/>
      <point x="382" y="45"/>
      <point x="402" y="153"/>
      <point x="402" y="242" type="curve" smooth="yes"/>
      <point x="402" y="327"/>
      <point x="382" y="443"/>
      <point x="290" y="443" type="curve" smooth="yes"/>
      <point x="200" y="443"/>
      <point x="180" y="332"/>
    </contour>
    <contour>
      <point x="104.097" y="560" type="line"/>
      <point x="121.097" y="629"/>
      <point x="157.097" y="684"/>
      <point x="224.097" y="684" type="curve" smooth="yes"/>
      <point x="250.097" y="684"/>
      <point x="268.097" y="673"/>
      <point x="287.097" y="661" type="curve"/>
      <point x="306.097" y="648"/>
      <point x="327.097" y="637"/>
      <point x="357.097" y="637" type="curve" smooth="yes"/>
      <point x="378.097" y="637"/>
      <point x="398.097" y="658"/>
      <point x="401.097" y="684" type="curve"/>
      <point x="455.097" y="684" type="line"/>
      <point x="438.097" y="615"/>
      <point x="402.097" y="560"/>
      <point x="334.097" y="560" type="curve" smooth="yes"/>
      <point x="309.097" y="560"/>
      <point x="290.097" y="571"/>
      <point x="272.097" y="583" type="curve" smooth="yes"/>
      <point x="252.097" y="596"/>
      <point x="232.097" y="608"/>
      <point x="202.097" y="608" type="curve" smooth="yes"/>
      <point x="180.097" y="608"/>
      <point x="161.097" y="587"/>
      <point x="158.097" y="560" type="curve"/>
    </contour>
  </outline>
</glyph>
<glyph name="uni023F" format="2">
  <advance width="444"/>
  <unicode hex="023F"/>
  <outline>
    <contour>
      <point x="32" y="15" type="curve"/>
      <point x="32" y="167" type="line"/>
      <point x="95" y="167" type="line"/>
      <point x="98" y="140"/>
      <point x="107" y="75"/>
      <point x="107" y="75" type="curve"/>
      <point x="110" y="69"/>
      <point x="168" y="47"/>
      <point x="200" y="47" type="curve" smooth="yes"/>
      <point x="268" y="47"/>
      <point x="286" y="88"/>
      <point x="286" y="111" type="curve" smooth="yes"/>
      <point x="286" y="155"/>
      <point x="230" y="180"/>
      <point x="172" y="206" type="curve" smooth="yes"/>
      <point x="108" y="235"/>
      <point x="38" y="269"/>
      <point x="38" y="348" type="curve" smooth="yes"/>
      <point x="38" y="441"/>
      <point x="122" y="500"/>
      <point x="239" y="500" type="curve" smooth="yes"/>
      <point x="338" y="500"/>
      <point x="398" y="473"/>
      <point x="398" y="473" type="curve"/>
      <point x="398" y="335" type="line"/>
      <point x="336" y="335" type="line"/>
      <point x="325" y="415" type="line"/>
      <point x="312" y="430"/>
      <point x="283" y="440"/>
      <point x="247" y="440" type="curve" smooth="yes"/>
      <point x="200" y="440"/>
      <point x="172" y="420"/>
      <point x="172" y="385" type="curve" smooth="yes"/>
      <point x="172" y="345"/>
      <point x="219" y="315"/>
      <point x="273" y="292" type="curve" smooth="yes"/>
      <point x="340" y="263"/>
      <point x="414" y="223"/>
      <point x="414" y="156" type="curve" smooth="yes"/>
      <point x="414" y="30"/>
      <point x="308" y="-12"/>
      <point x="210" y="-12" type="curve" smooth="yes"/>
      <point x="201" y="-12"/>
      <point x="198" y="-12"/>
      <point x="185" y="-9" type="curve"/>
      <point x="207" y="-22"/>
      <point x="241" y="-61"/>
      <point x="269" y="-97" type="curve" smooth="yes"/>
      <point x="293" y="-128"/>
      <point x="311" y="-144"/>
      <point x="324" y="-155" type="curve"/>
      <point x="395" y="-89" type="line"/>
      <point x="395" y="-89"/>
      <point x="457" y="-108"/>
      <point x="457" y="-155" type="curve" smooth="yes"/>
      <point x="457" y="-217"/>
      <point x="391" y="-231"/>
      <point x="360" y="-231" type="curve" smooth="yes"/>
      <point x="261" y="-231"/>
      <point x="204" y="-155"/>
      <point x="159" y="-87" type="curve" smooth="yes"/>
      <point x="119" y="-27"/>
      <point x="67" y="15"/>
    </contour>
  </outline>
</glyph>
<glyph name="uni0242" format="2">
  <advance width="423"/>
  <unicode hex="0242"/>
  <outline>
    <contour>
      <point x="32" y="402" type="curve" smooth="yes"/>
      <point x="32" y="449"/>
      <point x="92" y="500"/>
      <point x="185" y="500" type="curve" smooth="yes"/>
      <point x="333" y="500"/>
      <point x="393" y="428"/>
      <point x="393" y="346" type="curve" smooth="yes"/>
      <point x="393" y="263"/>
      <point x="335" y="231"/>
      <point x="268" y="208" type="curve"/>
      <point x="268" y="62" type="line" smooth="yes"/>
      <point x="268" y="54"/>
      <point x="271" y="50"/>
      <point x="280" y="50" type="curve"/>
      <point x="335" y="47" type="line"/>
      <point x="335" y="0" type="line"/>
      <point x="66" y="0" type="line"/>
      <point x="66" y="47" type="line"/>
      <point x="122" y="50" type="line"/>
      <point x="130" y="50"/>
      <point x="134" y="54"/>
      <point x="134" y="62" type="curve" smooth="yes"/>
      <point x="134" y="223" type="line"/>
      <point x="200" y="239"/>
      <point x="254" y="274"/>
      <point x="254" y="346" type="curve" smooth="yes"/>
      <point x="254" y="415"/>
      <point x="239" y="449"/>
      <point x="206" y="449" type="curve" smooth="yes"/>
      <point x="192" y="449"/>
      <point x="183" y="445"/>
      <point x="177" y="439" type="curve"/>
      <point x="139" y="338" type="line"/>
      <point x="132" y="334"/>
      <point x="120" y="330"/>
      <point x="105" y="330" type="curve" smooth="yes"/>
      <point x="65" y="330"/>
      <point x="32" y="356"/>
    </contour>
  </outline>
</glyph>
<glyph name="uni0245" format="2">
  <advance width="726"/>
  <unicode hex="0245"/>
  <outline>
    <contour>
      <point x="20" y="0" type="line"/>
      <point x="20" y="51" type="line"/>
      <point x="83" y="59" type="line"/>
      <point x="313" y="687" type="line"/>
      <point x="408" y="687" type="line"/>
      <point x="642" y="60" type="line"/>
      <point x="706" y="51" type="line"/>
      <point x="706" y="0" type="line"/>
      <point x="421" y="0" type="line"/>
      <point x="421" y="51" type="line"/>
      <point x="477" y="58" type="line" smooth="yes"/>
      <point x="486" y="59"/>
      <point x="488" y="65"/>
      <point x="488" y="72" type="curve" smooth="yes"/>
      <point x="488" y="75"/>
      <point x="488" y="78"/>
      <point x="487" y="80" type="curve"/>
      <point x="318" y="544" type="line"/>
      <point x="340" y="544" type="line"/>
      <point x="176" y="79" type="line"/>
      <point x="175" y="77"/>
      <point x="175" y="74"/>
      <point x="175" y="72" type="curve"/>
      <point x="175" y="66"/>
      <point x="179" y="59"/>
      <point x="190" y="58" type="curve"/>
      <point x="244" y="51" type="line"/>
      <point x="244" y="0" type="line"/>
    </contour>
  </outline>
</glyph>
<glyph name="uni0253" format="2">
  <advance width="587"/>
  <unicode hex="0253"/>
  <outline>
    <contour>
      <point x="78" y="0" type="line"/>
      <point x="78" y="500" type="line" smooth="yes"/>
      <point x="78" y="647"/>
      <point x="167" y="740"/>
      <point x="307" y="740" type="curve" smooth="yes"/>
      <point x="407" y="740"/>
      <point x="474" y="704"/>
      <point x="474" y="649" type="curve" smooth="yes"/>
      <point x="474" y="589"/>
      <point x="413" y="581"/>
      <point x="413" y="581" type="curve"/>
      <point x="329" y="678" type="line"/>
      <point x="260" y="678"/>
      <point x="211" y="605"/>
      <point x="211" y="500" type="curve" smooth="yes"/>
      <point x="211" y="451" type="line"/>
      <point x="251" y="479"/>
      <point x="314" y="500"/>
      <point x="358" y="500" type="curve" smooth="yes"/>
      <point x="475" y="500"/>
      <point x="557" y="407"/>
      <point x="557" y="274" type="curve" smooth="yes"/>
      <point x="557" y="103"/>
      <point x="442" y="0"/>
      <point x="250" y="0" type="curve" smooth="yes"/>
    </contour>
    <contour>
      <point x="211" y="56" type="line"/>
      <point x="247" y="56" type="line" smooth="yes"/>
      <point x="357" y="56"/>
      <point x="412" y="118"/>
      <point x="412" y="244" type="curve" smooth="yes"/>
      <point x="412" y="353"/>
      <point x="361" y="414"/>
      <point x="268" y="414" type="curve" smooth="yes"/>
      <point x="253" y="414"/>
      <point x="222" y="411"/>
      <point x="211" y="409" type="curve"/>
    </contour>
  </outline>
</glyph>
<glyph name="uni025C" format="2">
  <advance width="445"/>
  <unicode hex="025C"/>
  <outline>
    <contour>
      <point x="23" y="66" type="curve"/>
      <point x="23" y="145" type="line"/>
      <point x="91" y="82"/>
      <point x="149" y="54"/>
      <point x="208" y="54" type="curve" smooth="yes"/>
      <point x="257" y="54"/>
      <point x="287" y="88"/>
      <point x="287" y="143" type="curve" smooth="yes"/>
      <point x="287" y="189"/>
      <point x="260" y="209"/>
      <point x="195" y="211" type="curve" smooth="yes"/>
      <point x="168" y="212" type="line"/>
      <point x="168" y="260" type="line"/>
      <point x="242" y="260"/>
      <point x="268" y="285"/>
      <point x="268" y="353" type="curve" smooth="yes"/>
      <point x="268" y="401"/>
      <point x="241" y="441"/>
      <point x="209" y="441" type="curve" smooth="yes"/>
      <point x="190" y="441"/>
      <point x="169" y="437"/>
      <point x="154" y="431" type="curve"/>
      <point x="154" y="349" type="line"/>
      <point x="144" y="329"/>
      <point x="121" y="317"/>
      <point x="93" y="317" type="curve" smooth="yes"/>
      <point x="57" y="317"/>
      <point x="27" y="349"/>
      <point x="27" y="386" type="curve" smooth="yes"/>
      <point x="27" y="454"/>
      <point x="99" y="500"/>
      <point x="206" y="500" type="curve" smooth="yes"/>
      <point x="310" y="500"/>
      <point x="391" y="436"/>
      <point x="391" y="353" type="curve" smooth="yes"/>
      <point x="391" y="316"/>
      <point x="370" y="274"/>
      <point x="334" y="241" type="curve"/>
      <point x="329" y="257" type="line"/>
      <point x="384" y="233"/>
      <point x="414" y="193"/>
      <point x="414" y="142" type="curve" smooth="yes"/>
      <point x="414" y="42"/>
      <point x="342" y="-12"/>
      <point x="207" y="-12" type="curve" smooth="yes"/>
      <point x="140" y="-12"/>
      <point x="78" y="14"/>
    </contour>
  </outline>
</glyph>
<glyph name="uni025F" format="2">
  <advance width="324"/>
  <unicode hex="025F"/>
  <outline>
    <contour>
      <point x="-90" y="-155" type="curve" smooth="yes"/>
      <point x="-90" y="-119"/>
      <point x="-60" y="-91"/>
      <point x="-26" y="-88" type="curve"/>
      <point x="72" y="-187" type="line"/>
      <point x="100" y="-135"/>
      <point x="100" y="-23"/>
      <point x="100" y="-5" type="curve" smooth="yes"/>
      <point x="100" y="409" type="line"/>
      <point x="29" y="409" type="line"/>
      <point x="29" y="450" type="line"/>
      <point x="182" y="500" type="line"/>
      <point x="233" y="500" type="line"/>
      <point x="233" y="47" type="line" smooth="yes"/>
      <point x="233" y="-26"/>
      <point x="216" y="-97"/>
      <point x="178" y="-150" type="curve" smooth="yes"/>
      <point x="142" y="-199"/>
      <point x="87" y="-231"/>
      <point x="10" y="-231" type="curve" smooth="yes"/>
      <point x="-44" y="-231"/>
      <point x="-90" y="-204"/>
    </contour>
    <contour>
      <point x="13" y="217" type="line"/>
      <point x="13" y="280" type="line"/>
      <point x="311" y="280" type="line"/>
      <point x="311" y="217" type="line"/>
    </contour>
  </outline>
</glyph>
<glyph name="uni0266" format="2">
  <advance width="625"/>
  <unicode hex="0266"/>
  <outline>
    <contour>
      <point x="27" y="0" type="line"/>
      <point x="27" y="47" type="line"/>
      <point x="68" y="50" type="line" smooth="yes"/>
      <point x="80" y="51"/>
      <point x="90" y="61"/>
      <point x="90" y="73" type="curve" smooth="yes"/>
      <point x="90" y="500" type="line" smooth="yes"/>
      <point x="90" y="644"/>
      <point x="182" y="740"/>
      <point x="319" y="740" type="curve" smooth="yes"/>
      <point x="417" y="740"/>
      <point x="505" y="690"/>
      <point x="505" y="635" type="curve" smooth="yes"/>
      <point x="505" y="599"/>
      <point x="480" y="565"/>
      <point x="453" y="565" type="curve" smooth="yes"/>
      <point x="439" y="565"/>
      <point x="429" y="569"/>
      <point x="420" y="576" type="curve"/>
      <point x="380" y="671" type="line"/>
      <point x="366" y="676"/>
      <point x="353" y="678"/>
      <point x="341" y="678" type="curve" smooth="yes"/>
      <point x="272" y="678"/>
      <point x="224" y="604"/>
      <point x="224" y="500" type="curve" smooth="yes"/>
      <point x="224" y="438" type="line"/>
      <point x="276" y="474"/>
      <point x="351" y="500"/>
      <point x="399" y="500" type="curve" smooth="yes"/>
      <point x="484" y="500"/>
      <point x="536" y="440"/>
      <point x="536" y="343" type="curve" smooth="yes"/>
      <point x="536" y="73" type="line" smooth="yes"/>
      <point x="536" y="61"/>
      <point x="546" y="51"/>
      <point x="558" y="50" type="curve" smooth="yes"/>
      <point x="600" y="47" type="line"/>
      <point x="600" y="0" type="line"/>
      <point x="348" y="0" type="line"/>
      <point x="348" y="47" type="line"/>
      <point x="380" y="50" type="line" smooth="yes"/>
      <point x="392" y="51"/>
      <point x="402" y="61"/>
      <point x="402" y="73" type="curve" smooth="yes"/>
      <point x="402" y="309" type="line" smooth="yes"/>
      <point x="402" y="369"/>
      <point x="369" y="408"/>
      <point x="318" y="408" type="curve" smooth="yes"/>
      <point x="295" y="408"/>
      <point x="241" y="401"/>
      <point x="224" y="395" type="curve"/>
      <point x="224" y="73" type="line" smooth="yes"/>
      <point x="224" y="61"/>
      <point x="234" y="51"/>
      <point x="246" y="50" type="curve" smooth="yes"/>
      <point x="281" y="47" type="line"/>
      <point x="281" y="0" type="line"/>
    </contour>
  </outline>
</glyph>
<glyph name="uni0269" format="2">
  <advance width="380"/>
  <unicode hex="0269"/>
  <outline>
    <contour>
      <point x="25" y="408" type="line"/>
      <point x="25" y="450" type="line"/>
      <point x="174" y="500" type="line"/>
      <point x="224" y="500" type="line"/>
      <point x="224" y="134" type="line" smooth="yes"/>
      <point x="224" y="105"/>
      <point x="236" y="87"/>
      <point x="254" y="87" type="curve" smooth="yes"/>
      <point x="275" y="87"/>
      <point x="297" y="103"/>
      <point x="308" y="126" type="curve"/>
      <point x="381" y="126" type="line"/>
      <point x="352" y="45"/>
      <point x="284" y="-12"/>
      <point x="214" y="-12" type="curve" smooth="yes"/>
      <point x="136" y="-12"/>
      <point x="90" y="38"/>
      <point x="90" y="123" type="curve" smooth="yes"/>
      <point x="90" y="408" type="line"/>
    </contour>
  </outline>
</glyph>
<glyph name="uni026F" format="2">
  <advance width="905"/>
  <unicode hex="026F"/>
  <outline>
    <contour>
      <point x="27" y="441" type="line"/>
      <point x="27" y="488" type="line"/>
      <point x="273" y="488" type="line"/>
      <point x="273" y="441" type="line"/>
      <point x="242" y="438" type="line" smooth="yes"/>
      <point x="229" y="437"/>
      <point x="219" y="427"/>
      <point x="219" y="415" type="curve" smooth="yes"/>
      <point x="219" y="174" type="line" smooth="yes"/>
      <point x="219" y="113"/>
      <point x="250" y="80"/>
      <point x="306" y="80" type="curve" smooth="yes"/>
      <point x="338" y="80"/>
      <point x="369" y="86"/>
      <point x="386" y="96" type="curve"/>
      <point x="386" y="415" type="line" smooth="yes"/>
      <point x="386" y="427"/>
      <point x="376" y="437"/>
      <point x="363" y="438" type="curve" smooth="yes"/>
      <point x="333" y="441" type="line"/>
      <point x="333" y="488" type="line"/>
      <point x="573" y="488" type="line"/>
      <point x="573" y="441" type="line"/>
      <point x="542" y="438" type="line" smooth="yes"/>
      <point x="530" y="437"/>
      <point x="520" y="427"/>
      <point x="520" y="415" type="curve" smooth="yes"/>
      <point x="520" y="174" type="line" smooth="yes"/>
      <point x="520" y="115"/>
      <point x="552" y="80"/>
      <point x="606" y="80" type="curve" smooth="yes"/>
      <point x="645" y="80"/>
      <point x="670" y="85"/>
      <point x="687" y="96" type="curve"/>
      <point x="687" y="415" type="line" smooth="yes"/>
      <point x="687" y="427"/>
      <point x="677" y="437"/>
      <point x="664" y="438" type="curve" smooth="yes"/>
      <point x="633" y="441" type="line"/>
      <point x="633" y="488" type="line"/>
      <point x="878" y="488" type="line"/>
      <point x="878" y="441" type="line"/>
      <point x="842" y="438" type="line" smooth="yes"/>
      <point x="830" y="437"/>
      <point x="820" y="427"/>
      <point x="820" y="415" type="curve" smooth="yes"/>
      <point x="820" y="80" type="line"/>
      <point x="884" y="80" type="line"/>
      <point x="884" y="39" type="line"/>
      <point x="737" y="-11" type="line"/>
      <point x="687" y="-11" type="line"/>
      <point x="687" y="49" type="line"/>
      <point x="644" y="16"/>
      <point x="570" y="-11"/>
      <point x="523" y="-11" type="curve" smooth="yes"/>
      <point x="471" y="-11"/>
      <point x="432" y="11"/>
      <point x="402" y="56" type="curve"/>
      <point x="366" y="24"/>
      <point x="272" y="-11"/>
      <point x="224" y="-11" type="curve" smooth="yes"/>
      <point x="142" y="-11"/>
      <point x="86" y="51"/>
      <point x="86" y="141" type="curve" smooth="yes"/>
      <point x="86" y="415" type="line" smooth="yes"/>
      <point x="86" y="427"/>
      <point x="76" y="437"/>
      <point x="64" y="438" type="curve" smooth="yes"/>
    </contour>
  </outline>
</glyph>
<glyph name="uni0274" format="2">
  <advance width="595"/>
  <unicode hex="0274"/>
  <outline>
    <contour>
      <point x="22" y="441" type="line"/>
      <point x="22" y="488" type="line"/>
      <point x="227" y="488" type="line"/>
      <point x="227" y="465" type="line"/>
      <point x="441" y="160" type="line"/>
      <point x="441" y="427" type="line" smooth="yes"/>
      <point x="441" y="432"/>
      <point x="437" y="436"/>
      <point x="429" y="437" type="curve"/>
      <point x="379" y="441" type="line"/>
      <point x="379" y="488" type="line"/>
      <point x="572" y="488" type="line"/>
      <point x="572" y="441" type="line"/>
      <point x="524" y="437" type="line"/>
      <point x="517" y="436"/>
      <point x="512" y="432"/>
      <point x="512" y="427" type="curve" smooth="yes"/>
      <point x="512" y="0" type="line"/>
      <point x="408" y="0" type="line"/>
      <point x="153" y="364" type="line"/>
      <point x="153" y="61" type="line" smooth="yes"/>
      <point x="153" y="56"/>
      <point x="157" y="52"/>
      <point x="165" y="51" type="curve"/>
      <point x="213" y="47" type="line"/>
      <point x="213" y="0" type="line"/>
      <point x="21" y="0" type="line"/>
      <point x="21" y="47" type="line"/>
      <point x="69" y="51" type="line"/>
      <point x="77" y="52"/>
      <point x="82" y="56"/>
      <point x="82" y="61" type="curve" smooth="yes"/>
      <point x="82" y="427" type="line" smooth="yes"/>
      <point x="82" y="432"/>
      <point x="77" y="436"/>
      <point x="70" y="437" type="curve"/>
    </contour>
  </outline>
</glyph>
<glyph name="uni027A" format="2">
  <advance width="432"/>
  <unicode hex="027A"/>
  <outline>
    <contour>
      <point x="10" y="6" type="curve"/>
      <point x="10" y="158" type="line"/>
      <point x="79" y="158" type="line"/>
      <point x="95" y="132"/>
      <point x="117" y="118"/>
      <point x="144" y="118" type="curve" smooth="yes"/>
      <point x="181" y="118"/>
      <point x="208" y="136"/>
      <point x="208" y="136" type="curve"/>
      <point x="208" y="649" type="line"/>
      <point x="138" y="649" type="line"/>
      <point x="138" y="690" type="line"/>
      <point x="291" y="740" type="line"/>
      <point x="342" y="740" type="line"/>
      <point x="342" y="80" type="line"/>
      <point x="415" y="80" type="line"/>
      <point x="415" y="39" type="line"/>
      <point x="260" y="-12" type="line"/>
      <point x="208" y="-12" type="line"/>
      <point x="208" y="94" type="line"/>
      <point x="159" y="31"/>
      <point x="104" y="-12"/>
      <point x="73" y="-12" type="curve" smooth="yes"/>
      <point x="52" y="-12"/>
      <point x="23" y="-4"/>
    </contour>
  </outline>
</glyph>
<glyph name="uni027D" format="2">
  <advance width="432"/>
  <unicode hex="027D"/>
  <outline>
    <contour>
      <point x="17" y="408" type="line"/>
      <point x="17" y="449" type="line"/>
      <point x="172" y="500" type="line"/>
      <point x="224" y="500" type="line"/>
      <point x="224" y="394" type="line"/>
      <point x="273" y="457"/>
      <point x="328" y="500"/>
      <point x="359" y="500" type="curve" smooth="yes"/>
      <point x="380" y="500"/>
      <point x="409" y="492"/>
      <point x="422" y="482" type="curve"/>
      <point x="422" y="330" type="line"/>
      <point x="354" y="330" type="line"/>
      <point x="338" y="357"/>
      <point x="317" y="370"/>
      <point x="289" y="370" type="curve" smooth="yes"/>
      <point x="251" y="370"/>
      <point x="224" y="352"/>
      <point x="224" y="352" type="curve"/>
      <point x="224" y="-29" type="line" smooth="yes"/>
      <point x="224" y="-106"/>
      <point x="232" y="-145"/>
      <point x="257" y="-182" type="curve"/>
      <point x="356" y="-89" type="line"/>
      <point x="393" y="-100"/>
      <point x="418" y="-127"/>
      <point x="418" y="-155" type="curve" smooth="yes"/>
      <point x="418" y="-199"/>
      <point x="378" y="-231"/>
      <point x="322" y="-231" type="curve" smooth="yes"/>
      <point x="187" y="-231"/>
      <point x="90" y="-111"/>
      <point x="90" y="57" type="curve" smooth="yes"/>
      <point x="90" y="408" type="line"/>
    </contour>
  </outline>
</glyph>
<glyph name="uni0281" format="2">
  <advance width="562"/>
  <unicode hex="0281"/>
  <outline>
    <contour>
      <point x="22" y="0" type="line"/>
      <point x="22" y="47" type="line"/>
      <point x="69" y="51" type="line" smooth="yes"/>
      <point x="78" y="52"/>
      <point x="82" y="55"/>
      <point x="82" y="63" type="curve" smooth="yes"/>
      <point x="82" y="426" type="line" smooth="yes"/>
      <point x="82" y="433"/>
      <point x="77" y="437"/>
      <point x="69" y="438" type="curve"/>
      <point x="22" y="441" type="line"/>
      <point x="22" y="488" type="line"/>
      <point x="266" y="488" type="line"/>
      <point x="266" y="441" type="line"/>
      <point x="217" y="438" type="line"/>
      <point x="209" y="438"/>
      <point x="205" y="433"/>
      <point x="205" y="426" type="curve" smooth="yes"/>
      <point x="205" y="279" type="line"/>
      <point x="230" y="279" type="line" smooth="yes"/>
      <point x="272" y="279"/>
      <point x="294" y="302"/>
      <point x="318" y="371" type="curve" smooth="yes"/>
      <point x="323" y="386"/>
      <point x="330" y="401"/>
      <point x="340" y="420" type="curve" smooth="yes"/>
      <point x="369" y="477"/>
      <point x="409" y="500"/>
      <point x="480" y="500" type="curve" smooth="yes"/>
      <point x="496" y="500"/>
      <point x="512" y="498"/>
      <point x="527" y="494" type="curve"/>
      <point x="537" y="491"/>
      <point x="548" y="489"/>
      <point x="563" y="488" type="curve"/>
      <point x="563" y="440" type="line"/>
      <point x="493" y="440"/>
      <point x="465" y="422"/>
      <point x="445" y="364" type="curve" smooth="yes"/>
      <point x="420" y="291"/>
      <point x="399" y="265"/>
      <point x="349" y="249" type="curve"/>
      <point x="422" y="232"/>
      <point x="464" y="186"/>
      <point x="464" y="124" type="curve" smooth="yes"/>
      <point x="464" y="50"/>
      <point x="392" y="0"/>
      <point x="288" y="0" type="curve" smooth="yes"/>
    </contour>
    <contour>
      <point x="205" y="54" type="line"/>
      <point x="225" y="54" type="line" smooth="yes"/>
      <point x="299" y="54"/>
      <point x="336" y="82"/>
      <point x="336" y="137" type="curve" smooth="yes"/>
      <point x="336" y="195"/>
      <point x="297" y="226"/>
      <point x="226" y="226" type="curve" smooth="yes"/>
      <point x="216" y="226"/>
      <point x="209" y="226"/>
      <point x="205" y="225" type="curve"/>
    </contour>
  </outline>
</glyph>
